<?xml version="1.0" standalone="no"?>
<!DOCTYPE svg PUBLIC "-//W3C//DTD SVG 1.1//EN" "http://www.w3.org/Graphics/SVG/1.1/DTD/svg11.dtd" >
<svg xmlns="http://www.w3.org/2000/svg" xmlns:xlink="http://www.w3.org/1999/xlink" version="1.1">
<metadata></metadata>
<defs>
<font id="optimusprincepssemiboldRg" horiz-adv-x="1376" >
<font-face units-per-em="2048" ascent="1638" descent="-410" />
<missing-glyph horiz-adv-x="499" />
<glyph horiz-adv-x="0" />
<glyph horiz-adv-x="682" />
<glyph horiz-adv-x="581" d="M41 1610q0 -31 25.5 -51.5t60.5 -30.5t70.5 -14.5t56.5 -4.5q43 0 90 8.5t88 29t72 54t37 82.5l-43 15q-39 -41 -89.5 -73t-105.5 -32q-49 0 -90 29t-70 74q-14 14 -34 4q-20 -14 -44 -38t-24 -52z" />
<glyph horiz-adv-x="282" d="M37 1432q0 -18 7 -39t19.5 -39.5t31 -29.5t42.5 -11q41 0 75 27.5t34 68.5q0 43 -32 77t-79 34q-43 0 -70.5 -23.5t-27.5 -64.5z" />
<glyph horiz-adv-x="440" d="M39 1337q0 -47 29.5 -80.5t83.5 -33.5q23 0 43 7t41 17q29 2 58.5 11.5t53 25.5t38.5 41.5t15 60.5q0 59 -44 96.5t-103 37.5q-39 0 -77 -13.5t-68.5 -37t-50 -57.5t-19.5 -75zM156 1384q0 25 18.5 42.5t40.5 17.5q27 0 44 -23.5t17 -52.5q0 -16 -13 -35.5t-30 -19.5 q-29 0 -53 19.5t-24 51.5z" />
<glyph unicode="&#xa;" horiz-adv-x="579" d="M49 1500.5q14 -13.5 31 -3.5q16 12 34.5 24.5t35.5 26.5h-3q41 31 80 59.5t86 59.5l9 25q-12 18 -33 34.5t-49 16.5q-29 0 -50.5 -13.5t-39 -35t-33 -48t-27.5 -51.5q-14 -27 -24.5 -47t-16.5 -24q-14 -10 0 -23.5zM244 1524q-12 -10 1 -23.5t29 -3.5q10 8 22.5 16.5 t27.5 18.5q23 18 49 37.5t52 37t49.5 29t41.5 13.5l21 26q-10 23 -34 50.5t-61 27.5q-20 0 -40.5 -15.5t-40 -38t-38 -51t-34.5 -55.5q-14 -23 -26.5 -42t-18.5 -27z" />
<glyph horiz-adv-x="430" d="M39 -61q0 -37 16.5 -67t42 -52.5t60.5 -34.5t71 -12q41 0 79 13t73 36l-21 31q-63 -16 -111 19.5t-48 104.5q0 49 28.5 87t69.5 59q18 6 11 22.5t-27 12.5q-39 -10 -82 -27.5t-79 -44.5t-59.5 -62.5t-23.5 -84.5z" />
<glyph horiz-adv-x="557" d="M42 1643.5q3 -7.5 9 -11.5q55 -43 110.5 -84t108.5 -75q12 -6 29 2q55 47 109.5 101.5t101.5 111.5l-25 30q-29 -8 -59.5 -28.5t-54.5 -40.5q-23 -16 -42.5 -30.5t-35.5 -19.5q-29 8 -53.5 31t-53.5 47q-14 10 -26.5 22.5t-26.5 22.5q-6 4 -16 4q-8 0 -15 -4 q-16 -14 -32.5 -32.5t-26.5 -34.5q-4 -4 -1 -11.5z" />
<glyph horiz-adv-x="739" />
<glyph horiz-adv-x="739" />
<glyph unicode=" "  horiz-adv-x="499" />
<glyph unicode="&#x09;" horiz-adv-x="499" />
<glyph unicode="&#xa0;" horiz-adv-x="499" />
<glyph unicode="!" horiz-adv-x="284" d="M35 1247q0 -33 3 -103.5t8 -158.5t12.5 -184t17.5 -181t21.5 -148.5t25.5 -88.5q10 -12 26.5 -9t18.5 17q10 125 18.5 253t18.5 253q10 129 19.5 254t19.5 252l-29 20q-25 -4 -56.5 -21.5t-59 -43t-46 -55t-18.5 -56.5zM39 213q0 -18 7 -39.5t19.5 -39t31 -30t42.5 -12.5 q41 0 75 27.5t34 68.5q0 45 -32 79t-79 34q-43 0 -70.5 -24.5t-27.5 -63.5z" />
<glyph unicode="&#x22;" horiz-adv-x="485" d="M41 1513q0 -14 2 -26l35 -422q2 -18 21.5 -30.5t35.5 -12.5q39 0 47 24.5t8 45.5v8l17 225q0 4 1 14.5t3 20.5q2 8 2 16v13q2 33 5 65.5t5 65.5q2 6 2 14v20q0 35 -25.5 59.5t-66.5 24.5q-29 0 -46 -10t-27.5 -25.5t-14.5 -32t-4 -28.5v-29zM260 1513q0 -14 2 -26 l35 -422q2 -18 21.5 -30.5t37.5 -12.5q37 0 45.5 24.5t8.5 45.5v8l18 225q0 4 1 14.5t3 20.5q2 8 2 16v13q2 33 4 65.5t4 65.5q2 6 2 14v20q0 35 -25.5 59.5t-64.5 24.5q-29 0 -47 -10t-28.5 -25.5t-14.5 -32t-4 -28.5v-29z" />
<glyph unicode="#" horiz-adv-x="1038" d="M47 434q-2 -6 6 -12t19 -6q29 -2 59.5 -5t58.5 -5l-30 -236q0 -4 -1 -11t-1 -12q-6 -37 -11.5 -73.5t-9.5 -73.5q-4 -16 19 -20l51 -15q27 -4 31 15l38 174q2 10 7 26q12 53 23 104.5t20 102.5q0 4 1 8t1 8q66 -4 134 -5t136 -5l-55 -389q-2 -8 4 -13t16 -7l53 -9 q18 0 23 13q2 4 4 10t0 4q4 4 5 6t1 8l58 254l10 62q4 14 6 29.5t6 29.5l141 -4q6 0 13.5 4t9.5 10l25 142q4 23 -25 22q-31 0 -62.5 -1t-62.5 -1q16 72 25.5 134.5t23.5 131.5l129 -2q18 0 23 15l22 139q4 18 -24 18h-119q23 92 36 183.5t23 181.5q2 8 -4 13t-16 7l-92 15 q-10 2 -18.5 -2t-10.5 -11q-18 -98 -37.5 -194t-38.5 -195q-72 -2 -129 -5t-127 -5q8 41 13.5 75t13.5 75q10 59 17 116.5t16 114.5q4 18 -19 18l-92 13q-10 2 -18.5 -2t-10.5 -11q-20 -102 -37.5 -202.5t-37.5 -200.5l-117 -4q-18 0 -23 -16l-16 -86q-4 -20 22 -21 q23 -2 56 -2q35 0 57 -2q-14 -80 -23.5 -153.5t-23.5 -153.5l-125 -4q-6 0 -13 -5.5t-10 -11.5zM358 553q16 82 28.5 147.5t27.5 143.5l252 -15q-12 -72 -23.5 -133t-21.5 -133q-68 -4 -132.5 -5t-130.5 -5z" />
<glyph unicode="$" horiz-adv-x="776" d="M43 256q0 -14 2 -29q0 -4 4 -8t8 -6q53 -31 116 -53.5t126 -32.5q-4 -18 -3 -26.5t-1 -25t-3 -33.5t-5 -34q-4 -23 24 -22l21 -2q45 0 55 30.5t14 69.5q2 12 3.5 25.5t3.5 21.5q68 8 126 33.5t103 67.5t70.5 98.5t25.5 128.5q0 127 -76.5 224t-191.5 146q2 14 1 21.5 t1 21.5q8 98 16.5 193.5t22.5 194.5q51 -10 86 -47t35 -91l-4 -35q0 -16 19.5 -18t25.5 12q18 43 23 88t5 88v25q0 12 -2 23q0 10 -14 14q-35 16 -79 29.5t-87 11.5q4 16 3 23.5t1 27.5q2 18 3 36.5t5 37.5q2 10 -5 15t-17 5q-29 2 -46.5 -8t-26.5 -27.5t-12 -38t-3 -40.5 v-39q-72 2 -131.5 -18.5t-102.5 -61.5t-67.5 -98.5t-24.5 -129.5q0 -123 75 -214t185 -134q-8 -123 -16 -236.5t-21 -234.5q-39 4 -71.5 23.5t-57 50.5t-38 69t-13.5 76v15q0 12 -12 16t-25 -2l-28 -22q-16 -39 -20.5 -83t-4.5 -81v-31zM248 1094q0 72 44.5 116t110.5 50 q-10 -92 -19 -184.5t-15 -184.5q-51 33 -86 86t-35 117zM418 231q4 57 7 102.5t7 102.5q4 47 7 97.5t7 99.5q53 -35 89 -91t36 -124q0 -72 -44 -122t-109 -65z" />
<glyph unicode="%" horiz-adv-x="1372" d="M51 1047q0 -59 23.5 -119t64.5 -108t96.5 -78.5t118.5 -30.5t117.5 32.5t93.5 83t60.5 110.5t21.5 118q0 57 -19.5 107t-60.5 87q78 12 142.5 16.5t142.5 4.5h12q-96 -219 -195.5 -442.5t-197.5 -436.5q-29 -61 -56.5 -122.5t-56.5 -123.5q-6 -10 1.5 -18t21.5 -8 q4 0 11 -1t14 -1q20 -2 53 3t49 30q14 20 30.5 53t32 69.5t31.5 75.5t31 76q10 23 17 43t14 37q92 211 175 421t169 423l-25 22q-27 -4 -80 -7t-125 -7q-80 -6 -168 -12.5t-166.5 -13.5t-136 -15t-74.5 -15q-86 -35 -134 -99t-48 -154zM201 1059q0 37 8 72.5t26.5 63.5 t47 45t67.5 17t66.5 -19t45 -50t26 -67.5t8.5 -73.5q0 -72 -27 -139.5t-86 -102.5q-47 2 -81 25.5t-56.5 59.5t-33.5 81t-11 88zM752 436q0 -59 18 -115.5t54 -99.5t88.5 -68.5t119.5 -25.5q66 0 119 25.5t91 68.5t58.5 99.5t20.5 117.5q0 57 -17.5 111.5t-52 97.5t-85 68.5 t-115.5 25.5q-68 0 -122.5 -23.5t-94 -65.5t-61 -97t-21.5 -119zM885 475q0 37 9 71t28.5 60.5t48 43t67.5 16.5q37 0 63.5 -18.5t44 -48.5t25 -65.5t7.5 -70.5q0 -72 -27 -143.5t-86 -112.5q-43 8 -77 34.5t-56.5 63.5t-34.5 81t-12 89z" />
<glyph unicode="&#x26;" horiz-adv-x="1488" d="M53 487q0 -90 38 -159.5t100.5 -118.5t141.5 -74.5t161 -25.5q55 0 106 14t100.5 36.5t94.5 51.5t86 59q25 -23 58.5 -48t70.5 -46.5t74.5 -37t72.5 -15.5h12h60q41 0 82 1t74.5 5t41.5 12l-12 29q-123 16 -226.5 78.5t-189.5 148.5q25 35 47.5 84t42 102.5t34 104.5 t24.5 90q4 12 -12 21q-37 20 -86.5 30.5t-94.5 10.5q-51 0 -90 -13q-16 -4 -14 -18t20 -16q51 -6 84 -34t33 -85q0 -55 -23.5 -111.5t-50.5 -105.5q-16 16 -25 24t-32 29q-70 63 -155 144t-158.5 167t-122.5 171t-49 159q0 80 51 133t127 53q39 0 77 -14t67.5 -40t47 -62.5 t17.5 -79.5v-15q0 -4 -2 -14q-2 -8 4 -12t13 -6t15.5 1t12.5 9q16 37 22 76t6 80q0 31 -3 61.5t-11 58.5q-4 8 -16 13q-49 20 -105.5 29.5t-109.5 9.5q-72 0 -141.5 -27t-125 -73t-89 -109.5t-33.5 -139.5q0 -59 24.5 -111t67.5 -93q-47 -41 -89 -83t-74 -88t-51.5 -100.5 t-19.5 -120.5zM223 528q0 80 30 145.5t81 123.5q100 -125 221 -245t250 -222q-53 -59 -118.5 -94t-141.5 -35q-66 0 -123 26.5t-102.5 71.5t-71 104.5t-25.5 124.5z" />
<glyph unicode="'" horiz-adv-x="262" d="M35 1542q0 -6 1 -12t1 -12v-31q10 -104 19.5 -210t19.5 -212q2 -18 20.5 -30.5t36.5 -12.5q37 0 44 26.5t7 47.5l21 231v12q0 10 2 21q0 6 1 14t1 12l12 134l-22 16q24 0 24 18q0 35 -27.5 59.5t-66.5 24.5q-29 0 -47.5 -10t-28.5 -25.5t-14 -32t-4 -28.5z" />
<glyph unicode="(" horiz-adv-x="487" d="M41 729q0 -104 28.5 -202.5t78 -187.5t116 -168t144.5 -146l34 24q-111 152 -177 327t-66 367q0 193 66.5 368t176.5 329q12 10 -3 21.5t-31 0.5q-76 -72 -142.5 -154.5t-117 -175t-79 -193.5t-28.5 -210z" />
<glyph unicode=")" horiz-adv-x="497" d="M45 49q-12 -12 3 -23.5t32 -0.5q78 70 146.5 152.5t119.5 175.5t81 194.5t30 210.5q0 106 -29 204.5t-79 188.5t-117.5 170t-143.5 149l-37 -24q111 -154 178.5 -332t67.5 -373q0 -193 -68.5 -366.5t-183.5 -325.5z" />
<glyph unicode="*" horiz-adv-x="595" d="M100 1337q0 -16 1 -29.5t3 -27.5q2 -16 3.5 -29.5t1.5 -27.5q0 -12 24 -17l25 -2h22t25 2q25 2 47 2q25 0 41 -6q-8 -8 -10 -9t-17 -13q-23 -18 -47 -41t-45.5 -44.5t-36 -42t-14.5 -34.5q0 -16 20 -21q29 -6 58.5 -11t60.5 -5h8q20 0 25 16q6 39 19.5 79t35.5 71 q4 -10 7 -16.5t8 -18.5q8 -25 18 -50.5t22.5 -47t28 -34.5t35.5 -13q18 0 32.5 12t25 29.5t16.5 34t10 26.5q-8 25 -29.5 42t-48.5 34q-18 14 -34.5 25.5t-22.5 27.5q35 2 67.5 3t65.5 5q10 2 20 2q12 0 23 2l20 23q-4 27 -17 65.5t-42 57.5q-16 6 -31 -4q-20 -23 -57 -53.5 t-66 -38.5q2 10 5.5 20t7.5 20q10 35 18 66t8 70q0 20 -8 43q-8 16 -26 12q-35 -6 -67 -17.5t-60 -33.5q-12 -8 -9 -19l21 -51q10 -25 18 -52.5t10 -49.5q-6 4 -12 9t-14 9q-37 27 -78 50.5t-72 23.5q-8 0 -15 -1t-17.5 -7t-10.5 -15z" />
<glyph unicode="+" horiz-adv-x="1554" d="M53 801q0 -18 25 -19h635v-657q0 -18 24 -19h74q23 0 23 19v657h643q24 1 24 19v78q0 16 -24 16h-643v664q0 18 -23 18h-74q-25 0 -24 -18v-664h-635q-25 0 -25 -16v-78z" />
<glyph unicode="," horiz-adv-x="280" d="M37 260q0 -4 12 -16q45 -41 45 -99q0 -31 -8 -54t-18 -50v2q-6 -16 -9.5 -25.5t-7.5 -19.5q-4 -14 12.5 -20.5t30.5 4.5q23 25 48.5 55.5t48 65t38 70.5t15.5 71q0 43 -24.5 71.5t-59.5 49.5l-19 2q-14 -4 -32.5 -14.5t-34 -26t-26.5 -33t-11 -33.5z" />
<glyph unicode="-" horiz-adv-x="720" d="M41 590q-2 -10 8 -15.5t25 -3.5q63 25 135 39.5t143 26.5q59 10 118.5 20.5t115.5 26.5l2 35q-8 2 -46 4t-90.5 3t-111.5 2t-113 1h-90h-45q-6 0 -13 -3t-9 -7q-12 -35 -18.5 -66.5t-10.5 -62.5z" />
<glyph unicode="." horiz-adv-x="411" d="M96 246q0 -39 25.5 -79t73.5 -40q20 0 41.5 8t39 22.5t28.5 32.5t11 41q0 41 -33.5 79t-80.5 38q-49 0 -77 -30.5t-28 -71.5z" />
<glyph unicode="/" horiz-adv-x="980" d="M47 172q6 -27 34 -46.5t52 -25.5q6 -2 14.5 1t12.5 8q197 315 388.5 626.5t381.5 628.5l-8 25l-74 30q-6 4 -15.5 1t-13.5 -7q-41 -66 -83 -133.5t-83 -132.5q-152 -242 -301 -480.5t-303 -480.5q0 -2 -2 -6t0 -8z" />
<glyph unicode="0" horiz-adv-x="1009" d="M47 772q0 -109 29.5 -225.5t90 -213.5t154 -163t222.5 -70l8 2q102 49 180 131t129 181.5t77 209.5t26 216q0 96 -24 191t-74 170t-131 121t-195 46q-129 0 -221.5 -51t-153 -136t-89 -191.5t-28.5 -217.5zM227 821q0 59 10.5 137t38 148t74.5 118t121 48q88 0 145.5 -49 t91 -123t47 -160t13.5 -158q0 -68 -11.5 -152.5t-36 -167.5t-65.5 -154.5t-102 -108.5q-90 27 -152.5 95t-100.5 157.5t-55.5 186.5t-17.5 183z" />
<glyph unicode="1" horiz-adv-x="694" d="M44 1112.5q7 -12.5 24 -10.5q29 4 57.5 15t52.5 22q25 12 45.5 21t36.5 9t27 -10v-872q0 -35 -10.5 -55.5t-28 -31t-39 -14.5t-45.5 -6q-16 -2 -37 -4t-37 -6q-18 -2 -17 -17.5t21 -17.5q133 -4 266.5 -7t266.5 -3l20 29q-14 16 -34.5 20t-47.5 8q-18 2 -36.5 6.5 t-34 15.5t-25.5 32.5t-10 60.5v229q0 113 2 229.5t2 229.5v227v31v62q0 31 -4 59q-2 10 -13.5 13t-23.5 -1q-98 -53 -192.5 -112.5t-178.5 -130.5q-14 -8 -7 -20.5z" />
<glyph unicode="2" horiz-adv-x="899" d="M47 143.5q6 -10.5 23 -10.5h667q31 0 52.5 38t36 87t20.5 97.5t6 66.5l-45 6q-23 -57 -50.5 -92t-63.5 -53.5t-79 -23.5t-98 -5h-168h-72q86 63 179.5 155.5t169 199t125 219t49.5 221.5q0 96 -40 157.5t-102.5 96t-142.5 48t-160 13.5q-55 0 -118.5 -18.5t-110.5 -40.5 q-14 -4 -14 -15q-2 -14 -3.5 -29.5t-1.5 -31.5q0 -45 5.5 -90t21.5 -92q6 -14 25.5 -12.5t19.5 16.5q2 90 51.5 155.5t139.5 65.5q53 0 99 -22.5t80 -61.5t52 -88t18 -101q0 -80 -36.5 -163.5t-95 -166.5t-129 -164t-140.5 -155q-47 -51 -90 -98t-76 -88q-10 -10 -4 -20.5z " />
<glyph unicode="3" horiz-adv-x="849" d="M45 217q0 -4 1 -10t1 -12v-23q0 -8 10 -12q47 -39 106.5 -58.5t123.5 -19.5q86 0 178 38t168 102.5t124 148.5t48 174q0 61 -20.5 108t-56.5 83t-83 60.5t-100 43.5q31 25 60.5 55.5t53 64t39 72.5t15.5 80q0 57 -20.5 105.5t-57.5 84t-86 55t-107 19.5q-76 0 -164 -20.5 t-157 -50.5q-14 -4 -15 -15q-4 -29 -6 -57.5t-2 -56.5q0 -25 2 -47.5t9 -45.5q4 -14 24 -14t23 16q8 84 60 136.5t134 52.5q41 0 78 -14.5t65.5 -40t45 -62.5t16.5 -80q0 -57 -18.5 -97t-47 -66.5t-61.5 -44t-63 -29.5q-31 -14 -53.5 -24.5t-32.5 -24.5l16 -29 q53 -10 111.5 -36t106.5 -63.5t79 -89t31 -112.5q0 -55 -29 -104.5t-73 -86.5t-99 -57t-109 -20q-94 0 -138 65.5t-48 155.5q-2 16 -20.5 18t-26.5 -12q-18 -47 -26.5 -98.5t-8.5 -104.5z" />
<glyph unicode="4" horiz-adv-x="1015" d="M49 510q-6 -10 1 -16.5t20 -6.5h540q-2 -29 -1 -47t1 -45v-55q0 -31 -3 -66.5t-13 -62.5v2q-10 -23 -32.5 -29t-43.5 -8q-27 -4 -44 -6t-25 -18q-6 -10 1 -18.5t19 -8.5h145l299 2q18 0 23.5 13.5t-10.5 21.5q-29 14 -51.5 20t-40.5 11q-14 2 -24.5 6t-18 18t-10.5 42 t-3 77v35q0 18 2 37q2 20 3 39.5t-1 41.5h19q25 0 54.5 1.5t55 8.5t42 24t16.5 50q0 12 -1 20.5t-3 16.5l-31 13q-45 -16 -90 -17q-37 0 -64 8v748q0 12 -15 16t-28 -6q-39 -39 -99 -105.5t-130 -146.5t-143.5 -168t-137 -171t-111.5 -153.5t-67 -117.5zM225 612 q51 63 98.5 123t93.5 118t93 116.5t96 120.5v-478h-381z" />
<glyph unicode="5" horiz-adv-x="790" d="M43 193q0 -23 2 -46q0 -12 16 -16q43 -16 95.5 -23.5t99.5 -7.5q94 0 179 29t150.5 84t104.5 133t39 176t-38 187.5t-102.5 157t-152.5 106.5t-188 37q4 49 7 96t9 98h330q35 0 48 -26.5t20 -51.5q4 -8 8 -20t12 -23q10 -8 23.5 -6t17.5 15q25 112 25 231l-25 18 q-25 0 -43 -6q-20 -8 -27 -8h-454q-6 0 -13.5 -4t-9.5 -10q-20 -104 -30.5 -215t-14.5 -221q0 -14 23 -19q143 -18 235 -78.5t164 -193.5q12 -23 20.5 -51.5t8.5 -59.5q0 -57 -28 -106.5t-71 -86t-97 -58t-107 -21.5q-90 0 -131.5 61.5t-36.5 149.5q0 16 -21.5 17t-28.5 -13 q-12 -41 -15 -87t-3 -91v-47z" />
<glyph unicode="6" horiz-adv-x="905" d="M45 543q0 -96 39 -181.5t104.5 -150t152.5 -102t183 -37.5q84 0 147.5 36.5t105.5 95t62.5 131t20.5 146.5q0 63 -18.5 130t-55 122t-93 91t-132.5 36q-70 0 -131 -28.5t-113 -67.5q-16 -10 -5.5 -22.5t26.5 -8.5q29 10 58.5 18.5t62.5 8.5q61 0 107 -27.5t77 -73 t46.5 -102.5t15.5 -115q0 -43 -9.5 -88t-31 -84t-55.5 -63.5t-81 -24.5q-72 0 -130 32t-99 84t-64.5 117.5t-23.5 133.5q0 111 41 224.5t107.5 217t152.5 191.5t176 149l-24 31q-115 -49 -226.5 -135t-198.5 -194.5t-140.5 -234.5t-53.5 -255z" />
<glyph unicode="7" horiz-adv-x="858" d="M45 1100q0 -16 2 -32.5t12 -33.5q8 -12 24.5 -9t18.5 17q4 31 16.5 59.5t33 51.5t46 37t56.5 14h350h17q8 0 12 2h14q-66 -109 -140.5 -246t-144 -282.5t-123 -288.5t-71.5 -266q-2 -10 6 -17.5t23 -3.5q14 2 41.5 12.5t56.5 25t51.5 31.5t28.5 34q10 35 19 70.5t20 70.5 q12 47 24.5 93t22.5 79q70 197 161 396.5t189 385.5l-23 27q-37 0 -77.5 -1t-85.5 -3q-49 -2 -98.5 -3t-98.5 -1q-90 0 -175 6t-155 25q-29 4 -28 -17q-2 -18 -4.5 -36.5t-6.5 -39.5q-6 -39 -10 -77.5t-4 -79.5z" />
<glyph unicode="8" horiz-adv-x="878" d="M45 436q0 -78 34 -141.5t89 -107.5t126 -67.5t144 -23.5q82 0 154 34t125 89t85 128t32 151q0 117 -66 196.5t-170 120.5q78 45 130 117t52 162q0 59 -26.5 111t-69.5 91t-99.5 61.5t-113.5 22.5q-70 0 -135.5 -30.5t-115.5 -79.5t-80.5 -113.5t-30.5 -132.5 q0 -90 55 -152.5t131 -97.5q-109 -43 -179.5 -130t-70.5 -208zM217 492q0 104 56.5 171.5t158.5 67.5q53 0 95 -24.5t72 -64.5t45 -90t15 -101q0 -41 -13 -86.5t-37.5 -82t-59.5 -61t-78 -24.5q-59 0 -106.5 24.5t-80 65.5t-50 94t-17.5 111zM276 1116q0 78 55.5 123 t129.5 45q39 0 69.5 -17.5t51 -45t31 -64.5t10.5 -74q0 -68 -32 -129t-91 -92q-45 0 -86 22.5t-72 58.5t-48.5 81t-17.5 92z" />
<glyph unicode="9" horiz-adv-x="880" d="M45 993q0 -61 18.5 -121.5t53.5 -109.5t88 -79t125 -30q76 0 142.5 30t119.5 71l-27 30q-29 -16 -60.5 -28.5t-62.5 -12.5q-59 0 -104 32t-76 80t-47 106.5t-16 111.5q0 86 37.5 140.5t123.5 54.5q74 0 129.5 -25.5t93.5 -71t56 -106.5t18 -131q0 -113 -36.5 -229.5 t-100 -223t-146.5 -195.5t-175 -149q-16 -8 -6 -24.5t28 -8.5q117 47 227.5 131t196.5 190.5t138.5 231.5t52.5 254q0 90 -36 178.5t-98.5 157t-146.5 110.5t-180 42q-80 0 -142.5 -37t-103.5 -95.5t-62.5 -131t-21.5 -142.5z" />
<glyph unicode=":" horiz-adv-x="290" d="M35 297q0 -37 25.5 -78t72.5 -41q20 0 42 8.5t39 22.5t28.5 34t11.5 40q0 41 -34 78.5t-81 37.5q-49 0 -76.5 -30.5t-27.5 -71.5zM35 850q0 -18 6 -38.5t18.5 -38t31 -30t42.5 -12.5q20 0 42 8.5t39 23.5t28.5 33.5t11.5 41.5q0 41 -34 78.5t-81 37.5q-49 0 -76.5 -30.5 t-27.5 -73.5z" />
<glyph unicode=";" horiz-adv-x="292" d="M37 850q0 -18 6 -38.5t18.5 -38t31 -30t42.5 -12.5q20 0 42 8.5t39 23.5t28.5 33.5t11.5 41.5q0 41 -34 78.5t-81 37.5q-49 0 -76.5 -30.5t-27.5 -73.5zM55 -6q6 -8 23 -8q37 0 66.5 30.5t51 71.5t33 84t11.5 72q0 41 -18.5 76.5t-69.5 46.5l-15 -2q-23 -10 -52.5 -30 t-29.5 -52q0 -16 5.5 -26.5t13.5 -27.5q10 -18 17 -40.5t7 -47.5q0 -37 -12 -68.5t-29 -60.5q-8 -10 -2 -18z" />
<glyph unicode="&#x3c;" horiz-adv-x="487" d="M45 713q68 -86 142.5 -171t158.5 -161q20 -14 35 4q22 35 57 66v26q-8 6 -28.5 27.5t-47 49.5t-56.5 58.5t-53.5 57t-39.5 46t-16 23.5q0 8 30.5 47t71.5 88q45 53 86 103.5t53 73.5q6 14 -8 23t-31 -1q-92 -80 -180 -163t-174 -175q-8 -8 0 -22z" />
<glyph unicode="=" horiz-adv-x="720" d="M41 547q-2 -8 8 -12.5t25 -2.5q63 18 135 29.5t143 20.5q59 8 118.5 15t115.5 21l2 27q-8 2 -46 3t-90.5 2t-111.5 2t-113 1h-90h-45q-6 0 -13 -2t-9 -6q-23 -47 -29 -98zM41 690q-2 -8 8 -12t25 -2q63 18 135 29.5t143 19.5q59 8 118.5 15.5t115.5 21.5l2 26 q-8 2 -46 3.5t-90.5 2.5t-111.5 2t-113 1h-90h-45q-6 0 -13 -2t-9 -7q-23 -47 -29 -98z" />
<glyph unicode="&#x3e;" horiz-adv-x="489" d="M47 915q12 -10 51 -49t82 -84t77 -81.5t34 -43.5q0 -10 -34 -52t-75 -95q-43 -53 -82 -99t-49 -67q-8 -12 6.5 -22.5t30.5 0.5q82 59 151.5 128.5t135.5 139.5q16 16 32.5 34.5t32.5 34.5l4 21q-63 86 -140 170t-161 162q-23 14 -34 -2q-16 -20 -29.5 -37t-30.5 -29 q-18 -14 -2 -29z" />
<glyph unicode="?" horiz-adv-x="747" d="M43 1237q0 -37 14.5 -72t36.5 -65q8 -10 23.5 -8t19.5 14q8 37 20.5 74t31 64.5t46 45t68.5 17.5q39 0 78 -6.5t69.5 -22.5t49 -45t18.5 -76q0 -57 -25.5 -122.5t-62.5 -131t-78 -127t-73 -106.5q-27 -39 -44.5 -64.5t-17.5 -36.5q0 -23 16.5 -50t41 -52t52 -42t52.5 -17 q18 0 23.5 11t-9.5 19q-35 29 -35 66q0 53 44 116.5t98 135.5q37 45 72.5 94t65.5 100t48.5 101.5t18.5 99.5q0 63 -31 117.5t-80 94.5t-110.5 61.5t-121.5 21.5q-45 0 -100 -11.5t-104 -36t-82 -64.5t-33 -97zM250 213q0 -18 6 -39.5t18.5 -39t31 -30t42.5 -12.5 q43 0 76 27.5t33 68.5q0 45 -31 79t-80 34q-43 0 -69.5 -24.5t-26.5 -63.5z" />
<glyph unicode="@" horiz-adv-x="1462" d="M55 616q-6 -104 19.5 -188t73 -150.5t112 -113.5t136 -79t146 -46t142.5 -14q164 0 324 59v-2l8 2h-10q31 8 40 10t13 4q10 2 14 8.5t0 10.5l-16 51q-4 14 -27 6q-16 -6 -44 -17.5t-66 -21.5q-37 -10 -84.5 -18t-100.5 -8q-123 0 -222 42t-166.5 116.5t-101.5 176 t-28 220.5q2 37 12.5 90t34 111.5t63.5 116.5t102.5 104.5t148.5 75t200 28.5q113 0 203 -34t152.5 -98.5t94.5 -158.5t25 -213q-4 -82 -23.5 -136t-46 -87t-55 -46.5t-53.5 -13.5q-41 0 -65.5 30t-20.5 71q0 6 1 18.5t3 26.5l2 39q4 47 9.5 102t11.5 103q2 14 3 27.5 t3 29.5q4 16 5 29.5t3 27.5q0 8 -21.5 18.5t-48 18.5t-52 13.5t-34.5 7.5q-29 4 -47 5t-22 1q-96 0 -163 -36t-110 -91.5t-64.5 -121t-25.5 -122.5q-4 -80 17.5 -133t56.5 -85t76 -46t72 -14h30q37 25 76 52l78 54q25 -41 73 -76t121 -35q63 0 127 29t115 82t85 131t40 174 q6 106 -28.5 204.5t-113.5 174.5t-202 121t-291 45q-174 0 -305 -54.5t-221 -146.5t-138.5 -212t-54.5 -249zM586 674q2 39 14 75.5t31.5 65.5t47.5 46.5t62 17.5q8 0 23.5 -4.5t33 -13.5t35 -26t29.5 -44l-8 -140l-4 -76l-4 -67q-25 -23 -56.5 -38t-62.5 -15q-57 0 -102 55 t-39 164z" />
<glyph unicode="A" horiz-adv-x="1648" d="M98 12q2 -4 6 -8l5 -4l426 -2q20 0 21 15.5t-19 19.5q-31 4 -63 15t-32 46q0 27 17.5 93.5t42 141t50.5 145.5t42 108h403q47 -129 97.5 -258t99.5 -258l-72 -37q-12 -10 -6 -18.5t23 -10.5q29 -3 66 -3q19 0 41 1q64 2 108 2q60 0 120 -1h24q48 0 95 3v37 q-59 4 -111 28.5t-81 84.5q-43 92 -87 195.5t-87 212t-83 215t-77 204.5q-27 72 -56.5 139.5t-54.5 132.5q-4 8 -7 20.5t-11 24.5q-23 63 -51.5 137t-63.5 113q-8 10 -18 4t-14 -14q-76 -199 -150 -395.5t-145 -395.5q-49 -135 -97.5 -277t-101.5 -278q-10 -25 -27.5 -52 t-41 -51t-49 -39t-52.5 -15q-2 0 -11.5 1t-13.5 -5q-8 -8 -4 -17zM627 690q45 129 83 247t78 247l168 -494h-329z" />
<glyph unicode="B" horiz-adv-x="1157" d="M52.5 1515.5q-9.5 -10.5 0.5 -20.5q16 -23 38 -28t48 -9q12 -2 25.5 -4t25 -11t17.5 -27.5t6 -49.5v-1130q0 -51 -3 -82t-16.5 -49.5t-39 -31t-68.5 -26.5l8 -35h279h41t53 -2q37 -2 76 -3t73 -1q35 0 64 1t47 5q80 14 149.5 54t121 97.5t81 130t29.5 152.5 q0 76 -24.5 142.5t-68.5 120t-104.5 93.5t-130.5 62q35 33 68 72t58.5 82t41 89t15.5 95q0 84 -41 145.5t-103.5 102.5t-139.5 60.5t-149 19.5q-47 0 -89 -3t-83 -7q-43 -4 -84 -7.5t-81 -3.5q-59 0 -115 15q-16 2 -25.5 -8.5zM428 242v553q57 0 121.5 -5.5t114.5 -29.5 q51 -25 95 -65t75.5 -89t49 -105.5t17.5 -115.5t-19.5 -112.5t-55 -94.5t-86 -64.5t-109.5 -23.5q-29 0 -65 10.5t-66.5 31t-51 48t-20.5 62.5zM430 895v537q45 14 98 14q55 0 99.5 -22.5t74 -60.5t46 -87.5t16.5 -104.5q0 -86 -24.5 -140t-69.5 -85t-105.5 -41t-134.5 -10z " />
<glyph unicode="C" horiz-adv-x="1486" d="M53 737q0 -168 58.5 -306t161 -237.5t244.5 -153.5t310 -54q133 0 263.5 13t259.5 34q12 0 18 10q31 55 48.5 127t17.5 133q0 37 -7 72l-45 4q-37 -76 -72.5 -133.5t-82.5 -95t-109.5 -56t-150.5 -18.5q-154 0 -282 63.5t-222 170t-146.5 243.5t-52.5 285q0 141 44 256.5 t125 196.5t194.5 126t255.5 45q86 0 161.5 -22.5t135 -67.5t100.5 -111.5t55 -154.5q4 -16 23 -16q20 0 24 16q16 92 26.5 185t12.5 188q0 18 -20 18q-51 4 -104.5 11.5t-106.5 15.5q-72 10 -145.5 19t-149.5 9q-66 0 -146.5 -8t-160.5 -28.5t-151.5 -53t-119.5 -82.5 q-127 -129 -195.5 -295.5t-68.5 -347.5z" />
<glyph unicode="D" horiz-adv-x="1642" d="M57 1499q6 -16 24.5 -21t43.5 -10q14 -2 30.5 -6t31 -14t23.5 -28.5t9 -49.5v-1132q0 -45 -4 -77t-17.5 -53.5t-38 -36t-65.5 -22.5q-20 -4 -17 -20.5t23 -16.5q36 2 73 2q46 0 92 -3q83 -5 165 -11q70 -6 141.5 -10t143.5 -4q197 0 357.5 48t275 146.5t177 247.5 t62.5 354v76q0 43 -4 82q-6 76 -45 149.5t-97.5 139t-134 120t-156.5 94.5t-162 62.5t-152 22.5q-51 0 -108.5 -1t-111.5 -5q-57 -4 -110 -7.5t-109 -3.5q-45 0 -87 2.5t-87 6.5q-35 2 -71.5 4t-73.5 2q-12 0 -19.5 -8.5t-1.5 -18.5zM434 315v1084q49 16 99.5 22t103.5 6 q162 0 298 -51t233.5 -144t151.5 -226t54 -299q0 -156 -49 -273t-136 -193.5t-210 -115.5t-270 -39q-55 0 -124 11.5t-116 43.5q-10 8 -17.5 31t-11.5 48.5t-5 52t-1 42.5z" />
<glyph unicode="E" horiz-adv-x="1015" d="M47.5 1511.5q-6.5 -12.5 9.5 -20.5q20 -14 41 -22.5t43 -12.5q14 -4 27.5 -8t25 -13.5t17.5 -25.5t6 -43v-1141q0 -35 -4 -66.5t-16.5 -56t-36 -39t-62.5 -16.5q-20 0 -21 -17.5t19 -17.5q74 -8 158 -10t170 -2q47 0 94 1t94 1h260l37 10q16 0 21 15l6 49q6 49 13.5 97 t19.5 95q2 8 -5.5 13.5t-15.5 6.5t-16 -1t-10 -11q-23 -92 -87.5 -139t-152.5 -47q-68 0 -140.5 27.5t-109.5 91.5v553h35h74t91 -3t85 -10.5t51 -19.5q10 -8 15 -26.5t12 -36.5q4 -12 11 -28.5t19 -29.5q12 -10 26.5 -6t14.5 16q6 80 19 156q4 31 8 62.5t8 62.5 q2 10 -8 16.5t-23 4.5q-10 -2 -27.5 -9.5t-39.5 -17.5q-20 -10 -41 -17.5t-31 -7.5h-301v547q16 -4 21.5 -2t21.5 2h43q23 0 43 2q18 2 37 2h35q84 0 138 -29.5t62 -123.5q2 -16 23 -17q20 0 25 17q2 10 4 16t4 14q12 53 23.5 110.5t17.5 115.5q2 10 -9.5 15t-25.5 1 q-25 -14 -37 -14h-786q-16 0 -22.5 -12.5z" />
<glyph unicode="F" horiz-adv-x="999" d="M48.5 1508.5q-5.5 -13.5 10.5 -21.5q20 -12 41 -19.5t39 -11.5q16 -4 29.5 -8t24 -13.5t16.5 -26.5t6 -48v-1135q0 -49 -2 -80.5t-14.5 -51t-37 -30t-69.5 -18.5q-20 -4 -19 -19.5t21 -15.5q125 -6 254 -6q125 0 248 6l-4 35h-16q-89 0 -116 42q-30 46 -30 144v525 q16 -2 27 -2h28q23 0 42.5 1t41.5 3q20 2 39 3t37 1q80 0 124 -32q42 -31 42 -112v-8q0 -8 7 -12t15.5 -5t15.5 2t9 11q16 72 26.5 145.5t14.5 149.5q0 14 -14.5 18.5t-26.5 -6.5q-10 -12 -34.5 -29.5t-41.5 -17.5h-352v525q33 0 55.5 4t55.5 8q37 4 71.5 8t69.5 4 q80 0 127 -34.5t47 -123.5q0 -12 11.5 -16t25.5 2q16 12 26.5 36t15.5 52.5t7 60t4 60.5q2 20 3 39t3 31l-32 16q-53 -22 -104 -22h-5h-215q-133 0 -263 1t-263 5q-16 0 -21.5 -13.5z" />
<glyph unicode="G" horiz-adv-x="1626" d="M53 803q0 -152 50.5 -293t143.5 -253t224 -184.5t291 -84.5q88 -6 180 -6q57 0 120.5 3t127 15t122 33.5t107.5 58.5q10 4 11 14v510q0 29 10 47.5t27.5 30t38.5 18.5t46 11l-2 35q-121 6 -240.5 8t-240.5 2q-18 0 -23.5 -13.5t11.5 -21.5q18 -10 36.5 -15t39.5 -11 q29 -10 54 -26.5t25 -57.5v-453q-47 -47 -110.5 -60.5t-124.5 -13.5q-41 0 -91 6.5t-99.5 17.5t-95.5 28.5t-81 41.5q-76 53 -140 125t-110.5 157t-73 177t-26.5 189q0 139 49 254.5t136 198.5t205 128t255 45q80 0 154 -18.5t133 -58t100 -101t56 -147.5q2 -10 12 -13.5 t22 0.5q16 8 27.5 48t18 90.5t8.5 102.5t2 85v27q0 6 -6.5 12t-16.5 6q-41 4 -79 10t-79 13q-88 12 -181 22t-185 10q-172 0 -324.5 -48t-266.5 -143t-180.5 -235.5t-66.5 -322.5z" />
<glyph unicode="H" horiz-adv-x="1703" d="M57 1499q8 -20 27.5 -26.5t48.5 -8.5q14 -2 29.5 -5t28 -12t19.5 -29.5t7 -55.5v-1135q0 -51 -2 -81.5t-14.5 -49t-37 -29t-69.5 -18.5q-18 -4 -17 -19.5t19 -17.5q125 -6 254 -6q125 0 248 6q20 2 18 20.5t-22 16.5q-13 -1 -25 -1q-34 0 -58 8q-32 12 -49.5 34.5 t-23.5 58t-6 84.5v558h815v-564q0 -20 -3 -50t-12 -58.5t-23.5 -49t-37.5 -20.5q-12 0 -32 8q-16 6 -27.5 -9t6.5 -23q16 -8 45 -13.5t61.5 -7.5t61.5 -2h49h289q16 0 22 9.5t-6 19.5q-18 18 -41.5 23t-46.5 7q-10 2 -25.5 3.5t-19.5 5.5q-8 2 -16 24.5t-14.5 50t-10.5 53 t-4 35.5v1131q0 63 35 82.5t88 30.5q18 4 17.5 19t-19.5 17q-119 8 -238.5 10.5t-240.5 2.5q-10 0 -18.5 -6.5t-6.5 -14.5q4 -27 34 -33t61 -8q10 0 22 -4q31 -8 41 -35.5t10 -62.5v-469h-813v471q0 53 36 79.5t83 29.5q18 0 19 17t-17 19q-119 10 -236.5 13.5t-238.5 3.5 q-14 0 -21.5 -8.5t-1.5 -18.5z" />
<glyph unicode="I" horiz-adv-x="638" d="M14 25q0 -8 9 -13q9 -4 45 -4q18 0 42 1q72 3 162 3q55 0 108.5 -1t96.5 -3t69 -3l27 -1q16 0 21.5 9.5t-4.5 19.5q-18 18 -41 21t-45 3q-10 0 -26.5 4.5t-26.5 8.5q-6 8 -13.5 31.5t-13.5 50t-10 50t-4 34.5v1128q0 63 34.5 83.5t90.5 31.5q20 4 18 19t-23 18 q-39 3 -78 3q-18 0 -38 -1q-58 -2 -115 -2q-59 0 -117 1h-20q-49 0 -99 -4q-18 -2 -18 -18t18 -18q53 -6 92.5 -30t39.5 -85v-1118q0 -20 -3.5 -50t-12.5 -59t-23.5 -49t-36.5 -20q-6 0 -34 -7.5t-38 -3.5q-8 4 -16 -1t-12.5 -13t-4.5 -16z" />
<glyph unicode="J" horiz-adv-x="716" d="M6 -461q-6 -12 5.5 -21.5t25.5 -0.5q92 45 175 108.5t145.5 144t99.5 175t37 200.5v1219q0 63 33.5 85t86.5 32l-2 35q-94 4 -189 7t-190 3h-96q-16 0 -21 -9.5t1 -19.5q14 -23 35.5 -28t48.5 -5q14 0 27.5 -2t23.5 -12t17 -30.5t7 -57.5v-1196q0 -37 -6 -92.5 t-17 -114.5t-27.5 -112.5t-35.5 -86.5q-12 -16 -36.5 -45.5t-49.5 -56.5q-35 -39 -64.5 -70.5t-33.5 -48.5z" />
<glyph unicode="K" horiz-adv-x="1613" d="M55.5 1510.5q-6.5 -7.5 1.5 -17.5q12 -20 32 -25.5t44 -9.5q14 -2 29.5 -5t28 -13t19.5 -29.5t7 -54.5v-1139q0 -49 -3 -81t-15.5 -51t-37 -29.5t-67.5 -18.5q-20 -4 -19 -20.5t21 -16.5q55 -2 109 -2l137 3q123 5 246 5q16 0 22 13.5t-10 19.5q-29 16 -53.5 19t-46.5 8 q-16 2 -29.5 6t-22 20.5t-12.5 50t-4 95.5v495q43 -41 88 -93t98 -112q84 -94 176.5 -193t187.5 -181t192.5 -134.5t193.5 -52.5t180 51l-12 35h-5q-76 -1 -171 57q-98 60 -200.5 150t-204 196.5t-187.5 200.5q-51 53 -95 104.5t-81 86.5q41 39 88 89t96 105 q66 72 136.5 147t142 137.5t142.5 104.5t136 50q20 2 21 18q0 16 -21 19q-22 2 -44 2q-24 0 -48 -2q-45 -4 -92 -5q-53 0 -103 -1h-17q-42 0 -85 4q-16 2 -22.5 -6.5t0.5 -18.5q12 -23 12 -51q0 -35 -28.5 -79t-70.5 -90t-91.5 -90t-88.5 -81q-14 -12 -29.5 -28.5 t-25.5 -27.5q-33 -33 -80 -82t-82 -90q-2 119 -4 242q-1 62 -1 120t1 114q0 49 35 88t84 43q20 2 20 18t-20 19q-87 6 -173 6q-32 0 -64 -1q-118 -3 -238 -3q-16 0 -22.5 -7.5z" />
<glyph unicode="L" horiz-adv-x="1077" d="M49 1487q8 -20 28.5 -26.5t47.5 -8.5q14 -2 29.5 -5t28 -12.5t20.5 -30t8 -54.5v-1131q0 -35 -5 -65.5t-17.5 -55t-35 -40t-59.5 -17.5q-20 0 -21 -17.5t19 -19.5q22 -2 44 -2q32 0 66 4q56 6 115 6q57 0 113 -2q28 -1 56 -1t57 1q55 2 110 2h109q59 0 119.5 -1t122.5 -7 q4 53 8 113.5t12 136.5q0 10 1 18.5t3 18.5q2 8 -4 13t-13 6t-16.5 -1t-13.5 -8q-45 -94 -129 -151.5t-184 -57.5q-102 0 -172 61.5t-70 170.5v1040q0 51 30 80q26 25 65 25q7 0 14 -1l28 -2q18 -2 21.5 15.5t-13.5 21.5q-43 13 -89 14q-9 0 -18 -1q-56 -3 -112 -3h-280 q-14 0 -21.5 -8t-1.5 -18z" />
<glyph unicode="M" horiz-adv-x="2129" d="M63 15.5q3 -11.5 19 -13.5q78 -4 157 -4h53q106 2 210 2q20 0 23 13.5t-13 19.5q-27 12 -46.5 20t-35.5 15h2q-20 8 -30.5 14t-15.5 16.5t-6 28.5t-1 53v60q0 141 16.5 287.5t36.5 287.5q8 55 15.5 112.5t11.5 114.5q25 -45 41 -79.5t30.5 -67.5t29.5 -68.5t38 -83.5 q86 -190 177 -374.5t218 -356.5q10 -8 23 -8q12 0 18 10q39 80 76 159t74 157q86 182 172 362t178 359q4 -45 8 -80t8 -69t8.5 -68.5t10.5 -79.5q18 -147 32.5 -310t14.5 -311q0 -27 -1 -52.5t-9 -51.5q-4 -10 3 -17.5t19 -7.5q78 -4 156 -4h52q104 2 210 2l8 33 q-23 10 -44 15t-40 9q-33 6 -62.5 17.5t-54.5 52.5q-12 20 -23 65.5t-21.5 105.5t-18.5 131t-16.5 143.5t-14.5 143t-10 130.5q-4 45 -7 83t-5 60q-14 135 -29.5 271.5t-32.5 271.5q-2 14 -17.5 16t-25.5 -8q-55 -84 -98 -172t-84 -174l-41 -90q-43 -94 -86 -184.5 t-84 -182.5q-49 -109 -98 -213t-103 -213q-23 41 -51.5 103.5t-79.5 169.5q-43 90 -92 190.5t-98 200.5t-96.5 194.5t-88 170t-73.5 130t-53 72.5q-12 10 -24.5 6t-14.5 -16q-4 -31 -11.5 -99.5t-17.5 -160.5q-10 -104 -23.5 -228t-27 -251t-27.5 -249t-26.5 -220.5 t-23.5 -163t-17 -78.5q-12 -27 -30 -32t-40 -9q-10 -2 -31.5 -6t-21.5 -2q-10 -8 -7 -19.5z" />
<glyph unicode="N" horiz-adv-x="1748" d="M54.5 24.5q-3.5 -14.5 15.5 -18.5q29 -6 60 -6q22 0 44 3q43 5 85 5h24l260 -6q16 0 22 11.5t-8 19.5q-23 14 -44 21t-42 12q-18 4 -36.5 11t-32 23.5t-21.5 45t-8 77.5q0 102 -4 203.5t-9 206.5q-4 100 -8 200.5t-4 202.5q0 53 6 113q37 -41 61.5 -67.5t59.5 -67.5 q117 -129 238 -263.5t244.5 -266.5t251.5 -257t259 -235q12 -8 25.5 -4t15.5 16q24 306 24 614v68q-3 342 -3 684q0 35 31.5 47.5t64.5 22.5q6 2 13.5 8t13.5 8l-4 35q-59 3 -118 3h-30q-74 -1 -145 -1h-148q-16 0 -21 -10t7 -19q10 -12 27.5 -16t40.5 -8q18 -4 36.5 -8.5 t34 -17.5t25.5 -39.5t10 -74.5q0 -225 7 -448t7 -449q0 -16 -1 -31.5t-1 -31.5q-541 596 -1108 1176q-16 12 -32 0q-12 -12 -20.5 -23.5t-8.5 -28.5v-1290q0 -51 -29.5 -83t-77.5 -42l-28 -6q-18 -4 -21.5 -18.5z" />
<glyph unicode="O" horiz-adv-x="1703" d="M55 717q0 -90 33 -180.5t88 -173t130 -154.5t159 -124t174 -83t174 -31h31q20 0 39.5 1t37 3t29.5 5q143 33 270.5 92t222.5 149t150.5 213t55.5 281q0 150 -46.5 302t-140.5 275t-237.5 201t-335.5 78q-29 0 -60.5 -3t-60.5 -9q-193 -41 -328 -110t-221 -171 t-125 -241.5t-39 -319.5zM272 819q0 131 38 247t111 203t178.5 137t242.5 50q145 0 256.5 -65.5t188.5 -170t116 -236.5t39 -265q0 -129 -37 -247t-107.5 -206t-175 -140t-241.5 -52q-145 0 -259 66.5t-192 173t-118 239.5t-40 266z" />
<glyph unicode="P" horiz-adv-x="1097" d="M49 1493q10 -23 33.5 -28t48.5 -9q14 -2 28.5 -5t26 -12t18.5 -27.5t7 -49.5v-1143q0 -51 -2 -82t-14.5 -49t-37 -28.5t-67.5 -18.5q-20 -4 -19 -19.5t21 -17.5q94 -4 187 -4h62q124 2 247 2q14 0 21 7t1 18q-10 23 -30.5 25.5t-49.5 4.5q-16 2 -36.5 5.5t-30.5 13.5 q-4 4 -10.5 26.5t-11.5 49t-9 50t-4 31.5v1178q29 10 61.5 18.5t67.5 8.5q72 0 128 -34t95 -87t59.5 -121t20.5 -135q0 -150 -85 -234t-236 -84h-21q-10 0 -20 2q-10 0 -16.5 -7t-8.5 -18t1 -20.5t13 -11.5q55 -16 119 -16q96 0 178 42t141.5 110.5t92.5 154.5t33 176 q0 125 -45 197.5t-117 109.5t-164 47.5t-186 10.5h-166q-31 0 -61.5 -2t-63.5 0q-35 2 -68 2h-65h-43q-16 0 -22.5 -8.5t-0.5 -18.5z" />
<glyph unicode="Q" horiz-adv-x="1712" d="M55 799q0 -176 57.5 -323.5t162 -253t252 -164t327.5 -58.5q47 0 90 10t84 23q35 10 64.5 19t52.5 9h10q41 -16 88 -38.5t88 -47.5q23 -12 54.5 -28.5t54.5 -26.5q106 -51 224 -102t238.5 -91t245.5 -66t248 -26q150 0 289 39t266 115l-22 33q-100 -41 -206 -63.5 t-216 -22.5q-156 0 -308.5 38t-302 99t-292 139t-275.5 158q160 121 246 299t86 375q0 168 -62.5 306t-170 237.5t-253 153.5t-309.5 54q-170 0 -317.5 -60t-257 -167.5t-173 -253t-63.5 -315.5zM272 911q0 131 42 237.5t119 182.5t183.5 117t235.5 41q137 0 243.5 -54.5 t180.5 -144.5t111.5 -209t37.5 -250q0 -121 -31.5 -232.5t-92 -206.5t-148.5 -168.5t-201 -114.5q-150 18 -274.5 89.5t-214.5 180t-140.5 246t-50.5 286.5z" />
<glyph unicode="R" horiz-adv-x="1523" d="M57 1487q6 -20 26.5 -26.5t49.5 -8.5q14 -2 28.5 -5t27 -12.5t20.5 -30t8 -54.5v-1135q0 -49 -2 -81t-13.5 -50t-36 -28.5t-69.5 -18.5q-20 -4 -19 -19.5t21 -17.5q125 -6 250 -6h250q16 0 22.5 10t-6.5 21q-18 16 -41.5 20t-46.5 6q-10 2 -27.5 4t-27.5 6q-6 4 -12 27 t-12.5 50.5t-9.5 52t-3 34.5v381q16 2 35 2h37q43 0 97 -8t91 -41q49 -43 95.5 -105.5t93.5 -127.5q47 -68 97 -133.5t108.5 -117.5t127 -84t154.5 -32q53 0 104.5 12t98.5 35l-12 35q-18 -3 -36 -3q-60 0 -118 31q-76 40 -148.5 108.5t-139 155.5t-128.5 169 q-37 49 -72.5 98t-68.5 84q45 43 87 95t74.5 111.5t53 122t20.5 126.5q0 14 -1 30.5t-5 26.5q-25 102 -76 164.5t-121.5 96.5t-153.5 45t-169 11h-108q-18 0 -36 -1l-36 -2h-63h-21h-45h-135h-37q-14 0 -20.5 -6.5t-0.5 -16.5zM436 741v674q55 18 115 19q78 0 136 -36 t97 -92.5t58.5 -128t19.5 -143.5q0 -37 -5 -75.5t-17.5 -75.5t-32 -69t-48 -54.5t-73.5 -26.5t-80 -4q-88 0 -170 12z" />
<glyph unicode="S" horiz-adv-x="901" d="M45 160q0 -53 25.5 -90t64.5 -58.5t86 -31t90 -9.5q88 0 184.5 32t176.5 89.5t132 137.5t52 178q0 74 -27.5 137t-72.5 119.5t-102.5 107.5t-116.5 100q-49 43 -97.5 84t-86.5 85t-60.5 91.5t-22.5 100.5q0 51 18.5 93t50.5 73t74 47t89 16q49 0 91 -15t74.5 -44t50 -70 t17.5 -92q0 -14 16.5 -18t26.5 6q29 39 33 97t4 114v73q0 14 -16 19q-94 27 -203 27q-78 0 -170 -20.5t-172 -64.5t-134 -112t-54 -162q0 -63 27.5 -123.5t72.5 -120t103.5 -117t117.5 -114.5v2l104.5 -104.5t91.5 -101.5t64.5 -101t24.5 -103q0 -53 -25.5 -96t-65.5 -73.5 t-89.5 -47t-96.5 -16.5q-53 0 -102 16.5t-88 47t-61 74.5q-18 37 -18 83q0 8 1 17l2 32q0 8 -6 12.5t-17 4.5q-8 0 -15 -3t-9 -12q-4 -16 -8 -35.5t-8 -41.5q-8 -29 -14.5 -57.5t-6.5 -61.5z" />
<glyph unicode="T" horiz-adv-x="1384" d="M51 1298q0 -10 1 -17t3 -15q4 -14 21.5 -15.5t23.5 11.5q25 53 70 95t104 42h318v-1194q0 -49 -3 -78t-15.5 -47.5t-37 -27.5t-67.5 -17q-20 -4 -18 -18.5t22 -16.5q83 -3 166 -3q41 0 83 1q124 2 249 2q14 0 20 7t0 18q-10 20 -30.5 24t-49.5 6q-18 2 -38.5 6.5 t-41.5 24.5q-2 2 -6 22.5t-7 45t-6 48t-3 29.5v1164q14 -2 31 -2h34t40 1t42 3q20 2 39 3t41 1q86 0 146.5 -31t79.5 -125q4 -14 22 -14q20 0 25 14q12 53 17 109.5t5 113.5v45q0 10 -9 14.5t-19.5 2.5t-23.5 -3t-24 -5q-16 -4 -35.5 -9.5t-31.5 -5.5h-877q-12 0 -35.5 3 t-49 9.5t-48 13.5t-35.5 15q-10 4 -21 1t-16 -13q-4 -16 -7 -32.5t-9 -35.5q-14 -45 -26.5 -89t-12.5 -81z" />
<glyph unicode="U" horiz-adv-x="1591" d="M31 1495q4 -23 34.5 -31t59.5 -10q12 -2 18.5 -1t12.5 -1q27 -10 35 -39t8 -61v-813q0 -8 3 -27.5t6 -42.5t7 -43t8 -29q35 -92 94.5 -171t137 -135t171 -88t195.5 -32q135 0 244 49.5t185.5 133.5t117.5 196.5t41 241.5v774q0 59 36 82t89 31l-2 37q-81 6 -160 6 q-30 0 -60 -1q-108 -3 -218 -3q-10 0 -18.5 -5.5t-6.5 -13.5q4 -23 35 -30t59 -9q12 -2 18.5 -1t12.5 -1q27 -10 35 -38.5t8 -61.5v-105q0 -55 1 -111.5t1 -111.5v-102q2 -109 2 -215v-217q0 -92 -31.5 -168t-88 -129.5t-133.5 -83t-165 -29.5t-162.5 28.5t-129 82t-85 127 t-30.5 165.5q0 111 -1 219v73q0 73 1 147q2 110 2 219v219q0 61 31.5 81.5t87.5 27.5q20 2 20 18t-20 18q-60 6 -120 6q-42 0 -83 -3q-64 -4 -128 -4q-36 0 -73 1l-78 2q-10 0 -18 -5t-6 -13z" />
<glyph unicode="V" horiz-adv-x="1724" d="M55.5 1513.5q-6.5 -12.5 10.5 -20.5q23 -16 42 -21.5t42 -11.5q29 -6 55 -19.5t43 -41.5h-2q74 -147 140.5 -312t125.5 -331q74 -199 151.5 -395.5t163.5 -376.5q4 -6 13.5 -8.5t19.5 -2.5t19.5 3.5t11.5 9.5q90 188 173 386.5t163 389.5l96 227q10 20 21.5 48t23.5 57 q18 43 37.5 92t41 96t41 87t38.5 65q14 16 35.5 23t46.5 11l43 13l-4 37q-109 6 -217 6q-106 0 -213 -6q-18 -2 -20.5 -17.5t13.5 -19.5l12 -1q11 -1 25 -5q23 -4 45.5 -8.5t22.5 -14.5q0 -68 -36 -187.5t-89 -259t-114.5 -283.5t-112.5 -261q-16 -37 -30.5 -70t-27.5 -61 q-16 41 -28.5 73.5t-24.5 63.5t-25.5 64.5t-29.5 74.5q-82 207 -162 414t-133 430q14 16 22 24.5t27 8.5l37 6q20 0 22 18.5t-18 18.5h-266h-80q-43 0 -84 -1h-27l-55 1q-18 0 -24.5 -12.5z" />
<glyph unicode="W" horiz-adv-x="2203" d="M61.5 1514.5q-6.5 -11.5 10.5 -19.5q33 -23 75 -29q18 -4 37 -11t35 -23l-4 2q2 -4 8 -17.5t12.5 -28t10.5 -25.5t4 -13q53 -143 88 -308t68 -331q33 -170 81 -343t113 -382q8 -10 23.5 -11.5t21.5 11.5q29 66 61.5 147.5t65.5 167.5t64.5 168t56.5 149q47 125 98 257.5 t103 254.5q37 -98 62.5 -180t60.5 -182q66 -199 141.5 -403.5t167.5 -378.5q6 -10 22 -11q16 0 21 13q63 152 107 304t85 302q6 23 11.5 50.5t13.5 57.5q20 86 48 194t57.5 212t59 191t56.5 133q12 20 25.5 30.5t35.5 10.5q10 0 22.5 1t25.5 -1l10 36q-31 11 -64 11 q-16 0 -34 -3q-50 -8 -101 -8q-59 1 -119 7q-31 3 -61 3q-28 0 -57 -3q-18 -2 -19.5 -17.5t17.5 -19.5q4 -2 10 -2q8 0 16 -2q29 -4 56.5 -11.5t27.5 -33.5q0 -106 -22.5 -243.5t-56 -284t-73.5 -287t-75 -253.5q-16 45 -29.5 82t-26 74t-24.5 77t-29 89q-72 215 -147.5 430 t-163.5 395q-8 10 -23 11q-14 0 -20 -13q-37 -94 -84 -216t-96 -247.5t-95.5 -247.5t-82 -216.5t-58.5 -152.5l-22 -58l-10 54q-11 54 -28.5 143t-38 203t-39.5 233.5t-37.5 235.5t-29.5 208q12 10 27.5 15t32.5 9q10 2 19 4.5t26 8.5q18 4 16 18.5t-22 16.5q-125 4 -250 6 t-250 2q-18 0 -24.5 -11.5z" />
<glyph unicode="X" horiz-adv-x="1540" d="M56.5 20.5q0.5 -16.5 21.5 -16.5h59q90 0 179.5 2t179.5 6q18 2 21 14.5t-13 18.5q-20 14 -25.5 11t-13.5 -1q-10 2 -17.5 4t-15.5 13q2 37 25.5 90t57.5 113.5t73 125t74 121.5q23 35 41 65.5t34 59.5l21 -31q37 -57 89 -143t100 -170t81 -148.5t33 -76.5q0 -23 -14 -35 q-12 -10 -6 -20.5t22 -10.5q49 0 99 -1t99.5 -3t99.5 -3t101 -1l6 35q-66 16 -125 70.5t-113 128t-104.5 160.5t-95.5 171q-16 31 -35.5 66t-41 69.5t-42 66.5t-37.5 56q27 35 55.5 83t59.5 102q43 72 95.5 150.5t105.5 145t108.5 110.5t104.5 48q20 2 21 16.5t-17 20.5 q-49 14 -102.5 17.5t-106.5 3.5t-105.5 -2t-103.5 -9q-20 -2 -21 -17t17 -19q31 -6 59.5 -24.5t28.5 -53.5q0 -18 -14.5 -48t-37 -66t-51 -77t-59.5 -82q-33 -47 -63.5 -91t-52.5 -79q-23 39 -52.5 86.5t-60.5 94.5q-27 39 -52.5 79.5t-45 76.5t-31.5 67t-12 53 q0 29 20.5 47.5t48.5 26.5q18 6 15.5 21.5t-23.5 15.5h-289q-49 0 -102 -2t-96 -19q-18 -4 -16.5 -18.5t20.5 -18.5q68 -12 124 -57t105 -109.5t91 -141.5t83 -152q31 -59 65 -120t68 -110q-25 -33 -56.5 -90t-66.5 -119q-49 -86 -103 -177t-112.5 -168t-119 -128 t-121.5 -55q-20 -2 -19.5 -18.5z" />
<glyph unicode="Y" horiz-adv-x="1583" d="M54.5 1496q-1.5 -15 17.5 -19q35 -10 93 -68.5t126.5 -143.5t137.5 -186.5t125 -196t92 -172t36 -114.5v-416q0 -18 -3 -41.5t-11.5 -43t-22.5 -33t-35 -13.5q-12 0 -26 6l-15 -37q51 -12 107.5 -15t111.5 -3q72 0 144 4t141 8q20 2 18.5 19.5t-22.5 15.5h-17 q-61 0 -103 25q-48 28 -48 106v449q0 45 33 120.5t87 166t120.5 184.5t135.5 174t131 136.5t105 70.5l-6 34q-47 4 -97 6.5t-101 2.5q-47 0 -93.5 -2t-93.5 -7q-20 -2 -22 -16t16 -18q18 -8 31.5 -23.5t13.5 -38.5q0 -25 -17.5 -65.5t-45 -89t-60 -97.5t-61.5 -90 q-16 -23 -31.5 -45t-25.5 -39q-27 -45 -54.5 -95t-50.5 -99q-8 10 -10 14t-17 27q-41 70 -97 166t-108.5 188t-89 162.5t-36.5 87.5q0 12 8 20t18 17q12 8 19 14q10 10 5 20.5t-22 10.5q-104 0 -205.5 -1t-203.5 -10q-20 -2 -21.5 -17z" />
<glyph unicode="Z" horiz-adv-x="1290" d="M51 17.5q6 -7.5 23 -7.5q260 -4 515 -6t517 -2h55q29 0 58 2l-2 35h-33q25 76 33 148.5t12 146.5q0 14 -17.5 18t-27.5 -8q-20 -35 -50 -74t-66 -71.5t-77 -54t-80 -21.5l-524 -2h-18t-17 -2q-10 -2 -19 -3t-18 1q63 98 128 188t132 189q170 246 338 498.5t299 496.5 q8 10 1 18.5t-23 8.5h-830q-43 0 -92 7t-94 17q-27 4 -31 -14l-6 -29q-16 -74 -26.5 -147.5t-14.5 -151.5q-2 -14 13.5 -19t25.5 5l19 18q31 31 63.5 67t68.5 67.5t74.5 52t79.5 20.5h447h16t15 2q8 2 14 2h14q-72 -113 -148.5 -225.5t-150.5 -222.5q-156 -231 -306.5 -461 t-287.5 -469q-8 -10 -2 -17.5z" />
<glyph unicode="[" horiz-adv-x="444" d="M37 39q0 -8 7 -13.5t17 -5.5q55 -2 111.5 -3t112.5 -1h26q18 0 36 1t32 4.5t20 9.5q10 8 6 17t-18 13q-10 4 -26.5 5.5t-32.5 3.5q-23 2 -47.5 6t-44 11t-33 19.5t-13.5 30.5v1200q0 43 34 55.5t75 18.5q25 4 47.5 8t44.5 15l-10 32h-320q-25 0 -24 -18v-1409z" />
<glyph unicode="\" horiz-adv-x="980" d="M47 1364q190 -317 382 -628.5t388 -626.5q4 -4 12.5 -7.5t14.5 -1.5q25 6 52.5 25.5t33.5 46.5q2 4 0 8t-2 6q-154 242 -303.5 480.5t-300.5 480.5q-41 66 -83 133.5t-83 132.5q-4 4 -13.5 7t-15.5 -1l-74 -30z" />
<glyph unicode="]" horiz-adv-x="458" d="M40 34.5q5 -14.5 23 -14.5h332q25 1 25 19v1409q0 18 -25 18h-325q-20 0 -24.5 -13t13.5 -19q35 -16 88 -23q41 -6 78 -20.5t37 -55.5v-1188q0 -47 -36 -58t-76 -13q-29 -2 -53.5 -6t-45.5 -15q-16 -6 -11 -20.5z" />
<glyph unicode="_" horiz-adv-x="849" d="M16 -422v-78q0 -18 25 -18h819q25 0 25 18v78q0 16 -25 16h-819q-25 0 -25 -16z" />
<glyph unicode="`" horiz-adv-x="489" d="M40 1626q1 -8 13 -12q10 -4 22.5 -7t22.5 -8q82 -27 161 -58.5t165 -41.5l10 33q-18 10 -42.5 28.5t-47.5 36.5q-47 35 -94 67t-96 32q-70 0 -109 -54q-6 -8 -5 -16z" />
<glyph unicode="a" horiz-adv-x="1392" d="M76 127l360 -6q20 0 21.5 17.5t-19.5 19.5q-20 4 -46.5 11t-26.5 30q0 18 13 62t33.5 95.5t41 102.5t36.5 84h330q43 -96 82 -184.5t80 -184.5l-18 -22q-12 -10 -7 -20.5t21 -10.5q37 -2 71.5 -3t71.5 -1q51 0 100.5 2t98.5 6v37q-45 4 -88 18.5t-68 61.5 q-78 141 -142.5 291.5l-127.5 297.5l-90 211v-2q-4 6 -8 17.5t-11 25.5v-2q-10 23 -22 51.5t-26.5 54t-29 46t-28.5 27.5q-23 6 -31 -9q-61 -143 -121.5 -286.5t-119.5 -288.5q-41 -98 -85.5 -201.5t-84.5 -202.5q-10 -18 -28 -40.5t-38 -40t-43 -25.5t-43 -2zM522 631 q39 92 66.5 173t62.5 171l131 -344h-260z" />
<glyph unicode="b" horiz-adv-x="985" d="M54.5 1223.5q-3.5 -17.5 15.5 -19.5q14 -2 34.5 -8t37 -17.5t28.5 -25.5t12 -33v-831q0 -37 -4 -59.5t-14 -36t-30.5 -20.5t-51.5 -15q-18 -4 -16 -20.5t22 -16.5q55 0 119.5 -1t118.5 -3q59 -2 116 -2h119v2h4h29q14 0 24 4h-2q61 10 119 37.5t103 68.5t72.5 96 t27.5 121q0 61 -21.5 110.5t-58.5 88.5t-85 65.5t-101 43.5q53 47 99 110.5t46 134.5q0 70 -40 119t-99.5 80t-127 44t-122.5 13q-39 0 -78 -3t-76 -7q-39 -4 -73.5 -6t-71.5 -2q-12 0 -25.5 1t-27.5 3q-18 2 -21.5 -15.5zM373 295v399l37 2q13 1 25 1q51 0 101 -13 q62 -16 112 -53t81 -92t31 -129q0 -49 -17.5 -90t-48 -71t-71.5 -46.5t-88 -16.5q-20 0 -48 7.5t-53.5 20.5t-43 33.5t-17.5 47.5zM373 780v383q41 10 76 11q82 0 135 -55.5t53 -141.5q-1 -99 -55 -151q-51 -49 -133 -48h-13z" />
<glyph unicode="c" horiz-adv-x="1253" d="M49 657q0 -125 51.5 -227t136.5 -176t195.5 -114t231.5 -40q115 0 242.5 26t234.5 58q8 4 12 13q18 41 33.5 94t17.5 98l-47 8q-57 -106 -152.5 -159.5t-209.5 -53.5q-113 0 -214.5 42t-178 115t-121.5 172t-45 216q0 113 40.5 198t110.5 142t162 86t196 29 q63 0 125 -14.5t112 -46t87 -81t49 -118.5q4 -14 23 -15q20 0 24 15q12 68 22.5 137t12.5 141q0 16 -22 17q-45 4 -88 9t-91 11q-59 8 -119.5 14.5t-123.5 6.5q-51 0 -118 -6.5t-134.5 -20.5t-129 -39t-102.5 -61q-98 -88 -160.5 -215t-62.5 -261z" />
<glyph unicode="d" horiz-adv-x="1388" d="M53 1212q6 -12 23.5 -17t36.5 -9q25 -4 49 -14.5t24 -51.5v-831q0 -70 -17 -96.5t-79 -36.5q-20 -4 -18 -20.5t22 -16.5q21 1 43 1q44 0 92 -3q72 -4 138 -8q59 -4 119.5 -7.5t119.5 -3.5q145 0 278.5 31t234 100.5t159.5 182t59 276.5v57q0 31 -4 60q-10 90 -78.5 170 t-163 138t-199 92t-185.5 34q-43 0 -93.5 -2t-93.5 -4q-90 -6 -178 -6q-35 0 -76 2t-78 4q-29 2 -56.5 3t-55.5 1q-14 0 -20.5 -7t-2.5 -18zM377 344v791q41 12 82 16t82 4q121 0 231.5 -32.5t194.5 -97t134 -164t50 -230.5q0 -123 -45 -208t-121 -139.5t-176 -79 t-209 -24.5q-51 0 -92 4t-70.5 20.5t-45 49.5t-15.5 90z" />
<glyph unicode="e" horiz-adv-x="864" d="M45.5 1226.5q-6.5 -12.5 9.5 -20.5q16 -10 33.5 -14t34.5 -8q23 -4 42 -15.5t19 -46.5v-839q0 -55 -18.5 -89t-75.5 -36q-18 0 -19 -17.5t17 -19.5q58 -3 116 -3h30q74 1 147 1q33 0 65.5 1t65.5 1q14 0 50 -1t76 -2t75 -1t47 4l16 8l43 188q2 6 -5 11.5t-15 6.5 t-16.5 -2t-10.5 -9q-18 -72 -73.5 -104t-120.5 -32q-53 0 -112.5 20.5t-92.5 65.5v398h26h62t74.5 -2t68.5 -7.5t41 -13.5q6 -4 13.5 -20.5t13.5 -34.5q2 -10 1 -15.5t23 -19.5q10 -8 22.5 -4t14.5 14q4 29 8 53.5t9 49.5q4 27 7 63.5t7 63.5q2 10 -7 17t-24 3 q-12 -4 -25.5 -18.5t-29.5 -22.5h2q-18 -6 -34.5 -13t-27.5 -7h-245v391h37q16 0 32.5 1t30.5 1q16 0 31.5 1t32.5 1q29 0 57.5 -4t51 -15.5t36.5 -32t16 -54.5q2 -16 23 -17q20 0 24 14q4 12 6.5 24.5t6.5 27.5q8 33 16 65.5t12 71.5q2 10 -8 16t-24 2q-29 -10 -113 -14 t-186 -4q-72 0 -141.5 1t-129.5 3q-37 0 -66.5 1t-47.5 1t-24.5 -12.5z" />
<glyph unicode="f" horiz-adv-x="851" d="M46.5 1224.5q-3.5 -14.5 12.5 -18.5q16 -8 31.5 -13t32.5 -9q23 -4 42 -16.5t19 -51.5v-833q0 -39 -3 -61.5t-13 -35t-29.5 -18.5t-52.5 -10q-18 -4 -16 -20.5t20 -16.5q53 -2 105.5 -3t105.5 -1h102t103 4q20 2 18 19.5t-22 17.5h-18q-63 0 -86 24q-25 29 -25 107v379 q10 -2 18 -2h21q18 0 34.5 1t32.5 3q18 2 34.5 3t33.5 1q57 0 97 -22q38 -20 38 -79v-6q0 -12 12.5 -17t24.5 3q16 10 25.5 35.5t13.5 55.5t5 59.5t1 52.5v24q0 12 -14.5 17.5t-26.5 -2.5q-10 -10 -30.5 -23.5t-30.5 -13.5h-289v375q27 0 41 2t43 6q31 4 61.5 7t59.5 3 q57 0 98 -21.5t43 -87.5q0 -12 12 -17t25 1q12 8 21 25.5t14.5 39t8.5 46t3 45.5q0 6 1 16t2 19.5t1 13.5q0 6 0 2l-33 18q-20 -10 -42.5 -13t-45.5 -3h-231h-195q-94 0 -192 4q-18 0 -21.5 -14.5z" />
<glyph unicode="g" horiz-adv-x="1374" d="M51 707q0 -127 45 -234.5t125 -187.5t188.5 -128t233.5 -57q39 -2 76 -3t76 -1q49 0 102 3t105.5 11.5t101.5 25t90 42.5q4 2 7 7t3 10v374q0 39 33 53.5t66 20.5l-3 35q-100 4 -199.5 5t-201.5 1q-18 0 -22.5 -14.5t12.5 -20.5q29 -12 59 -18q23 -6 45.5 -17.5 t22.5 -40.5v-329q-41 -33 -93.5 -42t-101.5 -9q-113 0 -219 38.5t-188 109.5t-132.5 170t-50.5 220q0 111 45.5 196t120 143t170 88t195.5 30q59 0 119.5 -12.5t110.5 -40t87 -72.5t49 -111q4 -10 14.5 -13t20.5 1q16 6 25.5 43t14.5 81t6 84t1 54q0 16 -20 17q-37 4 -74 9 t-74 9q-68 10 -144.5 17.5t-147.5 7.5q-129 0 -254 -32t-223.5 -99.5t-160 -173t-61.5 -250.5z" />
<glyph unicode="h" horiz-adv-x="1441" d="M53.5 1229q-6.5 -8 1.5 -19q10 -16 27.5 -20t38.5 -6q23 -2 45 -12.5t22 -57.5v-831q0 -39 -3 -61.5t-13 -36t-29.5 -18.5t-52.5 -11q-20 -4 -18 -20.5t22 -16.5q53 -2 104.5 -3t104.5 -1q51 0 101.5 1t103.5 3l-2 37h-18q-62 0 -86 24q-26 28 -27 107v403h672v-407 q0 -16 -3.5 -38t-10.5 -42.5t-18 -33.5t-28 -13q-6 0 -22 8l-23 -33q29 -14 82 -16t88 -2h102q37 0 75 1h25q26 0 52 -1l14 32q-18 14 -37.5 17.5t-37.5 3.5q-10 0 -21.5 1t-21.5 3q-6 2 -11.5 18.5t-9.5 36t-6 37t-2 25.5v829q0 47 29.5 59.5t68.5 18.5q20 4 19.5 18.5 t-21.5 16.5q-98 6 -198.5 8t-200.5 2q-27 0 -23 -20q4 -23 21.5 -25t42.5 -6q12 0 25.5 -2t24.5 -10.5t18.5 -22.5t7.5 -39v-338h-672v340q0 39 30.5 56.5t65.5 19.5q20 0 21.5 16.5t-19.5 18.5q-98 8 -198.5 9t-198.5 1q-16 0 -22.5 -8z" />
<glyph unicode="i" horiz-adv-x="550" d="M42 1211.5q-1 -15.5 19 -17.5q37 -4 71 -21.5t34 -58.5v-833q0 -16 -3 -37t-9.5 -41.5t-17.5 -33.5t-27 -13q-4 0 -11.5 -3t-17.5 1q-18 4 -26.5 -15.5t9.5 -25.5q14 -6 40 -7.5t53.5 1t52 4.5t41.5 2l78 -2q20 -1 38.5 -1t36 1t35.5 1t37 -1l17 32q-16 14 -34 17.5 t-40 3.5q-10 0 -22.5 2t-18.5 4q-4 6 -10.5 22.5t-10.5 35t-7 35t-3 24.5v827q0 49 28.5 61.5t69.5 18.5q18 4 17.5 18.5t-19.5 16.5q-24 2 -47 2t-45 -2q-45 -4 -92 -4t-96 4q-24 2 -49 2t-50 -2q-20 -2 -21 -17.5z" />
<glyph unicode="j" horiz-adv-x="618" d="M43 -227q-4 -12 6 -19.5t27 -3.5q70 31 138.5 77t121.5 104.5t87 130t34 155.5v893q0 47 29.5 60.5t70.5 19.5l-2 37q-53 3 -107 3l-53 -1q-80 -2 -157 -2h-80q-16 0 -23.5 -8.5t2.5 -18.5q14 -20 33 -20h43q20 0 37.5 -9.5t17.5 -60.5v-877q0 -90 -16 -152.5t-40 -107.5 t-52.5 -73.5t-53.5 -49.5q-23 -18 -40 -38.5t-23 -38.5z" />
<glyph unicode="k" horiz-adv-x="1366" d="M53.5 1227q-6.5 -8 1.5 -19q10 -16 26.5 -20t39 -6t44 -12.5t21.5 -57.5v-831q0 -39 -3 -61.5t-13 -36t-29.5 -19.5t-52.5 -10q-18 -4 -17 -20.5t19 -16.5q104 -4 204.5 -5t203.5 -1q20 0 23 14t-13 20q-25 12 -47.5 15.5t-38.5 5.5q-12 2 -20.5 4t-14.5 13.5t-9 35 t-3 66.5v356q43 -35 72.5 -66.5t82.5 -85.5q70 -70 146 -141.5t155.5 -129.5t159.5 -96t160 -38q41 0 79 8.5t73 28.5l-13 35h-6q-64 0 -140 39q-78 41 -161.5 104t-165.5 140t-155 149q-41 41 -80 79t-74 66q39 31 73.5 64.5t82.5 81.5q55 51 112.5 105t115.5 98t115.5 75 t112.5 35q20 2 21 16q0 16 -21 19q-43 4 -88 4h-86q-39 0 -75.5 1t-75.5 3q-16 0 -22.5 -9t3.5 -20q8 -8 8 -30q0 -23 -27.5 -59t-70.5 -79t-94 -89t-100 -89q-31 -29 -61 -53.5t-52 -48.5q-2 88 -3 175t-1 167q0 39 30.5 64.5t65.5 27.5q18 0 19.5 16.5t-17.5 18.5 q-100 6 -199.5 7t-197.5 1q-16 0 -22.5 -8z" />
<glyph unicode="l" horiz-adv-x="917" d="M47 1210q6 -12 27.5 -17t40.5 -7q23 -2 44 -13.5t21 -58.5v-831q0 -53 -18.5 -88t-73.5 -37q-20 0 -21 -17.5t19 -19.5q100 -6 207 -6q41 0 84 1t84 1q49 2 96 2h98q47 0 95.5 -1t95.5 -5l6 37q-6 2 -8 1t-8 1q20 37 24 76.5t8 80.5q0 6 1 11.5t1 9.5q0 14 -18 17t-29 -9 q-39 -72 -109.5 -111t-146.5 -39q-37 0 -72.5 10.5t-63.5 31t-45 51t-17 71.5v764q-1 36 25 56q21 16 49 17q6 0 12 -1h24q18 0 20.5 15.5t-14.5 19.5q-43 12 -89 14t-91 2q-31 0 -60.5 -1t-60.5 -1h-114q-14 0 -21.5 -8t-1.5 -19z" />
<glyph unicode="m" horiz-adv-x="1796" d="M58.5 138.5q0.5 -15.5 19.5 -17.5q88 -4 175 -6t175 -2q18 0 22.5 14t-12.5 20q-35 16 -48 19.5t-23 7.5q-12 4 -19.5 7t-10.5 11.5t-4 24.5t-1 45v33q0 104 13 210.5t30 213.5q6 39 12 75.5t10 77.5q18 -31 29.5 -53t22 -42.5t21.5 -43t28 -55.5q35 -68 72.5 -140.5 t80.5 -144t89 -140.5t98 -128q10 -8 21 -7t18 11q33 57 63.5 114.5t60.5 116.5q70 131 138.5 261.5t146.5 257.5q2 -35 5 -57.5t6 -44t7.5 -45t8.5 -58.5q14 -113 26.5 -225.5t12.5 -223.5q0 -20 -1 -39.5t-5 -33.5q-4 -10 2 -17.5t18 -7.5q174 -12 350 -12l8 35 q-31 14 -42 13t-27 3q-25 4 -50.5 12t-43.5 37q-18 25 -31.5 90.5t-25 145t-18.5 162.5t-13 147q-4 29 -5.5 49t-3.5 37q-25 199 -55 399q-2 12 -17.5 15.5t-25.5 -7.5q-41 -59 -76 -119.5t-65 -119.5q-10 -18 -22.5 -41t-22.5 -41q-31 -59 -63 -117.5t-62 -118.5 q-45 -86 -89 -170t-92 -170q-18 31 -38.5 72t-63.5 119q-55 98 -118.5 215t-123 220t-107.5 179t-73 96q-12 8 -25.5 4t-15.5 -16t-4 -33.5t-6 -48.5q-8 -66 -18.5 -160t-22.5 -198.5t-25.5 -210t-25.5 -191.5t-22.5 -145t-16.5 -72q-8 -16 -24.5 -19t-34.5 -5q-16 0 -33 -4 q-18 -4 -17.5 -19.5z" />
<glyph unicode="n" horiz-adv-x="1474" d="M54.5 147.5q-3.5 -16.5 15.5 -20.5q43 -10 89 -12t93 -2h72q36 0 72 1h24q24 0 47 -1q18 0 24.5 12t-10.5 20q-18 14 -38.5 17.5t-39.5 7.5q-14 2 -27.5 6t-24.5 14.5t-17 32t-6 56.5q0 78 -2 153.5t-7 151.5q-4 78 -7 153.5t-3 153.5v39q0 18 2 37l107 -105h-2 q197 -199 400.5 -394.5t432.5 -367.5q12 -6 24.5 -3t14.5 16q12 129 16.5 257t4.5 259q0 57 -1 127.5t-1 130.5q-2 63 -2 125v129q0 23 24.5 33t48.5 16h-2q12 4 17 4l14 2l-8 35q-73 4 -147 7q-44 2 -90 2q-30 0 -60 -1l-74 -2q-16 0 -22.5 -12.5t8.5 -18.5q25 -14 63 -18 q14 -2 28.5 -5t27 -12.5t20.5 -29t8 -51.5v-125q0 -33 -1 -64t-1 -63q0 -51 2 -108.5t6 -108.5q3 -63 5 -124q1 -28 1 -56q0 -34 -2 -68q-229 225 -460.5 445t-466.5 437q-4 4 -13.5 5.5t-15.5 -3.5q-10 -8 -20.5 -19t-10.5 -28v-966q0 -41 -24.5 -62.5t-59.5 -17.5h-24 q-18 0 -21.5 -16.5z" />
<glyph unicode="o" horiz-adv-x="1433" d="M51 690q0 -127 55.5 -236.5t145.5 -189.5t208 -126t240 -46q123 0 245 35t219.5 104.5t157.5 173t60 238.5q0 127 -52 241.5t-140 200.5t-204 137.5t-243 51.5q-129 0 -252.5 -39t-221 -113.5t-158 -183.5t-60.5 -248zM236 719q0 106 34.5 191t97 145.5t149.5 93.5 t190 33q111 0 201.5 -43t155 -117t100.5 -171.5t36 -203.5q0 -104 -32.5 -191t-93 -149.5t-145.5 -96.5t-190 -34q-113 0 -205 44t-158.5 119t-103 173t-36.5 207z" />
<glyph unicode="p" horiz-adv-x="933" d="M47.5 1229q-6.5 -8 1.5 -19q10 -16 28.5 -20t39.5 -6q23 -2 44 -11.5t21 -52.5v-837q0 -39 -3 -61.5t-13 -36t-29.5 -18.5t-52.5 -11q-20 -4 -19 -20.5t21 -16.5q104 -4 207.5 -6t208.5 -2q14 0 20 8t0 18q-8 16 -27.5 19.5t-43.5 7.5q-10 2 -26.5 3t-27.5 5 q-4 4 -8 20.5t-9 35t-8 36t-3 23.5v860q25 8 50 13t54 5q55 0 101.5 -22.5t79 -59t51 -86t18.5 -104.5q0 -59 -20.5 -104.5t-56.5 -76t-84 -47t-103 -16.5h-39q-20 0 -22.5 -15.5t18.5 -19.5q23 -4 47 -8t51 -4q74 0 142.5 28.5t119.5 78t82 116t31 140.5q0 92 -38 145 t-99.5 82t-137 37t-151.5 8q-23 0 -41.5 -1t-38.5 -1h-64q-23 0 -42 1t-41 1h-132h-34q-16 0 -22.5 -8z" />
<glyph unicode="q" horiz-adv-x="1460" d="M66 662q0 -143 54 -254t146 -186t214 -112.5t257 -37.5q35 0 69 7t62 15q31 10 58.5 16.5t52.5 6.5h10q35 -12 71 -28.5t73 -33.5q23 -10 45 -21t45 -22q94 -41 191 -77.5t197.5 -66.5t203 -47.5t206.5 -17.5q252 0 465 115l-20 31q-84 -29 -172 -45.5t-180 -16.5 q-127 0 -252 27t-247 72t-240 100t-230 115q121 86 193.5 216t72.5 279q0 135 -57.5 238.5t-151.5 174.5t-213 106.5t-241 35.5q-127 0 -250 -40t-219.5 -116.5t-154.5 -186t-58 -246.5zM256 743q0 104 39 183.5t104.5 131.5t152.5 78.5t183 26.5q102 0 189.5 -34.5t150 -98 t98 -152t35.5 -192.5q0 -94 -28.5 -178t-80.5 -151.5t-125 -118t-161 -76.5q-111 12 -211 60t-177 125t-123 178.5t-46 217.5z" />
<glyph unicode="r" horiz-adv-x="1386" d="M53.5 1229q-6.5 -8 1.5 -19q10 -16 26.5 -20t39 -6t44 -12.5t21.5 -59.5v-831q0 -39 -3 -62.5t-13 -36t-29.5 -17.5t-52.5 -9q-18 -4 -17 -19.5t19 -17.5q104 -6 207.5 -7t208.5 -1q18 0 24.5 12t-10.5 20q-16 12 -35.5 15.5t-38.5 5.5q-10 2 -24 2q-12 0 -19 4 q-4 2 -9 17.5t-9 35t-7 36.5t-3 26v270q16 2 21 1t22 -1q45 0 99 -7t89 -38q39 -33 74 -74t70 -86q39 -49 79.5 -96t88 -84t104.5 -59.5t129 -22.5q90 0 168 33l-12 35q-13 -2 -26 -2q-48 0 -97 24q-62 30 -121 78.5t-114.5 110t-104.5 120.5q-31 37 -60.5 71t-60.5 65 q35 31 68.5 68.5t61.5 80.5t45 90t17 94q0 94 -44 149.5t-111.5 84.5t-150.5 37t-158 8q-23 0 -42.5 -1t-39.5 -1h-43h-62t-61 2q-25 2 -49 2h-48h-30q-16 0 -22.5 -8zM375 662v493q45 12 94 12q57 0 104.5 -23.5t81 -62.5t51 -91t17.5 -109q0 -104 -51 -166t-152 -62 q-35 0 -72.5 2t-72.5 7z" />
<glyph unicode="s" horiz-adv-x="772" d="M43 236q0 -43 23.5 -71t57.5 -44.5t73 -22.5t71 -6q66 0 147 21.5t150.5 62.5t116.5 100.5t47 137.5q0 53 -24.5 100t-63.5 90t-88 81t-96 75q-37 29 -76 59.5t-70.5 64.5t-51 68.5t-19.5 69.5q0 39 16 69.5t43 51t60.5 32t68.5 11.5t68.5 -10.5t61.5 -31t45.5 -49 t17.5 -67.5q0 -14 15 -18t28 6q25 27 27.5 68.5t2.5 82.5v58q4 16 -18 20q-84 18 -172 19q-55 0 -132 -13.5t-146.5 -44t-118 -82t-48.5 -127.5q0 -47 23.5 -91t62.5 -88t87.5 -87t97.5 -84q43 -37 85 -73.5t75.5 -75.5t55 -76t21.5 -74q0 -41 -22.5 -71.5t-57 -51 t-74.5 -32t-73 -11.5q-39 0 -79 10.5t-72.5 32t-52.5 53.5q-16 26 -16 60q0 7 1 14v25q0 8 -7.5 12t-15.5 4t-16 -3t-8 -11q-2 -35 -13 -57q-8 -23 -13 -44.5t-5 -41.5z" />
<glyph unicode="t" horiz-adv-x="1173" d="M43 1071q0 -20 2 -27q4 -12 20.5 -14t24.5 10q23 41 60.5 70t82.5 29h261v-863q0 -37 -4.5 -58t-14.5 -33.5t-30.5 -17.5t-51.5 -9q-18 -4 -17 -20.5t19 -16.5q104 -4 208 -6t208 -2q16 0 22.5 8t0.5 18q-8 16 -28 20.5t-42 6.5q-12 2 -29.5 4t-25.5 6h-2q-4 2 -8.5 17.5 t-7.5 35t-6 37t-3 23.5v848q14 -4 17 -2t20 2h41q20 0 38.5 2t35.5 2h32q66 0 118 -19.5t67 -91.5q4 -14 22 -14q20 0 25 14q18 82 18 166v33q0 23 -26 18q-12 -2 -22.5 -3t-16.5 -5h2q-16 -4 -32.5 -8t-27.5 -4h-731q-12 0 -31.5 3t-40 7t-40 9t-27.5 11q-10 4 -20.5 1 t-14.5 -13q-4 -12 -7 -24.5t-7 -22.5q-10 -31 -20.5 -65.5t-10.5 -61.5z" />
<glyph unicode="u" d="M51 1217q4 -23 21.5 -25t42.5 -6q25 -2 50 -12.5t25 -61.5v-606q0 -12 3.5 -28.5t3.5 -35.5v2q0 -92 50 -159.5t127 -111.5t168 -65.5t173 -21.5q100 0 190 33t156.5 93t105.5 145t39 190v567q0 41 32 57.5t67 20.5l-2 35q-90 6 -180.5 8t-182.5 2q-29 0 -25 -20 q4 -23 23.5 -26t42.5 -5q12 -2 25.5 -4t23.5 -9.5t17.5 -21.5t7.5 -39v-160t2 -157q2 -80 2 -160v-158q0 -74 -29 -129t-77 -93t-110.5 -57.5t-127.5 -19.5q-66 0 -126.5 18.5t-107.5 55.5t-75.5 91t-28.5 126q0 80 1 161t1 163v321q0 45 28.5 58.5t69.5 17.5q18 2 19 16 q0 16 -19 19q-170 12 -338 12h-63q-29 0 -25 -20z" />
<glyph unicode="v" horiz-adv-x="1456" d="M53.5 1221.5q-6.5 -13.5 9.5 -19.5q16 -10 34 -14t34 -8q25 -6 46.5 -14.5t33.5 -32.5q14 -20 27.5 -50t29.5 -61q8 -16 14.5 -30.5t14.5 -26.5h-2q31 -61 60.5 -132t60.5 -141q66 -154 138.5 -310.5t158.5 -285.5q8 -8 21.5 -7t21.5 9q76 145 146.5 289.5t139.5 292.5 q16 37 37 78t37 76q10 16 18.5 36.5t18.5 42.5q14 31 30.5 67t34 68.5t34 61.5t30.5 47q12 12 30.5 19.5t39.5 11.5q10 2 17 3t15 3l-4 35q-47 2 -90 3t-88 1t-89 -1t-87 -3q-20 0 -20 -19q0 -16 20 -16q2 0 6 -1t8 -1q16 -2 39 -6t23 -8q0 -49 -30 -135.5t-74 -187.5 t-94 -205.5t-93 -190.5l-47 -94q-12 31 -22.5 53t-19.5 43.5t-20.5 44t-23.5 51.5q-70 150 -136.5 304.5t-109.5 312.5q12 6 32.5 20t35.5 12q18 -2 21 16.5t-15 18.5q-70 0 -117 -3t-102 -3h-76q-35 0 -67 -1h-21q-22 0 -45 1q-18 0 -24.5 -13.5z" />
<glyph unicode="w" horiz-adv-x="2011" d="M59.5 1225.5q-6.5 -11.5 8.5 -19.5q16 -12 32.5 -16t36.5 -8q14 -4 28.5 -7.5t24.5 -15.5q16 -20 40 -74.5t50.5 -126t55.5 -155.5t55 -164q25 -78 52.5 -158t53 -151.5t50 -132t45.5 -99.5q8 -10 22 -10t23 10q55 115 105.5 228.5t99.5 230.5q39 94 80 187.5t84 185.5 q31 -74 52 -127t50 -127q53 -143 116.5 -296t139.5 -284q8 -10 22.5 -9t20.5 11q57 123 109.5 261.5t103.5 277.5q16 43 31.5 85t31.5 87q4 16 11.5 34.5t15.5 39.5q27 70 57.5 143.5t71.5 132.5q16 31 45 29l41 -2q20 -2 23 13.5t-13 21.5q-34 8 -69 8h-14q-42 -2 -87 -2 q-47 0 -97 3q-21 1 -42 1q-28 0 -55 -2q-20 -2 -19.5 -18.5t21.5 -16.5q4 0 6 -1t8 -1q16 -2 43 -6t27 -15q0 -59 -19.5 -139t-49 -169t-65.5 -180t-69 -173q-14 -33 -26.5 -61.5t-22.5 -57.5q-14 35 -25.5 63.5t-21.5 56.5t-21.5 57.5t-23.5 64.5q-57 147 -118.5 297.5 t-139.5 290.5q-8 10 -23 10q-12 0 -18 -10q-92 -205 -181.5 -412t-179.5 -414q-4 16 -8 26.5t-7 19t-6 17.5t-9 23q-61 166 -119 340t-82 350q10 10 23.5 11.5t23.5 3.5q20 2 37 8q18 4 17 19.5t-21 15.5q-104 4 -209 6t-209 2q-18 0 -24.5 -11.5z" />
<glyph unicode="x" horiz-adv-x="1302" d="M52.5 130.5q0.5 -17.5 21.5 -17.5h49q74 0 149.5 1t151.5 5q18 2 20 15t-14 20q-16 8 -37 8q-10 0 -20 8q6 27 26.5 68t50 87t62.5 94t61 89q16 23 28.5 40t23.5 34q16 -25 42.5 -64t56.5 -82t59.5 -88t53 -82t38 -62.5t14.5 -31.5q0 -12 -8 -20q-14 -10 -9 -21.5 t23 -11.5q41 0 83 -1t85 -3q41 -2 82 -2h84l6 37q-55 12 -104.5 51t-94.5 92t-87 115.5t-79 123.5q-29 51 -62.5 101.5t-64.5 91.5q23 27 46.5 58.5t52.5 74.5q37 53 78 110.5t84 104.5t87 79t87 36q20 2 22 16.5t-18 18.5q-41 10 -86 12t-90 2q-43 0 -86 -2t-86 -6 q-20 -2 -22.5 -16.5t18 -18.5t46 -16.5t25.5 -36.5q0 -12 -12 -34t-31.5 -48.5t-44.5 -56t-49 -58.5q-29 -35 -52.5 -63.5t-39.5 -55.5q-18 29 -41 59.5t-47 65.5q-43 61 -82 116.5t-39 84.5q0 23 18.5 34t36.5 17q16 4 13 19.5t-21 15.5q-26 -1 -52 -1h-25q-38 1 -75 1h-75 q-45 0 -91.5 -2t-87.5 -12q-18 -4 -18 -19q0 -12 20 -16q53 -8 99.5 -40t86.5 -78t75.5 -101.5t68.5 -108.5q20 -35 55 -88t60 -88q-29 -35 -53.5 -74t-55.5 -86q-41 -61 -85 -126.5t-91 -120t-96 -90t-98 -37.5q-20 -2 -19.5 -19.5z" />
<glyph unicode="y" horiz-adv-x="1339" d="M51.5 1214.5q-2.5 -14.5 16.5 -18.5q27 -6 76 -48t105 -103.5t114.5 -135t105.5 -143.5t76.5 -126t29.5 -85v-305q0 -33 -13 -61.5t-44 -28.5q-16 0 -22 2l-15 -35q45 -10 92.5 -12t94.5 -2q59 0 117.5 2t117.5 6q20 2 18.5 19.5t-22.5 17.5h-11q-44 0 -82 15 q-42 17 -42 77v325q0 35 27.5 91.5t72.5 122t101.5 133t113 126t106.5 98.5t85 50l-6 35q-41 2 -82 3t-82 1h-78q-37 0 -78 -4q-18 -2 -20 -15.5t14 -17.5q14 -6 24.5 -16.5t10.5 -26.5t-15.5 -46t-39 -65.5t-50 -71.5t-49.5 -67q-29 -33 -41 -53q-25 -33 -48 -71t-42 -72 l-16 22q-37 49 -85 120t-91 138.5t-73 119.5t-30 65q0 8 7.5 14t13.5 10q12 8 16 10q12 10 6 20.5t-22 10.5q-86 0 -171 -2t-171 -6q-18 -2 -20.5 -16.5z" />
<glyph unicode="z" horiz-adv-x="1095" d="M48 128q7 -9 24 -9q217 -2 430 -3t430 -1h92q20 0 20 18t-20 19h-23q16 53 24.5 106t12.5 104q2 14 -16 18.5t-29 -7.5q-18 -27 -42.5 -55.5t-54.5 -51t-62.5 -38t-63.5 -15.5l-434 -2q-6 0 -14.5 -1t-14.5 -1t-13 -1t-11 -1q53 72 105 137.5t106 134.5q55 70 126.5 165 t146.5 195.5t142.5 197t112.5 169.5q8 8 2 17.5t-23 9.5h-690q-35 0 -75.5 5t-79.5 15q-23 4 -31 -14q-2 -6 -2 -12q0 -4 -2 -10q-10 -53 -19.5 -106.5t-15.5 -113.5q-2 -14 12.5 -19t26.5 5l18 18q49 49 108.5 96.5t125.5 47.5q94 2 186 2h185q6 0 13 1t13 1q4 0 8 1t9 1 q-68 -92 -131.5 -174t-133.5 -174q-125 -164 -244.5 -324t-230.5 -332q-10 -10 -3 -19z" />
<glyph unicode="{" horiz-adv-x="595" d="M110 791.5q-1 -13.5 15 -17.5q27 -12 44 -17t30 -7q12 -4 19 -7.5t11 -14.5t5.5 -31.5t1.5 -59.5v-158q0 -78 8 -149.5t38.5 -133t88 -108.5t155.5 -74q18 -4 25.5 12.5t-10.5 22.5q-47 20 -76 60.5t-44 90.5t-20.5 107.5t-5.5 112.5v53q0 27 2 53q0 23 1 41.5t1 36.5 t-8 45t-21.5 53.5t-30.5 51t-38 41.5q33 25 53.5 60.5t30.5 76.5t12 87t2 93q0 51 1 102.5t13.5 93.5t40 71.5t81.5 41.5l-5 35q-106 -6 -163.5 -41t-85 -89t-32.5 -119.5t-5 -133.5q0 -47 -3 -91t-13.5 -81t-34 -61.5t-64.5 -30.5q-18 -4 -19 -17.5z" />
<glyph unicode="}" horiz-adv-x="528" d="M45 34.5q6 -16.5 25 -11.5q96 20 155.5 65t91 106.5t43 137.5t11.5 160v51q0 18 -1 37.5t-1 42.5q0 33 2 62.5t6 43.5q6 18 21.5 24.5t31.5 6.5q27 0 37 2l14 31q-10 12 -27.5 15t-35.5 7q-20 4 -36.5 13.5t-16.5 43.5q0 20 1 43t1 46t1 46t1 46q0 74 -9.5 144.5 t-40 127.5t-89 95t-156.5 46q-18 2 -22.5 -12t11.5 -20q6 -6 11 -9h-4q23 -16 47 -32.5t43.5 -37t32 -44t12.5 -49.5v-35q0 -18 -2 -39q-2 -27 -3 -55.5t-1 -57.5q0 -82 17 -157.5t85 -120.5q-20 -16 -37.5 -42t-31 -54.5t-20.5 -55.5t-7 -43v-41q0 -23 2 -43q2 -25 2 -51 v-55q0 -55 -5 -110.5t-21.5 -103.5t-46.5 -85t-79 -56q-18 -6 -12 -22.5z" />
<glyph unicode="&#xa1;" horiz-adv-x="288" d="M37 123q-2 -10 7 -16.5t22 -4.5q14 2 44.5 20.5t60.5 42t52.5 49.5t22.5 42q0 35 -2 75t-6 77q-2 20 -3.5 40.5t-3.5 43.5l-6 116q-8 135 -19 267.5t-42 261.5q-4 14 -25.5 13t-23.5 -15q-23 -135 -30 -273.5t-13 -279.5q-6 -117 -13.5 -229.5t-21.5 -229.5zM43 1329 q0 -18 7 -37.5t19.5 -36t31 -27.5t40.5 -11q16 0 37 8q35 8 54.5 29.5t19.5 56.5q0 41 -29.5 78.5t-77.5 37.5q-45 0 -73.5 -29.5t-28.5 -68.5z" />
<glyph unicode="&#xa2;" horiz-adv-x="860" d="M45 735q0 -76 23.5 -142.5t66.5 -120.5t103.5 -91t134.5 -55q-2 -31 -6.5 -59.5t-8.5 -61.5q-4 -29 -7 -56.5t-5 -56.5q0 -23 27 -18l63 8q18 0 23 14l10 115q2 23 4 49.5t4 48.5q12 0 16.5 -1t20.5 -1q45 0 97.5 6t96.5 22.5t73.5 48.5t29.5 85q0 18 -5 37.5t-13 40.5 h-43q-25 -74 -73 -103.5t-120 -29.5q-10 0 -20.5 1t-20.5 1h-14q8 27 9 71.5t5 116.5q4 74 10 155t14.5 147.5t21.5 109.5t34 43q16 0 37.5 -18.5t43 -43t40 -51t28.5 -43.5q10 -10 23.5 -9t19.5 11q10 23 18.5 47.5t8.5 53.5q0 43 -23.5 71.5t-59.5 46t-77 25.5t-77 12 q6 43 11 77t11 75q4 16 -22 20q-37 2 -56.5 -8t-29 -27.5t-11.5 -42t-2 -49.5v-24t-2 -23q-92 2 -171 -29.5t-137 -88t-91 -135.5t-33 -171zM209 780q0 117 66.5 190t175.5 87q-16 -154 -29.5 -301.5t-30.5 -300.5q-84 49 -133 136t-49 189z" />
<glyph unicode="&#xa3;" horiz-adv-x="1034" d="M51 170q-10 -10 2 -23q4 -6 36 -9t79 -5t104 -2h117h252q10 0 22.5 -1t22.5 -3q16 -2 23.5 -4t40.5 -2q100 0 167.5 45t67.5 156q0 18 -2 34.5t-6 32.5q-4 12 -18.5 14.5t-24.5 -8.5q-4 -6 -10 -13t-11 -15q-12 -18 -26.5 -37t-29.5 -35t-33.5 -27.5t-39.5 -13.5 q-43 -4 -86 -4h-84q-31 0 -61.5 1t-60.5 1q-35 0 -71 1t-73 1h-26q90 88 122.5 202.5t38.5 233.5q10 4 9.5 2t11.5 -2h20q12 0 25 -2q14 -2 30.5 -3t34.5 -1q47 0 87 15.5t51 64.5q4 10 -4.5 17t-22.5 5q-68 -6 -131 -6q-47 0 -102 6q-8 25 -9 64q0 51 22.5 124t61.5 140.5 t90.5 115.5t108.5 48q31 0 54.5 -18.5t42 -45t31.5 -58.5t21 -58q4 -10 18.5 -12.5t22.5 8.5q23 29 27 60.5t4 62.5v96l-10 18q-72 49 -168 49q-94 0 -182 -55t-157 -139t-111 -182.5t-42 -184.5v-22t5 -25q-4 2 -12.5 3t-16.5 3q-10 2 -19.5 3t-21.5 1q-41 0 -63.5 -19.5 t-30.5 -53.5q-2 -10 6 -16.5t20 -6.5q35 4 66 3t65 -5q-10 -35 -12 -62.5t-6 -62.5q-10 -70 -21.5 -135.5t-42.5 -118.5q-27 -45 -63.5 -67.5t-65.5 -36.5q-20 -10 -34.5 -17.5t-18.5 -13.5z" />
<glyph unicode="&#xa5;" horiz-adv-x="1218" d="M69 1313.5q-1 -15.5 17 -19.5q51 -12 100.5 -59t95.5 -112.5t88 -142.5t79 -146q20 -35 37.5 -69t35.5 -65q-4 -2 -6 -2l-1 1t-5 1h-21q-10 0 -22 2q-27 2 -55.5 3.5t-54 -4t-47 -19.5t-34.5 -43q-6 -10 1.5 -18.5t21.5 -8.5h250v-77h-33l-1 1q-1 1 -5 1h-21q-10 0 -22 2 q-27 2 -55.5 3t-54 -4.5t-47 -19.5t-34.5 -43q-6 -10 1.5 -18t21.5 -8h250v-213q0 -18 -12.5 -29.5t-31 -19t-37.5 -9.5t-34 -2q-10 0 -16 2q-20 4 -25.5 -12t13.5 -23q35 -10 78.5 -13t82.5 -3h279q18 0 23 13.5t-11 21.5q-12 6 -30.5 9t-34.5 7q-31 6 -58.5 16.5 t-27.5 38.5v216h221q16 0 22 10q6 16 21.5 31.5t15.5 33.5t-22 19h-238h-6q-4 0 -14 -2v71h221q16 0 22 11q6 16 21.5 31.5t15.5 33.5t-22 19h-238q12 23 22.5 41t28.5 55q39 72 85 156.5t96.5 158.5t102.5 126.5t105 58.5l-4 36h-78q-53 0 -109 -1t-110 -5q-16 -2 -21 -10 t3 -18q25 -25 24 -72q0 -20 -12 -52t-31.5 -70t-44 -79t-49.5 -82q-29 -47 -48 -79.5t-36 -67.5q-16 35 -33.5 60.5t-48.5 76.5q-27 43 -54.5 88t-49 87t-34.5 79t-13 66q0 31 12 45q10 10 4 18t-20 10q-84 6 -160 6q-43 0 -83 -2t-81 -6q-20 -2 -21 -17.5z" />
<glyph unicode="&#xa7;" horiz-adv-x="845" d="M45 633q0 -86 18.5 -144.5t53.5 -97.5t85 -62.5t111 -41.5q25 -6 51.5 -14.5t49.5 -14.5q39 -10 75.5 -23.5t66.5 -38t47.5 -63.5t17.5 -100q0 -78 -25 -121t-57.5 -62.5t-65.5 -22.5t-49 -3q-66 0 -118 13t-81 24q-20 8 -28 -8l-37 -99q-4 -8 1 -15t17 -9q4 -4 8 -4h9 q47 -18 92 -23.5t80 -5.5q82 0 153.5 27.5t123.5 81t83 132t31 181.5q0 25 -2 55.5t-12.5 64t-30 67.5t-54.5 65q76 78 109 166t33 186q0 94 -21.5 154.5t-56.5 97.5t-80 57.5t-92 36.5q-43 14 -82 23.5t-82 21.5q-25 6 -52.5 22.5t-52 43t-41 63.5t-16.5 84q0 25 6.5 61.5 t25.5 71.5t56 60.5t99 25.5q33 0 89 -9t124 -34q23 -8 30 10l37 99q6 16 -14 22q-47 20 -94 28.5t-92 8.5q-100 0 -170 -29.5t-115 -75.5t-68.5 -101.5t-35 -103.5t-13.5 -84t-2 -44q0 -49 7 -83t19.5 -59.5t31 -48t42.5 -47.5q-78 -82 -110.5 -176t-32.5 -186zM186 719 q0 86 27 143.5t49 87.5h2q37 -12 78 -22l92 -25l254 -252q-25 0 -24 -16q0 -129 -82 -223q-4 2 -2 1t-2 1h-3q-14 4 -27 9t-30 9q-29 8 -59.5 15.5t-59.5 15.5q-35 8 -71.5 21.5t-68.5 41t-52.5 73.5t-20.5 120z" />
<glyph unicode="&#xa8;" horiz-adv-x="610" d="M47 1417q-4 -23 6 -45t28.5 -38.5t42 -22.5t48.5 2l2 2q49 25 57 74q2 20 -4 39.5t-20 35t-33.5 23.5t-40.5 8q-35 -4 -58.5 -24.5t-27.5 -53.5zM379 1419q-4 -23 7 -45t29.5 -38.5t42 -23.5t46.5 3q51 21 61 74q4 41 -25.5 74.5t-74.5 31.5q-35 -4 -58.5 -24.5 t-27.5 -51.5z" />
<glyph unicode="&#xa9;" horiz-adv-x="1427" d="M51 815q0 -80 21.5 -164t60.5 -164.5t94.5 -153.5t124 -127t148.5 -86t168 -32q129 0 255 47t227 132t163.5 200t62.5 250q0 121 -46 249t-129 232.5t-196.5 171t-248.5 66.5q-127 0 -252 -47.5t-226.5 -131t-164 -197.5t-62.5 -245zM190 825q0 123 45.5 217.5t123 158 t180 95t217.5 31.5q109 0 200 -33.5t156.5 -97t101 -152.5t35.5 -200q0 -113 -36.5 -213.5t-101 -183t-153 -145t-190.5 -97.5q-121 12 -225.5 63t-183 134t-124 190.5t-45.5 232.5zM309 786q0 -88 42 -161.5t107.5 -126t148.5 -82t167 -29.5q41 0 80 8t69.5 26.5t50 50.5 t19.5 79v22q0 12 -2 23q-4 14 -22 14t-25 -12q-23 -55 -65.5 -89t-102.5 -34q-59 0 -115.5 32t-99.5 82t-69.5 110.5t-26.5 117.5q0 55 25.5 103.5t67.5 83t93 54t105 19.5q70 0 117 -38t61 -109q4 -14 21.5 -15.5t25.5 11.5q16 35 20.5 69.5t4.5 69.5q0 10 1 21.5t1 21.5 l-11 14q-41 29 -91 39t-97 10q-80 0 -168 -25.5t-161.5 -74.5t-122 -120.5t-48.5 -164.5z" />
<glyph unicode="&#xaa;" horiz-adv-x="825" d="M45 823.5q2 -14.5 21 -14.5q27 -2 52 -1t50 1h106q14 0 20.5 9t-1.5 20q-14 20 -24.5 40.5t-10.5 45.5q0 20 11.5 34.5t28.5 23.5t36.5 13t38.5 4q29 0 57.5 -7t52 -22.5t39 -38t15.5 -54.5q0 -20 -5 -37q-4 -23 19 -25q41 -4 80 -5t80 -1h47q18 0 21 14.5t-13 18.5 q-31 12 -62.5 50t-62.5 90t-61.5 113.5t-57.5 118.5q-29 57 -54.5 110.5t-49.5 92.5q-8 10 -20.5 9t-20.5 -11q-20 -37 -40 -84l-40 -94q-25 -59 -51.5 -123.5t-57 -120t-63.5 -95.5t-66 -54q-16 -6 -14 -20.5zM336 1077q12 33 21.5 52.5t21.5 52.5q4 10 3 11t3 9 q16 -31 28.5 -61.5t24.5 -63.5h-102z" />
<glyph unicode="&#xab;" horiz-adv-x="815" d="M47 795q63 -92 147.5 -175t163.5 -159q6 -6 17.5 -5t17.5 9q8 10 16.5 19.5t16.5 19.5t13.5 18.5t13.5 18.5l-2 26q-66 59 -126.5 118.5t-119.5 125.5q14 18 27.5 32.5t29.5 33.5q53 61 102.5 124.5t84.5 128.5q10 14 -5.5 23.5t-31.5 -0.5q-94 -80 -184.5 -163 t-178.5 -175q-10 -10 -2 -20zM360 793q70 -88 145 -171t157 -161q16 -10 32 2q16 18 33.5 34.5t34.5 32.5l2 27q-55 57 -113 113v-2q-37 37 -68.5 69.5t-66.5 69.5q10 16 31.5 39.5t44.5 52.5q27 33 56.5 69t53 67.5t39 58t15.5 39.5q0 4 -1 7t-10 11q-16 12 -32 2 q-90 -82 -179.5 -166t-173.5 -172q-14 -12 0 -22z" />
<glyph unicode="&#xac;" horiz-adv-x="2195" d="M68 618l16 -14q86 -4 173 -6t173 -2q6 0 12.5 5t6.5 13q0 6 -15.5 12.5t-35 13.5t-38 15.5t-24.5 18.5q-2 25 -3 50.5t-1 49.5q0 150 25.5 295t41.5 293q49 -86 95.5 -175t93.5 -178t98 -175t111 -166v-486q0 -41 -4.5 -66.5t-18.5 -42t-38.5 -26.5t-65.5 -20l-15 -15 l17 -12q123 -4 244.5 -7t244.5 -3q6 0 13.5 5t7.5 13q0 6 -14.5 12.5t-33 10.5t-36 7t-23.5 3q-51 10 -61 46t-10 81v555q57 -55 125.5 -134t144.5 -165t157.5 -170t166.5 -150.5t172.5 -108.5t171.5 -42q12 0 42.5 4t62.5 12t56.5 19.5t24.5 25.5q-4 10 -19 15 q-121 33 -222 94t-190 140t-171 168t-164 179q168 -12 340 -12q-18 -16 -46 -44t-32 -54l16 -17q33 -6 65 -11t64 -5l19 12q8 43 22.5 83t40.5 75q6 -18 15.5 -49t24 -61.5t33 -53t42.5 -22.5q16 0 29.5 11t23 26.5t16.5 33t11 29.5q-8 25 -26.5 40t-39 27.5t-40 26.5 t-29.5 37q45 2 90 6l90 8l16 21q-6 31 -17 64.5t-40 49.5l-27 -2q-25 -29 -57.5 -56.5t-69.5 -37.5q8 47 22.5 90t14.5 90q0 20 -6 43l-22 11q-35 -6 -67 -17.5t-60 -33.5l-4 -13q14 -41 29.5 -81t19.5 -85q-18 12 -41 29.5t-45.5 32t-47 25t-49.5 10.5q-4 0 -13 -3.5 t-15 -5.5l-8 -8q0 -59 3 -86.5t16 -36t41 -5.5t81 3q25 0 51 -10q-16 -16 -33.5 -30.5t-36.5 -28.5q-23 8 -45 12t-43.5 9t-41 15.5t-37.5 30.5q-14 18 -27.5 83t-25 141.5t-19.5 148.5t-10 102q45 45 94 93.5t101 89.5t110.5 71.5t126.5 44.5l14 15l-14 12q-98 8 -194.5 9 t-194.5 1l-19 -20q12 -23 12 -51q0 -33 -16 -62t-33 -55q-10 96 -18 199.5t-39 195.5q-2 4 -6 15.5t-12 11.5q-4 0 -11.5 -8.5t-15.5 -17.5t-13.5 -19.5t-7.5 -12.5q-94 -145 -175 -298.5t-158 -307.5q-2 63 -3 127t-1 127q0 59 34.5 93t89.5 44l15 15l-15 12 q-119 8 -237.5 10t-237.5 2l-16 -20q14 -27 41 -29t53.5 -6t46 -23.5t19.5 -81.5v-362l-37 66h2q-12 23 -45 83t-75 135.5t-89 157.5t-89 150.5t-76 114t-50 47.5l-19 -11q-4 -33 -14 -122t-24.5 -202.5t-29.5 -238.5t-29.5 -232.5t-27 -180t-18.5 -82.5 q-12 -16 -30.5 -21.5t-36 -7.5t-29.5 -5t-12 -14zM993 825q72 139 145.5 275.5t155.5 271.5q4 -55 13.5 -109.5t11.5 -109.5q-86 -78 -168 -159t-158 -169zM1159 827q47 45 92 91.5t86 95.5q10 -78 17.5 -154.5t7.5 -154.5q0 -20 -2 -41t-8 -41q-47 53 -93.5 105t-99.5 99z " />
<glyph unicode="&#xad;" horiz-adv-x="720" d="M41 590q-2 -10 8 -15.5t25 -3.5q63 25 135 39.5t143 26.5q59 10 118.5 20.5t115.5 26.5l2 35q-8 2 -46 4t-90.5 3t-111.5 2t-113 1h-90h-45q-6 0 -13 -3t-9 -7q-12 -35 -18.5 -66.5t-10.5 -62.5z" />
<glyph unicode="&#xae;" horiz-adv-x="1445" d="M51 764q0 -147 66.5 -268t174 -207t243 -133t272.5 -47q106 0 211.5 56t189.5 143t135.5 195t51.5 212q0 78 -12.5 162t-40 164.5t-73.5 153.5t-115 127t-163 87t-215 33q-68 0 -119 -19h2q-115 -35 -224 -93t-194 -141t-137.5 -189.5t-52.5 -235.5zM207 829 q0 123 45 215.5t121 156t177 95t216 31.5q109 0 200 -35t157.5 -98.5t103.5 -153t37 -200.5q0 -106 -33 -201.5t-92 -175.5q-29 35 -67 71.5t-77 73.5v-2q-35 33 -64.5 62.5t-62.5 66.5q41 49 72 105.5t31 122.5q0 47 -17.5 80.5t-48.5 55t-69.5 32t-81.5 10.5h-299 q-16 0 -21.5 -9.5t6.5 -19.5q10 -10 20.5 -14t22.5 -8h-2q14 -4 26.5 -11.5t12.5 -17.5v-574q0 -18 -10 -24t-25 -10h2q-20 -6 -45 -23q-16 -8 -10 -19.5t23 -11.5h266q16 0 23.5 8.5t-3.5 18.5q-10 14 -24.5 20.5t-30.5 12.5q-4 4 -10 4t-12 4q-6 49 -7.5 99t-1.5 98v38 q6 2 14.5 4.5t14.5 2.5q43 0 84 -47.5t84 -104.5q49 -66 99 -119t118 -57q-59 -59 -129 -106.5t-156 -49.5q-121 -2 -226 45t-183 130t-123 194t-45 235zM657 774v299q10 2 17.5 3t13.5 1q33 0 58.5 -15t43 -40t26.5 -56.5t9 -62.5q0 -53 -26.5 -97t-79.5 -44q-31 0 -62 12z " />
<glyph unicode="&#xaf;" horiz-adv-x="561" d="M27 1403q0 -18 24 -19h404q8 0 14 7q4 4 6 8t4 6h-2q8 12 15.5 27.5t7.5 27.5l-25 19h-412q-14 0 -20 -11q-16 -33 -16 -65z" />
<glyph unicode="&#xb0;" horiz-adv-x="663" d="M43 1231q0 -59 22.5 -110.5t61.5 -91.5t93 -62.5t118 -22.5q51 0 102.5 19.5t91 55.5t64.5 86.5t25 111.5q0 84 -31 141t-75 92t-95 50.5t-90 15.5q-59 0 -111.5 -24t-91.5 -62.5t-61.5 -91t-22.5 -107.5zM152 1212q0 92 52 147.5t130 55.5l201 -170q-23 0 -23 -18 q0 -39 -14.5 -72t-40 -57.5t-58 -39t-69.5 -14.5t-69 14.5t-56.5 38t-38.5 53.5t-14 62z" />
<glyph unicode="&#xb2;" horiz-adv-x="739" />
<glyph unicode="&#xb3;" horiz-adv-x="739" />
<glyph unicode="&#xb4;" horiz-adv-x="462" d="M42 1506.5q7 -15.5 28 -11.5q6 2 13 3t17 7l-2 -2q66 23 140.5 46.5t134.5 19.5l24 -2q12 -2 20.5 4t6.5 16q-2 14 -7 33.5t-14.5 37t-26 29t-42.5 11.5q-37 0 -90.5 -35t-102.5 -72q-27 -20 -50 -36.5t-40 -26.5q-16 -6 -9 -21.5z" />
<glyph unicode="&#xb6;" horiz-adv-x="1067" d="M47 995q0 -90 33 -172t92 -145.5t140 -102t180 -45.5v-878h-117q-25 0 -25 -19v-57q0 -18 25 -18h618q25 0 25 18v57q0 18 -25 19q-8 0 -14 -1t-10 -1h-88v1730h114q25 1 25 17v53q0 16 -25 16h-366q-68 0 -128.5 -2t-115.5 -14t-105.5 -41t-99.5 -80 q-66 -68 -99.5 -152.5t-33.5 -181.5zM610 -348v1730h152l-2 -1730h-150z" />
<glyph unicode="&#xb7;" horiz-adv-x="292" d="M37 793q0 -39 25.5 -79t72.5 -40q20 0 42 8t39 22.5t28.5 34t11.5 39.5q0 41 -34 79t-81 38q-49 0 -76.5 -30.5t-27.5 -71.5z" />
<glyph unicode="&#xb8;" horiz-adv-x="389" d="M39 -226.5q-4 -13.5 14 -19.5q18 -10 39 -13t39 -3q39 0 79 17.5t70.5 47t50 66.5t19.5 76q0 59 -40 84.5t-93 27.5l78 78q12 10 6 20.5t-22 10.5h-9q-4 0 -5 1t-5 1q-41 0 -73.5 -26.5t-61.5 -55.5q-16 -16 -29.5 -28.5t-27.5 -22.5q-16 -8 -11.5 -20.5t21.5 -12.5 q47 -2 82 -29.5t35 -78.5t-35 -81t-84 -28l-13 2q-20 0 -24 -13.5z" />
<glyph unicode="&#xb9;" horiz-adv-x="739" />
<glyph unicode="&#xba;" horiz-adv-x="770" d="M43 1106q0 -59 20.5 -117.5t58.5 -105.5t91 -76t119 -29q29 0 48 5t38 12q8 4 16 5t19 5h-2q61 14 111 34.5t87 52.5t57.5 80t20.5 120q0 68 -24.5 129t-68.5 109t-104.5 76t-130.5 28q-74 0 -138 -25t-112.5 -68t-77 -103t-28.5 -132zM190 1143q0 92 50.5 152.5 t140.5 60.5q45 0 81 -21.5t59.5 -56.5t35.5 -79t12 -87q0 -33 -10 -75t-30.5 -78.5t-48 -62.5t-64.5 -26q-53 0 -95 24t-71 62.5t-44.5 88t-15.5 98.5z" />
<glyph unicode="&#xbb;" horiz-adv-x="813" d="M49 1057l64.5 -64.5t66.5 -64.5q31 -31 59.5 -60.5t57.5 -58.5q-10 -16 -28.5 -37.5t-41.5 -48.5q-29 -35 -58.5 -72t-54 -70.5t-41 -60t-16.5 -39.5q0 -6 13 -18q16 -12 32 0q10 10 21.5 19.5t21.5 19.5v-2q78 72 158 146.5t148 152.5v22q-66 84 -138.5 166t-158.5 164 q-16 12 -31 2l-35 -35l-37 -37q-12 -10 -2 -24zM358 1071q-10 -14 4 -24q66 -59 126.5 -119t119.5 -123q-4 -8 -10 -13.5t-16 -19.5q-29 -33 -65 -76t-69.5 -85t-57 -78.5t-25.5 -55.5q-4 -14 10 -20t28 4q92 80 183.5 163t175.5 175v22q-70 90 -146.5 172t-160.5 160 q-8 6 -18.5 5t-16.5 -9q-8 -10 -15.5 -19.5t-15.5 -19.5l2 2q-8 -10 -17 -20.5t-16 -20.5z" />
<glyph unicode="&#xbf;" horiz-adv-x="749" d="M43 360q0 -57 33 -106t83 -85t108.5 -56.5t109.5 -20.5q45 0 102.5 13.5t107.5 40t85 67.5t35 98q0 31 -12.5 61.5t-30.5 59.5l-43 -10q2 -39 -16.5 -81t-48.5 -77t-67.5 -57.5t-74.5 -22.5q-35 0 -67 21.5t-56.5 54.5t-39.5 72t-15 74q0 49 22.5 103t56 109.5 t72.5 107.5t72 95q37 47 61.5 80t24.5 51q0 20 -15.5 47t-37 53.5t-46 47t-43.5 26.5q-16 4 -27 -6t-1 -20q25 -35 24 -76q0 -70 -52 -146.5t-116 -158.5l2 2q-37 -45 -70.5 -91t-60 -91t-43 -90.5t-16.5 -88.5zM309 1329q0 -18 7.5 -37.5t19.5 -36t30.5 -27.5t41.5 -11 q14 0 34 8q74 16 74 86q0 41 -28.5 78.5t-75.5 37.5t-75 -29.5t-28 -68.5z" />
<glyph unicode="&#xc0;" horiz-adv-x="1400" d="M52.5 163.5q-3.5 -16.5 17.5 -20.5q41 -10 84 -13t90 -3q51 0 101 2t101 6q20 2 21 19q0 16 -21 16q-61 6 -61 76q0 45 17.5 98t39.5 100q20 43 37 85t23 83h325q8 -23 19.5 -48t27.5 -62q16 -41 35 -85t34 -86t24.5 -79t9.5 -62q0 -18 -6 -24q-16 -8 -10 -20.5t22 -12.5 q41 0 87 -1t85 -3q43 -2 86 -2h84l10 35q-8 4 -24.5 9t-26.5 9q-31 10 -56.5 22.5t-41.5 41.5q-78 141 -141.5 301t-116.5 309q-51 143 -106.5 288.5t-121.5 272.5q-8 10 -24 10q-14 0 -21 -12q-35 -96 -69.5 -190.5t-69.5 -190.5q-41 -111 -83 -230.5t-85 -230.5 q-6 -16 -14 -37.5t-15 -37.5q-27 -66 -52 -131.5t-58 -126.5q-18 -33 -37.5 -48.5t-54.5 -13.5l-41 2q-20 2 -23.5 -14.5zM408 1626q2 -8 12 -12q86 -35 179 -70t192 -45l12 33q-20 10 -45 28.5t-47 36.5q-45 35 -95.5 67t-97.5 32q-68 0 -104 -54q-8 -8 -6 -16zM528 709 q14 35 20.5 60.5t18.5 61.5q23 70 43.5 131.5t48.5 131.5q6 -23 15 -41q29 -86 58.5 -172t60.5 -172h-265z" />
<glyph unicode="&#xc1;" horiz-adv-x="1400" d="M52.5 163.5q-3.5 -16.5 17.5 -20.5q41 -10 84 -13t90 -3q51 0 101 2t101 6q20 2 21 19q0 16 -21 16q-61 6 -61 76q0 45 17.5 98t39.5 100q20 43 37 85t23 83h325q8 -23 19.5 -48t27.5 -62q16 -41 35 -85t34 -86t24.5 -79t9.5 -62q0 -18 -6 -24q-16 -8 -10 -20.5t22 -12.5 q41 0 87 -1t85 -3q43 -2 86 -2h84l10 35q-8 4 -24.5 9t-26.5 9q-31 10 -56.5 22.5t-41.5 41.5q-78 141 -141.5 301t-116.5 309q-51 143 -106.5 288.5t-121.5 272.5q-8 10 -24 10q-14 0 -21 -12q-35 -96 -69.5 -190.5t-69.5 -190.5q-41 -111 -83 -230.5t-85 -230.5 q-6 -16 -14 -37.5t-15 -37.5q-27 -66 -52 -131.5t-58 -126.5q-18 -33 -37.5 -48.5t-54.5 -13.5l-41 2q-20 2 -23.5 -14.5zM528 709q14 35 20.5 60.5t18.5 61.5q23 70 43.5 131.5t48.5 131.5q6 -23 15 -41q29 -86 58.5 -172t60.5 -172h-265zM592 1505.5q10 -14.5 29 -10.5 q68 25 148.5 52.5t152.5 21.5l22 -2q27 0 27 20q-2 14 -7.5 33.5t-15.5 37t-25.5 29t-39.5 11.5q-37 0 -91.5 -36t-105.5 -75q-25 -18 -46.5 -34.5t-39.5 -26.5q-18 -6 -8 -20.5z" />
<glyph unicode="&#xc2;" horiz-adv-x="1400" d="M52.5 163.5q-3.5 -16.5 17.5 -20.5q41 -10 84 -13t90 -3q51 0 101 2t101 6q20 2 21 19q0 16 -21 16q-61 6 -61 76q0 45 17.5 98t39.5 100q20 43 37 85t23 83h325q8 -23 19.5 -48t27.5 -62q16 -41 35 -85t34 -86t24.5 -79t9.5 -62q0 -18 -6 -24q-16 -8 -10 -20.5t22 -12.5 q41 0 87 -1t85 -3q43 -2 86 -2h84l10 35q-8 4 -24.5 9t-26.5 9q-31 10 -56.5 22.5t-41.5 41.5q-78 141 -141.5 301t-116.5 309q-51 143 -106.5 288.5t-121.5 272.5q-8 10 -24 10q-14 0 -21 -12q-35 -96 -69.5 -190.5t-69.5 -190.5q-41 -111 -83 -230.5t-85 -230.5 q-6 -16 -14 -37.5t-15 -37.5q-27 -66 -52 -131.5t-58 -126.5q-18 -33 -37.5 -48.5t-54.5 -13.5l-41 2q-20 2 -23.5 -14.5zM465 1509q-12 -12 1 -23t30 -3q49 33 102 62.5t109 29.5q43 0 73.5 -27.5t50.5 -68.5q6 -10 17.5 -11.5t21.5 5.5q16 16 34 34.5t28 34.5l-8 23 q-55 43 -109.5 83t-109.5 74q-12 6 -29 -2q-55 -47 -109.5 -99t-101.5 -112zM528 709q14 35 20.5 60.5t18.5 61.5q23 70 43.5 131.5t48.5 131.5q6 -23 15 -41q29 -86 58.5 -172t60.5 -172h-265z" />
<glyph unicode="&#xc3;" horiz-adv-x="1400" d="M52.5 163.5q-3.5 -16.5 17.5 -20.5q41 -10 84 -13t90 -3q51 0 101 2t101 6q20 2 21 19q0 16 -21 16q-61 6 -61 76q0 45 17.5 98t39.5 100q20 43 37 85t23 83h325q8 -23 19.5 -48t27.5 -62q16 -41 35 -85t34 -86t24.5 -79t9.5 -62q0 -18 -6 -24q-16 -8 -10 -20.5t22 -12.5 q41 0 87 -1t85 -3q43 -2 86 -2h84l10 35q-8 4 -24.5 9t-26.5 9q-31 10 -56.5 22.5t-41.5 41.5q-78 141 -141.5 301t-116.5 309q-51 143 -106.5 288.5t-121.5 272.5q-8 10 -24 10q-14 0 -21 -12q-35 -96 -69.5 -190.5t-69.5 -190.5q-41 -111 -83 -230.5t-85 -230.5 q-6 -16 -14 -37.5t-15 -37.5q-27 -66 -52 -131.5t-58 -126.5q-18 -33 -37.5 -48.5t-54.5 -13.5l-41 2q-20 2 -23.5 -14.5zM420 1524q-4 -14 13.5 -21.5t29.5 4.5q20 29 46 48.5t58 19.5q29 0 60.5 -12.5t60.5 -28.5q33 -16 64.5 -27.5t66.5 -11.5q33 0 58.5 14.5t44 36 t30 48t19.5 51.5l-39 18q-23 -27 -47.5 -43t-55.5 -16q-29 0 -59.5 11t-58.5 25q-33 16 -66 27.5t-67 11.5q-35 0 -60.5 -14t-44 -36.5t-32 -50.5t-21.5 -54zM528 709q14 35 20.5 60.5t18.5 61.5q23 70 43.5 131.5t48.5 131.5q6 -23 15 -41q29 -86 58.5 -172t60.5 -172h-265 z" />
<glyph unicode="&#xc4;" horiz-adv-x="1568" d="M37 12q2 -4 6 -8l4 -4l426 -2q20 0 21.5 15.5t-19.5 19.5q-31 4 -62.5 15t-31.5 46q0 27 17.5 93.5t42 141t50 145.5t41.5 108h404q47 -129 97 -258l100 -258l-72 -37q-12 -10 -6 -18.5t22 -10.5q43 -4 106.5 -2t108.5 2q61 0 121 -1t119 3v37q-59 4 -111.5 28.5 t-81.5 84.5q-43 92 -87 195.5t-87 212t-83 215t-76 204.5q-27 72 -56.5 139.5t-54.5 132.5q-4 8 -7 20.5t-11 24.5q-12 31 -32 74t-38.5 82t-31.5 66l-13 28l-14 -1q-15 -1 -19 -9q-76 -199 -149.5 -395.5t-145.5 -395.5q-49 -135 -97 -277t-101 -278q-10 -25 -28 -52 t-41.5 -51t-49 -39t-51.5 -15q-2 0 -11.5 1t-13.5 -5q-8 -8 -4 -17zM498 1593q0 -43 37.5 -72.5t78.5 -29.5l9 2q27 10 43 29.5t16 46.5q0 35 -27.5 69.5t-68.5 34.5q-31 0 -59.5 -25.5t-28.5 -54.5zM565 690q45 129 83 247t79 247l168 -494h-330zM831 1593q0 -43 38 -72.5 t79 -29.5l6 2q62 19 62 76q0 35 -27.5 69.5t-68.5 34.5q-33 0 -61 -25.5t-28 -54.5z" />
<glyph unicode="&#xc5;" horiz-adv-x="1560" d="M37 12q2 -4 6 -8l4 -4l426 -2q20 0 21.5 15.5t-19.5 19.5q-31 4 -62.5 15t-31.5 46q0 27 17.5 93.5t42 141t50 145.5t41.5 108h404q47 -129 97 -258l100 -258l-72 -37q-12 -10 -6 -18.5t22 -10.5q43 -4 106.5 -2t108.5 2q61 0 121 -1t119 3v37q-59 4 -111.5 28.5 t-81.5 84.5q-43 92 -87 195.5t-87 212t-83 215t-76 204.5q-27 72 -56.5 139.5t-54.5 132.5q-4 8 -7 20.5t-11 24.5q-23 61 -50.5 132t-60.5 112l12 6q29 2 58.5 11.5t53 25.5t39 42t15.5 61q0 59 -45 96t-104 37q-37 0 -75 -13.5t-68.5 -37t-50 -57.5t-19.5 -75 q0 -25 13 -44t34.5 -32.5t48.5 -19.5t51 -6q-76 -199 -149.5 -394.5t-145.5 -394.5q-49 -135 -97 -277t-101 -278q-10 -25 -28 -52t-41.5 -51t-49 -39t-51.5 -15q-2 0 -11.5 1t-13.5 -5q-8 -8 -4 -17zM565 690q45 129 83 247t79 247l168 -494h-330zM698 1681q0 27 18.5 43.5 t41.5 16.5q27 0 44 -22.5t17 -51.5q0 -16 -13 -36.5t-30 -20.5q-29 0 -53.5 20.5t-24.5 50.5z" />
<glyph unicode="&#xc6;" horiz-adv-x="1667" d="M55.5 148.5q3.5 -13.5 22.5 -13.5h444q18 0 21.5 16.5t-15.5 18.5q-35 8 -65.5 27.5t-30.5 58.5q0 49 41 112.5t90 131.5q37 51 71 101t52 93h279v-377q0 -20 -2 -44.5t-9.5 -46t-19.5 -36t-33 -14.5h-18q-18 0 -19 -18q0 -16 19 -17q63 -2 124.5 -3t125.5 -5 q88 -4 173 -7t173 -3q37 0 58.5 13.5t30.5 36t12 50t3 56.5q0 42 8 73l-47 8q-20 -74 -71.5 -112.5t-122.5 -38.5q-51 0 -109.5 22.5t-89.5 67.5v391q25 0 48.5 1t49.5 3q16 2 31 2h33q39 0 62.5 -8t37.5 -19.5t20.5 -25.5t10.5 -27l-2 2q4 -12 10 -22t16 -18q12 -6 24.5 -2 t12.5 16q0 47 6.5 93t12.5 93q2 10 2 17q0 8 2 16q4 12 -8.5 18.5t-26.5 -0.5q-16 -10 -49 -25.5t-47 -15.5h-246v515q23 0 43 1t43 3q16 2 31.5 3t29.5 1q33 0 63 -5.5t52.5 -19.5t34.5 -37.5t12 -62.5q0 -10 10.5 -16.5t22.5 -2.5q18 6 29.5 38t17.5 71t8 73.5t2 47.5 q0 10 -10 16t-22 2q-37 -12 -93.5 -16t-117.5 -4q-45 0 -90.5 1t-86.5 3h3q-33 2 -64 2h-53q-18 0 -40 -18.5t-40 -42t-33.5 -47t-21.5 -33.5q-29 -47 -59.5 -100.5t-65.5 -112.5q-72 -123 -152 -257.5t-167 -256t-180 -219t-189 -144.5q-16 -8 -12.5 -21.5zM733 791 q14 23 21.5 33t21.5 34v-2q45 78 91 153.5t94 149.5v-368h-228z" />
<glyph unicode="&#xc7;" horiz-adv-x="1265" d="M31 702q0 -145 42 -264t116.5 -208t178 -146t228.5 -80q-59 -47 -102 -100q-12 -10 -5 -21.5t23 -13.5q49 0 85 -31t36 -90t-36 -94t-85 -31l-14 2q-20 0 -24.5 -15.5t13.5 -23.5q18 -10 39 -14t41 -4q41 0 81 20.5t73 54t52.5 75.5t19.5 87q0 68 -39 98.5t-92 33.5 l51 61q37 -10 75.5 -11t71.5 -1q29 0 87.5 3t117.5 17t103 45t44 86q0 16 -1 30.5t-1 31.5q-2 41 9.5 83t21.5 87l-49 12q-55 -129 -152.5 -202t-222.5 -73q-129 0 -236.5 60.5t-184.5 160t-118.5 228.5t-41.5 266q0 135 36.5 246t105 188.5t167 120.5t219.5 43 q147 0 252.5 -86t132.5 -256q4 -14 21.5 -16t25.5 12q29 70 34 139.5t5 139.5v88q0 14 -25 18q-45 4 -89 10.5t-91 14.5q-59 10 -127.5 19t-130.5 9q-55 0 -118.5 -7t-129 -25.5t-130 -50t-124.5 -80.5q-76 -66 -123 -142t-72.5 -158.5t-34.5 -169.5t-9 -176z" />
<glyph unicode="&#xc8;" horiz-adv-x="868" d="M45.5 1388.5q-6.5 -12.5 9.5 -20.5q18 -12 36 -17l36 -10q23 -6 40 -18t17 -53v-953q0 -57 -16 -101t-78 -46q-18 0 -19 -16.5t17 -18.5q68 -6 138.5 -8t146.5 -2h90t88 2q35 0 64.5 1t62.5 1h59q31 0 60 -2l6 37q-4 0 -5 1t-5 1q10 27 13 53.5t5 52.5q0 18 2 41t6 39 l-47 8q-16 -76 -69.5 -114.5t-124.5 -38.5q-55 0 -115 25.5t-90 72.5v455h24h62q39 0 76.5 -2t68.5 -8.5t41 -16.5q8 -6 13.5 -20.5t9.5 -30.5l-2 2q6 -29 28 -51q10 -10 23.5 -6t15.5 16q4 29 8 60.5t8.5 60.5t7.5 57.5t7 57.5q4 18 -23 18q-12 -4 -33.5 -11t-31.5 -12 q-18 -8 -33.5 -14t-24.5 -6h-245v449h37q16 0 32.5 1t30.5 1q16 0 30.5 1t31.5 1q70 0 114.5 -23.5t48.5 -99.5q2 -12 14.5 -16.5t24.5 6.5q25 25 33 79t12 101q2 10 3 22.5t1 16.5q4 12 -6 19t-26 1q-29 -10 -111 -14t-184 -4q-66 0 -140.5 1t-130.5 3q-39 2 -69 2h-49 t-24.5 -12.5zM162 1626q2 -8 14 -12q90 -35 181.5 -70t189.5 -45l10 33q-18 10 -43 28.5t-47 36.5q-47 35 -94 67t-97 32q-70 0 -108 -54q-8 -8 -6 -16zM733 897h8q8 4 9 4z" />
<glyph unicode="&#xc9;" horiz-adv-x="946" d="M8 1487q-6 -14 12 -25q23 -14 42.5 -19t41.5 -11q27 -6 46.5 -20.5t19.5 -63.5v-1129q0 -33 -4 -63.5t-15.5 -54t-33 -39t-56.5 -15.5q-23 0 -24.5 -18.5t20.5 -20.5q80 -8 162 -10t170 -2h105q53 0 102 2q41 0 76 1t73 1h68q35 0 70 -2q6 37 10 84t6 86q2 23 3 47.5 t7 44.5l-55 10q-20 -88 -81.5 -134t-143.5 -46q-33 0 -68 7t-66.5 22.5t-59 36t-46.5 49.5v551h29h71q45 0 89.5 -3t80 -10.5t48.5 -19.5q10 -6 15 -23.5t11 -35.5l-2 4q4 -16 10.5 -31.5t22.5 -30.5q12 -10 27.5 -6t17.5 18q4 33 9 71t9 71q6 35 10.5 66.5t8.5 66.5 q2 10 -6.5 16t-20.5 6q-16 -6 -39.5 -14t-38.5 -12q-20 -10 -37.5 -17.5t-27.5 -7.5h-287v522h43q18 0 37.5 1.5t36.5 1.5q18 2 37 2h35q82 0 133 -27t57 -115q2 -16 16.5 -19t28.5 7q14 14 23.5 37.5t14.5 53.5t8 60.5t7 57.5q4 10 4 24v21q4 16 -8 23.5t-28 1.5 q-33 -12 -129.5 -17.5t-215.5 -5.5q-76 0 -162.5 1t-152.5 5q-45 2 -80 2h-57q-23 0 -29 -14zM335 1601.5q11 -16.5 34 -12.5q39 14 83 30.5t89 31t90 21.5t88 3l29 -2q14 -2 23 6.5t7 18.5q-4 18 -9 39.5t-16.5 42t-29.5 34t-49 13.5q-23 0 -49.5 -12.5t-57 -31t-62.5 -41 t-60.5 -45t-53 -42t-47.5 -29.5q-20 -8 -9 -24.5zM809 915h10q10 4 8 5z" />
<glyph unicode="&#xca;" horiz-adv-x="868" d="M45.5 1388.5q-6.5 -12.5 9.5 -20.5q18 -12 36 -17l36 -10q23 -6 40 -18t17 -53v-953q0 -57 -16 -101t-78 -46q-18 0 -19 -16.5t17 -18.5q68 -6 138.5 -8t146.5 -2h90t88 2q35 0 64.5 1t62.5 1h59q31 0 60 -2l6 37q-4 0 -5 1t-5 1q10 27 13 53.5t5 52.5q0 18 2 41t6 39 l-47 8q-16 -76 -69.5 -114.5t-124.5 -38.5q-55 0 -115 25.5t-90 72.5v455h24h62q39 0 76.5 -2t68.5 -8.5t41 -16.5q8 -6 13.5 -20.5t9.5 -30.5l-2 2q6 -29 28 -51q10 -10 23.5 -6t15.5 16q4 29 8 60.5t8.5 60.5t7.5 57.5t7 57.5q4 18 -23 18q-12 -4 -33.5 -11t-31.5 -12 q-18 -8 -33.5 -14t-24.5 -6h-245v449h37q16 0 32.5 1t30.5 1q16 0 30.5 1t31.5 1q70 0 114.5 -23.5t48.5 -99.5q2 -12 14.5 -16.5t24.5 6.5q25 25 33 79t12 101q2 10 3 22.5t1 16.5q4 12 -6 19t-26 1q-29 -10 -111 -14t-184 -4q-66 0 -140.5 1t-130.5 3q-39 2 -69 2h-49 t-24.5 -12.5zM184 1509q-12 -12 2.5 -23t30.5 -3q47 33 100.5 62.5t108.5 29.5q43 0 73.5 -27.5t51.5 -68.5q6 -10 17.5 -11.5t21.5 7.5l8 8v-2q31 26 51 61l-6 23q-55 43 -109.5 83t-109.5 74q-12 6 -29 -2q-55 -47 -109.5 -99t-101.5 -112zM733 897h8q8 4 9 4z" />
<glyph unicode="&#xcb;" horiz-adv-x="868" d="M45.5 1388.5q-6.5 -12.5 9.5 -20.5q18 -12 36 -17l36 -10q23 -6 40 -18t17 -53v-953q0 -57 -16 -101t-78 -46q-18 0 -19 -16.5t17 -18.5q68 -6 138.5 -8t146.5 -2h90t88 2q35 0 64.5 1t62.5 1h59q31 0 60 -2l6 37q-4 0 -5 1t-5 1q10 27 13 53.5t5 52.5q0 18 2 41t6 39 l-47 8q-16 -76 -69.5 -114.5t-124.5 -38.5q-55 0 -115 25.5t-90 72.5v455h24h62q39 0 76.5 -2t68.5 -8.5t41 -16.5q8 -6 13.5 -20.5t9.5 -30.5l-2 2q6 -29 28 -51q10 -10 23.5 -6t15.5 16q4 29 8 60.5t8.5 60.5t7.5 57.5t7 57.5q4 18 -23 18q-12 -4 -33.5 -11t-31.5 -12 q-18 -8 -33.5 -14t-24.5 -6h-245v449h37q16 0 32.5 1t30.5 1q16 0 30.5 1t31.5 1q70 0 114.5 -23.5t48.5 -99.5q2 -12 14.5 -16.5t24.5 6.5q25 25 33 79t12 101q2 10 3 22.5t1 16.5q4 12 -6 19t-26 1q-29 -10 -111 -14t-184 -4q-66 0 -140.5 1t-130.5 3q-39 2 -69 2h-49 t-24.5 -12.5zM186 1593q0 -43 38 -72.5t79 -29.5l8 2q27 10 43.5 29.5t16.5 46.5q0 35 -28 69.5t-69 34.5q-33 0 -60.5 -25.5t-27.5 -54.5zM518 1593q0 -43 38 -72.5t77 -29.5l8 2q27 10 45.5 29.5t18.5 46.5q0 35 -29 69.5t-70 34.5q-33 0 -60.5 -25.5t-27.5 -54.5z M733 897h8q8 4 9 4z" />
<glyph unicode="&#xcc;" horiz-adv-x="618" d="M41 1626q2 -8 14 -12q86 -35 178.5 -70t190.5 -45l12 33q-18 10 -42.5 28.5t-49.5 36.5q-45 35 -94 67t-96 32q-68 0 -107 -54q-8 -8 -6 -16zM110 1373.5q-1 -15.5 17 -17.5q43 -6 74.5 -26.5t31.5 -67.5v-945q0 -16 -3 -41.5t-9 -49t-17 -40t-30 -16.5q-14 0 -27 6 q-18 6 -27 -8t7 -23q14 -8 40 -12t53.5 -6t51.5 -2h43h88q37 0 74 1t76 -1l16 31q-16 16 -34.5 18t-38.5 2q-27 0 -41 10q-6 2 -11.5 20.5t-10.5 42t-8 44t-3 31.5v940q0 53 27.5 68.5t70.5 23.5q20 4 19.5 18.5t-21.5 16.5q-96 6 -192 6q-47 0 -98.5 -1t-98.5 -5 q-18 -2 -19 -17.5z" />
<glyph unicode="&#xcd;" horiz-adv-x="581" d="M42 1374.5q-1 -14.5 19 -18.5q43 -4 75 -25.5t32 -68.5v-945q0 -16 -3 -41.5t-9 -49t-17.5 -40t-29.5 -16.5q-6 0 -27 8q-18 4 -28.5 -10t7.5 -23q14 -8 39 -12t52.5 -6t54.5 -2h43h88q39 0 75 1t74 -1l15 31q-16 16 -33.5 18t-40.5 2t-39 10q-4 6 -10 24.5t-11.5 40 t-8.5 42t-3 31.5v940q0 53 28 68.5t71 23.5q20 4 19 18.5t-21 16.5q-96 6 -195 6q-96 0 -195 -6q-20 -2 -21 -16.5zM162 1504.5q10 -15.5 26 -9.5q33 12 72 25.5t78 26t78 18.5t73 4l25 -2q12 -2 20.5 4t6.5 16q-2 14 -7.5 33.5t-14.5 37t-25.5 29t-42.5 11.5 q-35 0 -90.5 -36t-106.5 -75q-23 -18 -45.5 -34.5t-38.5 -26.5q-18 -6 -8 -21.5z" />
<glyph unicode="&#xce;" horiz-adv-x="565" d="M47 1509q-12 -12 2 -23t31 -3q47 33 100 62.5t109 29.5q43 0 73.5 -27.5t51.5 -68.5q6 -10 17 -11.5t22 7.5l8 8v-2q12 12 26.5 28.5t24.5 32.5l-6 23q-55 43 -109.5 83t-109.5 74q-12 6 -29 -2q-55 -47 -109.5 -99t-101.5 -112zM56.5 1374.5q-1.5 -14.5 19.5 -18.5 q41 -4 72.5 -24.5t31.5 -69.5v-945q0 -16 -3 -41.5t-9 -49t-17.5 -40t-29.5 -16.5q-14 0 -27 6q-16 6 -26.5 -8t8.5 -23q23 -10 65.5 -15t79.5 -5h129q37 0 75 1t75 -1l16 33q-14 12 -34.5 15t-41.5 5q-10 2 -21 3t-22 7q-4 2 -9 20.5t-9 41t-7 44t-3 30.5v940q0 27 7 43 t20.5 25t30.5 14.5t40 9.5q18 4 17 18.5t-19 16.5q-96 6 -193 6q-100 0 -194 -6q-20 -2 -21.5 -16.5z" />
<glyph unicode="&#xcf;" horiz-adv-x="591" d="M41 1593q0 -43 37 -72.5t78 -29.5l8 2q25 10 43 29.5t18 46.5q0 35 -28.5 69.5t-69.5 34.5q-31 0 -58.5 -25.5t-27.5 -54.5zM77 1374.5q-1 -14.5 19 -18.5q43 -4 74 -25.5t31 -68.5v-945q0 -16 -3 -41.5t-9.5 -49t-17.5 -40t-30 -16.5q-10 0 -22 4q-16 6 -26.5 -8 t5.5 -23q20 -10 63.5 -14t80.5 -4h129q37 0 74.5 1t74.5 -1l17 31q-14 12 -35 16t-39 6q-10 2 -21.5 3t-21.5 7q-4 2 -9 20.5t-9.5 41t-7.5 44t-3 30.5v940q0 27 7.5 43t19.5 25t30.5 14.5t40.5 9.5q18 4 17.5 18.5t-19.5 16.5q-98 6 -194 6t-197 -6q-18 -2 -19 -16.5z M367 1593q0 -43 36.5 -72.5t77.5 -29.5l8 2q25 10 43.5 29.5t18.5 46.5q0 35 -28.5 69.5t-69.5 34.5q-31 0 -58.5 -25.5t-27.5 -54.5z" />
<glyph unicode="&#xd0;" horiz-adv-x="739" />
<glyph unicode="&#xd1;" horiz-adv-x="1646" d="M13.5 24.5q-3.5 -14.5 15.5 -18.5q49 -10 104 -3t109 5l260 -6q16 0 22 11.5t-8 19.5q-23 14 -44 21t-42 12q-18 4 -36.5 11t-32 23.5t-21.5 45t-8 77.5q0 102 -4 203.5t-9 206.5q-4 100 -8 200.5t-4 202.5q0 53 6 113q37 -41 61.5 -67.5t59.5 -67.5q117 -129 238 -263.5 t244.5 -266.5t251.5 -257t259 -235q12 -8 25.5 -4t15.5 16q27 340 24 682t-3 684q0 35 31.5 47.5t64.5 22.5q6 2 13.5 8t13.5 8l-4 35q-74 4 -148 3t-145 -1h-148q-16 0 -21 -10t7 -19q10 -12 27.5 -16t40.5 -8q18 -4 36.5 -8.5t34 -17.5t25.5 -39.5t10 -74.5q0 -225 7 -448 t7 -449q0 -16 -1 -31.5t-1 -31.5q-541 596 -1108 1176q-16 12 -32 0q-12 -12 -20.5 -23.5t-8.5 -28.5v-1290q0 -51 -29.5 -83t-77.5 -42l-28 -6q-18 -4 -21.5 -18.5zM543 1524q-6 -14 13 -21.5t30 4.5q18 29 44.5 48.5t57.5 19.5t61.5 -12.5t61.5 -28.5t63.5 -27.5 t67.5 -11.5q33 0 57.5 14.5t42 36t30 48t20.5 51.5l-39 18q-23 -27 -47.5 -43t-53.5 -16q-31 0 -61.5 11t-61.5 25q-31 16 -63.5 27.5t-67.5 11.5q-37 0 -62.5 -14t-43 -36.5t-29.5 -50.5t-20 -54z" />
<glyph unicode="&#xd2;" horiz-adv-x="1441" d="M51 672q0 -104 61.5 -209t155.5 -187.5t206 -134t214 -51.5q29 0 57.5 4t57.5 15q55 2 113.5 19t113.5 46t104.5 65.5t86.5 77.5q57 63 91 129t51 135.5t22.5 143.5t5.5 158q0 72 -30 142.5t-81 132t-117.5 113.5t-140.5 90t-148.5 59.5t-142.5 21.5q-41 0 -82 -10 q-166 -37 -280.5 -98.5t-185 -154t-101.5 -217t-31 -290.5zM242 862q0 109 34.5 197t97 151.5t150.5 97t195 33.5q113 0 201 -45t148 -119.5t92 -174t32 -205.5q0 -98 -25.5 -191.5t-76 -173.5t-123 -140.5t-166.5 -94.5q-123 14 -225.5 73.5t-177 149.5t-115.5 204.5 t-41 237.5zM436 1626q2 -8 13 -12q90 -35 181 -70t189 -45l12 33q-20 10 -44.5 28.5t-47.5 36.5q-45 35 -93 67t-97 32q-70 0 -107 -54q-8 -8 -6 -16z" />
<glyph unicode="&#xd3;" horiz-adv-x="1441" d="M51 672q0 -104 61.5 -209t155.5 -187.5t206 -134t214 -51.5q29 0 57.5 4t57.5 15q55 2 113.5 19t113.5 46t104.5 65.5t86.5 77.5q57 63 91 129t51 135.5t22.5 143.5t5.5 158q0 72 -30 142.5t-81 132t-117.5 113.5t-140.5 90t-148.5 59.5t-142.5 21.5q-41 0 -82 -10 q-166 -37 -280.5 -98.5t-185 -154t-101.5 -217t-31 -290.5zM242 862q0 109 34.5 197t97 151.5t150.5 97t195 33.5q113 0 201 -45t148 -119.5t92 -174t32 -205.5q0 -98 -25.5 -191.5t-76 -173.5t-123 -140.5t-166.5 -94.5q-123 14 -225.5 73.5t-177 149.5t-115.5 204.5 t-41 237.5zM621 1505.5q10 -14.5 28 -10.5q68 25 149 52.5t152 21.5l25 -2q12 -2 19 4t5 16q-2 14 -6 33.5t-13 37t-25.5 29t-43.5 11.5q-37 0 -91 -36t-105 -75q-25 -18 -46.5 -34.5t-39.5 -26.5q-18 -6 -8 -20.5z" />
<glyph unicode="&#xd4;" horiz-adv-x="1441" d="M51 672q0 -104 61.5 -209t155.5 -187.5t206 -134t214 -51.5q29 0 57.5 4t57.5 15q55 2 113.5 19t113.5 46t104.5 65.5t86.5 77.5q57 63 91 129t51 135.5t22.5 143.5t5.5 158q0 72 -30 142.5t-81 132t-117.5 113.5t-140.5 90t-148.5 59.5t-142.5 21.5q-41 0 -82 -10 q-166 -37 -280.5 -98.5t-185 -154t-101.5 -217t-31 -290.5zM242 862q0 109 34.5 197t97 151.5t150.5 97t195 33.5q113 0 201 -45t148 -119.5t92 -174t32 -205.5q0 -98 -25.5 -191.5t-76 -173.5t-123 -140.5t-166.5 -94.5q-123 14 -225.5 73.5t-177 149.5t-115.5 204.5 t-41 237.5zM487 1509q-12 -12 2.5 -23t30.5 -3q47 33 100.5 62.5t108.5 29.5q43 0 74 -27.5t51 -68.5q6 -10 17.5 -11.5t21.5 7.5l8 8v-2q31 26 51 61l-6 23q-55 43 -109.5 83t-109.5 74q-12 6 -29 -2q-55 -47 -109 -100t-102 -111z" />
<glyph unicode="&#xd5;" horiz-adv-x="1441" d="M51 672q0 -104 61.5 -209t155.5 -187.5t206 -134t214 -51.5q29 0 57.5 4t57.5 15q55 2 113.5 19t113.5 46t104.5 65.5t86.5 77.5q57 63 91 129t51 135.5t22.5 143.5t5.5 158q0 72 -30 142.5t-81 132t-117.5 113.5t-140.5 90t-148.5 59.5t-142.5 21.5q-41 0 -82 -10 q-166 -37 -280.5 -98.5t-185 -154t-101.5 -217t-31 -290.5zM242 862q0 109 34.5 197t97 151.5t150.5 97t195 33.5q113 0 201 -45t148 -119.5t92 -174t32 -205.5q0 -98 -25.5 -191.5t-76 -173.5t-123 -140.5t-166.5 -94.5q-123 14 -225.5 73.5t-177 149.5t-115.5 204.5 t-41 237.5zM451 1524q-6 -14 13 -21.5t30 4.5q20 29 45.5 48.5t58.5 19.5q29 0 60.5 -12.5t60.5 -28.5q31 -16 63.5 -27.5t67.5 -11.5q33 0 57.5 14.5t43 36t29.5 48t19 51.5l-38 18q-23 -27 -47.5 -43t-53.5 -16t-60.5 11t-60.5 25q-33 16 -65.5 27.5t-67.5 11.5t-60.5 -14 t-44 -36.5t-30.5 -50.5t-20 -54z" />
<glyph unicode="&#xd6;" horiz-adv-x="1699" d="M55 717q0 -176 77 -315.5t194.5 -234.5t259 -145.5t268.5 -50.5q55 0 96 9q143 33 270.5 92t222.5 149t150.5 213t55.5 281q0 150 -46.5 302t-140.5 275t-237.5 201t-335.5 78q-29 0 -60.5 -3t-60.5 -9q-193 -41 -328 -110t-221 -171t-125 -241.5t-39 -319.5zM272 819 q0 131 38 247t111 203t178.5 137t242.5 50q145 0 256.5 -65.5t188.5 -170t116 -236.5t39 -265q0 -129 -37 -247t-107.5 -206t-175 -140t-241.5 -52q-145 0 -259 66.5t-192 173t-118 239.5t-40 266zM590 1696q0 -43 37 -73t78 -30l8 2q25 10 43 29.5t18 46.5q0 35 -27.5 70 t-68.5 35q-33 0 -60.5 -26t-27.5 -54zM915 1696q0 -43 37 -73t78 -30l8 2q25 10 43.5 29.5t18.5 46.5q0 35 -29 70t-70 35q-31 0 -58.5 -26t-27.5 -54z" />
<glyph unicode="&#xd8;" horiz-adv-x="1449" d="M51 754q0 -121 46 -238t124 -209q-14 -23 -28.5 -38t-30.5 -33q-18 -23 -38 -44.5t-36 -44.5q-12 -12 6 -24l49 -39q16 -10 31 2l53 53q23 23 40.5 41.5t39.5 40.5q92 -63 181.5 -90t203.5 -27q49 0 97.5 3.5t95.5 11.5q94 14 186 76.5t165 151.5t118 190.5t45 191.5 q0 129 -36 261t-120 237q33 41 62.5 71.5t64.5 69.5q12 12 -2 25l-47 49q-16 8 -33 2q-18 -16 -42.5 -42t-41.5 -42l-51 -53q-96 59 -205.5 92t-222.5 33q-145 0 -269 -52.5t-214 -143.5t-140.5 -215t-50.5 -267zM258 831q0 106 29.5 199.5t87 162.5t143.5 108.5t197 39.5 q92 0 177 -38.5t144 -114.5q-172 -190 -340 -373.5t-342 -370.5q-51 88 -73.5 187.5t-22.5 199.5zM420 344q111 117 212 228.5t212 228.5q66 72 134.5 144.5t135.5 144.5q88 -172 88 -371q0 -98 -28.5 -191.5t-84 -166t-137.5 -116.5t-186 -44q-98 0 -185 37.5t-161 105.5z " />
<glyph unicode="&#xd9;" d="M51 1380q4 -25 31 -28.5t51 -5.5q14 0 19 -3q25 -8 31.5 -31.5t6.5 -49.5v-689q0 -6 4.5 -22t9.5 -34.5t11 -36t10 -25.5q29 -76 77 -141.5t111.5 -113.5t139.5 -76t162 -28q113 0 203 41t154.5 113t99 166t34.5 202v646q0 47 29 65.5t70 26.5l-2 35q-90 6 -180.5 8 t-182.5 2q-10 0 -18.5 -6t-6.5 -15q4 -25 31 -28.5t51 -5.5q14 0 19 -3q25 -8 32 -31.5t7 -49.5q0 -82 1 -183.5t1 -181.5q2 -90 2 -180v-178q0 -78 -26.5 -140.5t-73 -106.5t-109 -68.5t-135.5 -24.5q-72 0 -134.5 23.5t-107.5 66.5t-70.5 104.5t-25.5 136.5q0 92 1 183.5 t1 183.5v367q0 49 25.5 66.5t72.5 21.5q18 2 19 16q0 16 -19 18q-102 10 -200.5 12.5t-200.5 2.5q-10 0 -18.5 -6t-6.5 -15zM412 1626q2 -8 14 -12l180 -70t189 -45l12 33q-18 10 -43 28.5t-49 36.5q-45 35 -92.5 67t-96.5 32q-70 0 -108 -54q-8 -8 -6 -16z" />
<glyph unicode="&#xda;" d="M51 1380q4 -25 31 -28.5t51 -5.5q14 0 19 -3q25 -8 31.5 -31.5t6.5 -49.5v-689q0 -6 4.5 -22t9.5 -34.5t11 -36t10 -25.5q29 -76 77 -141.5t111.5 -113.5t139.5 -76t162 -28q113 0 203 41t154.5 113t99 166t34.5 202v646q0 47 29 65.5t70 26.5l-2 35q-90 6 -180.5 8 t-182.5 2q-10 0 -18.5 -6t-6.5 -15q4 -25 31 -28.5t51 -5.5q14 0 19 -3q25 -8 32 -31.5t7 -49.5q0 -82 1 -183.5t1 -181.5q2 -90 2 -180v-178q0 -78 -26.5 -140.5t-73 -106.5t-109 -68.5t-135.5 -24.5q-72 0 -134.5 23.5t-107.5 66.5t-70.5 104.5t-25.5 136.5q0 92 1 183.5 t1 183.5v367q0 49 25.5 66.5t72.5 21.5q18 2 19 16q0 16 -19 18q-102 10 -200.5 12.5t-200.5 2.5q-10 0 -18.5 -6t-6.5 -15zM629 1504.5q10 -15.5 26 -9.5q33 12 72 25.5t78 26t78 18.5t73 4l25 -2q12 -2 20.5 4t6.5 16q-2 14 -7.5 33.5t-14.5 37t-25.5 29t-42.5 11.5 q-35 0 -90.5 -36t-106.5 -75q-23 -18 -45.5 -34.5t-38.5 -26.5q-18 -6 -8 -21.5z" />
<glyph unicode="&#xdb;" d="M51 1380q4 -25 31 -28.5t51 -5.5q14 0 19 -3q25 -8 31.5 -31.5t6.5 -49.5v-689q0 -6 4.5 -22t9.5 -34.5t11 -36t10 -25.5q29 -76 77 -141.5t111.5 -113.5t139.5 -76t162 -28q113 0 203 41t154.5 113t99 166t34.5 202v646q0 47 29 65.5t70 26.5l-2 35q-90 6 -180.5 8 t-182.5 2q-10 0 -18.5 -6t-6.5 -15q4 -25 31 -28.5t51 -5.5q14 0 19 -3q25 -8 32 -31.5t7 -49.5q0 -82 1 -183.5t1 -181.5q2 -90 2 -180v-178q0 -78 -26.5 -140.5t-73 -106.5t-109 -68.5t-135.5 -24.5q-72 0 -134.5 23.5t-107.5 66.5t-70.5 104.5t-25.5 136.5q0 92 1 183.5 t1 183.5v367q0 49 25.5 66.5t72.5 21.5q18 2 19 16q0 16 -19 18q-102 10 -200.5 12.5t-200.5 2.5q-10 0 -18.5 -6t-6.5 -15zM477 1509q-10 -12 3.5 -23t29.5 -3q47 33 100.5 62.5t110.5 29.5q45 0 75.5 -27.5t49.5 -68.5q6 -10 17 -11.5t20 5.5l34.5 34.5t28.5 34.5l-8 23 q-55 43 -109.5 83t-111.5 74q-10 6 -27 -2q-55 -47 -109.5 -99t-103.5 -112z" />
<glyph unicode="&#xdc;" horiz-adv-x="1566" d="M31 1495q4 -23 34.5 -31t59.5 -10q12 -2 18.5 -1t12.5 -1q27 -10 35 -39t8 -61v-813q0 -8 4 -27.5t8 -42.5t9 -43t9 -29q35 -92 93.5 -171t135.5 -135t169 -88t194 -32q135 0 244 49.5t185.5 133.5t117.5 196.5t41 241.5v774q0 59 36 82t89 31l-2 37q-111 8 -219.5 6 t-218.5 -2q-10 0 -18.5 -5.5t-6.5 -13.5q4 -23 35 -31t59 -10q12 -2 18.5 -1t12.5 -1q27 -10 35 -38.5t8 -61.5v-105q0 -55 1 -111.5t1 -111.5v-102q2 -109 2 -215v-217q0 -92 -31.5 -168t-88 -129.5t-133.5 -83t-165 -29.5t-162.5 28.5t-130 82t-86 127t-30.5 165.5v220 t2 219t2 219v219q0 61 31.5 81.5t87.5 27.5q20 2 20 18t-20 18q-102 10 -203 3t-201 -3l-78 2q-10 0 -18 -5t-6 -13zM549 1634q0 -43 38 -72.5t77 -29.5l10 2q25 10 41 29.5t16 46.5q0 35 -26.5 69.5t-67.5 34.5q-33 0 -60.5 -25.5t-27.5 -54.5zM874 1634q0 -43 37 -72.5 t78 -29.5l10 2q25 10 41.5 29.5t16.5 46.5q0 35 -28 69.5t-68 34.5q-33 0 -60 -25.5t-27 -54.5z" />
<glyph unicode="&#xdd;" horiz-adv-x="739" />
<glyph unicode="&#xde;" horiz-adv-x="739" />
<glyph unicode="&#xdf;" horiz-adv-x="1427" d="M51 236q0 -43 23.5 -71t57.5 -44.5t73 -22.5t71 -6q51 0 114 13.5t121 38t108.5 62.5t80.5 87q-10 -35 -10 -57q0 -43 23.5 -71t57.5 -44.5t73 -22.5t71 -6q66 0 147 21.5t150.5 62.5t116.5 100.5t47 137.5q0 53 -24.5 100t-62.5 90t-86 81t-97 75q-37 29 -76 59.5 t-70.5 64.5t-51 68.5t-19.5 69.5q0 39 16.5 69.5t42 51t59 32t68.5 11.5t69 -10.5t61.5 -31t45 -49t17.5 -67.5q0 -14 15 -18t28 6q25 27 27.5 68.5t2.5 82.5v58q4 16 -18 20q-84 18 -172 19q-55 0 -132 -13.5t-146.5 -44t-117.5 -82t-48 -127.5q0 -47 23.5 -91t62 -88 t87 -87t97.5 -84q43 -37 85 -73.5t75.5 -75.5t55 -76t21.5 -74q0 -41 -22.5 -71.5t-57 -51t-74.5 -32t-73 -11.5q-37 0 -78 10.5t-73.5 32t-52 53t-15.5 74.5l2 25q2 10 -11.5 15t-23.5 1q2 6 2 21q0 53 -24.5 100t-62.5 90t-86 81t-97 75q-37 29 -76 59.5t-70.5 64.5 t-51 68.5t-19.5 69.5q0 39 16.5 69.5t42 51t59 32t68.5 11.5t69 -10.5t61.5 -31t45 -49t17.5 -67.5q0 -14 15 -18t28 6q25 27 27.5 68.5t2.5 82.5v58q4 16 -18 20q-84 18 -170 19q-57 0 -134 -13.5t-146.5 -44t-117.5 -82t-48 -127.5q0 -47 23.5 -91t62.5 -88t87 -87t97 -84 q43 -37 85 -73.5t75.5 -75.5t55 -76t21.5 -74q0 -41 -22.5 -71.5t-57 -51t-74.5 -32t-73 -11.5q-37 0 -78 10.5t-73.5 32t-52 53t-15.5 74.5l2 25q0 8 -6 12t-14.5 5t-16.5 -2t-10 -11q-4 -20 -7 -35.5t-5 -19.5q-8 -25 -14.5 -48.5t-6.5 -41.5z" />
<glyph unicode="&#xe0;" horiz-adv-x="1392" d="M76 127l360 -6q20 0 21.5 17.5t-19.5 19.5q-20 4 -46.5 11t-26.5 30q0 18 13 62t33.5 95.5t41 102.5t36.5 84h330q41 -94 80 -184.5t80 -184.5l-18 -22q-10 -10 -5 -20.5t19 -10.5q35 -2 71.5 -3t73.5 -1q51 0 100.5 2t98.5 6v37q-47 4 -89 18.5t-67 61.5 q-74 135 -138 278.5t-126 288.5q-25 59 -49.5 117.5t-48.5 115.5q-8 10 -13 27q-10 23 -22 53.5t-26.5 58t-30 50t-31.5 29.5q-23 6 -31 -9q-61 -143 -121.5 -286.5t-119.5 -288.5q-41 -98 -85.5 -201.5t-84.5 -202.5q-10 -18 -28 -40.5t-38 -40t-43 -25.5t-43 -2zM520 631 q39 92 67.5 173t63.5 173l131 -346h-262z" />
<glyph unicode="&#xe1;" horiz-adv-x="1392" d="M76 127l360 -6q20 0 21.5 17.5t-19.5 19.5q-20 4 -46.5 11t-26.5 30q0 18 13 62t33.5 95.5t41 102.5t36.5 84h330q41 -94 80 -184.5t80 -184.5l-18 -22q-10 -10 -5 -20.5t19 -10.5q35 -2 71.5 -3t73.5 -1q51 0 100.5 2t98.5 6v37q-47 4 -89 18.5t-67 61.5 q-74 135 -138 278.5t-126 288.5q-25 59 -49.5 117.5t-48.5 115.5q-8 10 -13 27q-10 23 -22 53.5t-26.5 58t-30 50t-31.5 29.5q-23 6 -31 -9q-61 -143 -121.5 -286.5t-119.5 -288.5q-41 -98 -85.5 -201.5t-84.5 -202.5q-10 -18 -28 -40.5t-38 -40t-43 -25.5t-43 -2zM520 631 q39 92 67.5 173t63.5 173l131 -346h-262z" />
<glyph unicode="&#xe2;" horiz-adv-x="1392" d="M76 127l360 -6q20 0 21.5 17.5t-19.5 19.5q-20 4 -46.5 11t-26.5 30q0 18 13 62t33.5 95.5t41 102.5t36.5 84h330q41 -94 80 -184.5t80 -184.5l-18 -22q-10 -10 -5 -20.5t19 -10.5q35 -2 71.5 -3t73.5 -1q51 0 100.5 2t98.5 6v37q-47 4 -89 18.5t-67 61.5 q-74 135 -138 278.5t-126 288.5q-25 59 -49.5 117.5t-48.5 115.5q-8 10 -13 27q-10 23 -22 53.5t-26.5 58t-30 50t-31.5 29.5q-23 6 -31 -9q-61 -143 -121.5 -286.5t-119.5 -288.5q-41 -98 -85.5 -201.5t-84.5 -202.5q-10 -18 -28 -40.5t-38 -40t-43 -25.5t-43 -2zM520 631 q39 92 67.5 173t63.5 173l131 -346h-262z" />
<glyph unicode="&#xe3;" horiz-adv-x="1392" d="M76 127l360 -6q20 0 21.5 17.5t-19.5 19.5q-20 4 -46.5 11t-26.5 30q0 18 13 62t33.5 95.5t41 102.5t36.5 84h330q41 -94 80 -184.5t80 -184.5l-18 -22q-10 -10 -5 -20.5t19 -10.5q35 -2 71.5 -3t73.5 -1q51 0 100.5 2t98.5 6v37q-47 4 -89 18.5t-67 61.5 q-74 135 -138 278.5t-126 288.5q-25 59 -49.5 117.5t-48.5 115.5q-8 10 -13 27q-10 23 -22 53.5t-26.5 58t-30 50t-31.5 29.5q-23 6 -31 -9q-61 -143 -121.5 -286.5t-119.5 -288.5q-41 -98 -85.5 -201.5t-84.5 -202.5q-10 -18 -28 -40.5t-38 -40t-43 -25.5t-43 -2zM520 631 q39 92 67.5 173t63.5 173l131 -346h-262z" />
<glyph unicode="&#xe4;" horiz-adv-x="1392" d="M76 127l360 -6q20 0 21.5 17.5t-19.5 19.5q-20 4 -46.5 11t-26.5 30q0 18 13 62t33.5 95.5t41 102.5t36.5 84h330q41 -94 80 -184.5t80 -184.5l-18 -22q-10 -10 -5 -20.5t19 -10.5q35 -2 71.5 -3t73.5 -1q51 0 100.5 2t98.5 6v37q-47 4 -89 18.5t-67 61.5 q-74 135 -138 278.5t-126 288.5q-25 59 -49.5 117.5t-48.5 115.5q-8 10 -13 27q-10 23 -22 53.5t-26.5 58t-30 50t-31.5 29.5q-23 6 -31 -9q-61 -143 -121.5 -286.5t-119.5 -288.5q-41 -98 -85.5 -201.5t-84.5 -202.5q-10 -18 -28 -40.5t-38 -40t-43 -25.5t-43 -2zM393 1358 q-4 -23 7.5 -45.5t30 -39t41 -22.5t44.5 2h2q54 23 60 74q2 20 -5.5 39.5t-20.5 35t-31.5 25t-41.5 7.5q-35 -2 -58.5 -23.5t-27.5 -52.5zM520 631q39 92 67.5 173t63.5 173l131 -346h-262zM748 1356q-4 -23 6 -45.5t28.5 -39t42 -22.5t45.5 2l2 2q50 23 58 74q2 20 -4 39.5 t-19.5 35t-32 25t-40.5 7.5q-37 -2 -59.5 -23.5t-26.5 -54.5z" />
<glyph unicode="&#xe5;" horiz-adv-x="1392" d="M76 127l360 -6q20 0 21.5 17.5t-19.5 19.5q-20 4 -46.5 11t-26.5 30q0 18 13 62t33.5 95.5t41 102.5t36.5 84h330q41 -94 80 -184.5t80 -184.5l-18 -22q-10 -10 -5 -20.5t19 -10.5q35 -2 71.5 -3t73.5 -1q51 0 100.5 2t98.5 6v37q-47 4 -89 18.5t-67 61.5 q-74 135 -138 278.5t-126 288.5q-25 59 -49.5 117.5t-48.5 115.5q-8 10 -13 27q-10 23 -22 53.5t-26.5 58t-30 50t-31.5 29.5q-23 6 -31 -9q-61 -143 -121.5 -286.5t-119.5 -288.5q-41 -98 -85.5 -201.5t-84.5 -202.5q-10 -18 -28 -40.5t-38 -40t-43 -25.5t-43 -2zM520 631 q39 92 67.5 173t63.5 173l131 -346h-262z" />
<glyph unicode="&#xe6;" horiz-adv-x="1656" d="M51 127l357 -6q20 0 28 17.5t-10 19.5t-42 10t-13 31q8 18 39.5 62t73.5 95.5t85 102.5t74 84h320v-260q0 -55 -18.5 -89t-76.5 -36q-18 0 -19 -17.5t17 -19.5q72 -4 145.5 -3t147.5 1q33 0 65.5 1t65.5 1q14 0 50 -1t76 -2t75 -1t47 4l16 8l43 188q2 6 -5 11.5t-15 6.5 t-16.5 -2t-10.5 -9q-18 -72 -73.5 -104t-120.5 -32q-47 0 -101.5 17.5t-89.5 52.5q-10 100 -8 203.5t6 210.5h15q25 0 65.5 -3t80.5 -8.5t70 -8.5l29 -3q6 -4 13.5 -20.5t13.5 -34.5q2 -10 1 -15.5t24 -19.5q10 -8 22 -4t14 14q4 29 8.5 53.5t8.5 49.5q4 27 7 63.5t7 63.5 q2 10 -7 17t-24 3q-12 -4 -25 -18.5t-30 -22.5h2q-18 -6 -34.5 -13t-26.5 -7h-232v51q0 41 -5 84t-9 84v143q2 8 2 15q0 6 2 14h33q16 0 32.5 1t30.5 1q16 0 31.5 1t32.5 1q29 0 57.5 -4t51 -15.5t37 -32t16.5 -54.5q2 -16 22 -17q20 0 25 14q4 12 6 24.5t6 27.5 q8 33 16.5 65.5t12.5 71.5q2 10 -8.5 16t-24.5 2q-29 -10 -113 -14t-186 -4h-96q-6 2 -19 2q-41 0 -81 1t-74 1q-37 0 -67 1t-48 1t-24.5 -12.5t10.5 -20.5q16 -10 33.5 -14t33.5 -8q23 -4 42.5 -15.5t19.5 -46.5v-57q-88 -98 -174.5 -191.5t-174.5 -197.5 q-82 -98 -169 -201.5t-173 -202.5q-18 -20 -44.5 -41.5t-54.5 -39t-54.5 -25.5t-44.5 -2zM711 631q72 84 130 157.5t122 153.5v-311h-252z" />
<glyph unicode="&#xe7;" horiz-adv-x="1140" d="M76 627q0 -111 34.5 -202t98 -158.5t152 -111.5t192.5 -61q-25 -18 -47.5 -37.5t-38.5 -40.5q-10 -8 -5 -16t21 -8q41 0 71 -23.5t30 -68.5t-30 -72t-71 -25l-12 2q-18 0 -22.5 -12t12.5 -16q31 -14 69 -15q35 0 69 15.5t61.5 41t44 57.5t16.5 67q0 53 -34 75.5t-79 24.5 l45 47q31 -10 64 -10h61q25 0 77 2t105.5 13t93.5 35t40 65q0 12 -1 23t-1 24q-2 33 -1 64.5t9 66.5l-41 10q-47 -98 -129 -154.5t-189 -56.5q-111 0 -200.5 46t-155.5 123t-101.5 174t-35.5 202q0 104 31.5 188t90 143.5t141.5 92.5t185 33q123 0 214 -66t114 -195 q2 -10 16.5 -12t22.5 8q23 53 28 106.5t5 106.5v66q0 14 -21 14q-39 4 -75.5 9.5t-77.5 11.5q-49 8 -107.5 15t-112.5 7q-47 0 -105 -6t-117.5 -21.5t-113 -39t-87.5 -60.5q-94 -98 -148.5 -227t-54.5 -264z" />
<glyph unicode="&#xf1;" horiz-adv-x="1474" d="M53.5 163.5q-2.5 -16.5 16.5 -20.5q86 -18 180 -18h72q35 0 71.5 1t73.5 -1q18 0 24.5 12.5t-10.5 20.5q-37 20 -71 26q-16 4 -30.5 9.5t-26 18.5t-18.5 36.5t-7 64.5q0 82 -2 173.5t-7 172.5q-4 88 -7 174.5t-3 174.5v43t2 45q18 -18 30.5 -32.5t24 -29t23.5 -29 t29 -32.5q193 -219 401.5 -444.5t427.5 -415.5q12 -8 25.5 -4t15.5 16q12 147 16.5 291.5t4.5 294.5v145q0 72 -2 145q0 74 -1 147t-1 144q0 27 24.5 37t50.5 19q6 2 12.5 4t12.5 4l-4 35q-74 4 -148.5 8t-150.5 2l-74 -2q-16 0 -22.5 -11.5t6.5 -21.5q20 -14 65 -18 q14 -2 28.5 -5.5t27 -14.5t20.5 -33.5t8 -61.5v-141q0 -35 -1 -72t-1 -72q0 -59 2 -123.5t4 -124.5q6 -145 6 -282q-16 16 -30.5 33.5t-30.5 35.5q-215 236 -429 468.5t-435 463.5q-16 12 -35 2q-27 -23 -27 -51v-1098q0 -41 -22.5 -70.5t-61.5 -25.5l-24 2 q-20 2 -22.5 -14.5zM481 1524q-6 -14 13.5 -21.5t29.5 4.5q18 29 45 48.5t58 19.5t61.5 -12.5t61 -28.5t63.5 -27.5t68 -11.5q33 0 57.5 14.5t41.5 36t29.5 48t20.5 51.5l-39 18q-23 -27 -47 -43t-53 -16q-31 0 -61.5 11t-61.5 25q-31 16 -63.5 27.5t-67.5 11.5 q-37 0 -62.5 -14t-43 -36.5t-30 -50.5t-20.5 -54z" />
<glyph unicode="&#xf6;" horiz-adv-x="1433" d="M51 690q0 -127 55.5 -236.5t145.5 -189.5t208 -126t240 -46q123 0 245 35t219.5 104.5t157.5 173t60 238.5q0 127 -52 241.5t-140 200.5t-204 137.5t-243 51.5q-129 0 -252.5 -39t-221 -113.5t-158 -183.5t-60.5 -248zM236 719q0 106 34.5 191t97 145.5t149.5 93.5 t190 33q111 0 201.5 -43t155 -117t100.5 -171.5t36 -203.5q0 -104 -32.5 -191t-93 -149.5t-145.5 -96.5t-190 -34q-113 0 -205 44t-158.5 119t-103 173t-36.5 207zM459 1415q-2 -23 8 -44t28.5 -37.5t42 -22.5t46.5 2q29 10 42 30t17 43q4 41 -24.5 76t-73.5 31 q-35 -2 -58.5 -23.5t-27.5 -54.5zM793 1415q-2 -23 8 -45t27.5 -37.5t41 -22.5t45.5 1l3 2q49 22 59 73q6 41 -23.5 75t-72.5 32q-37 0 -60.5 -22.5t-27.5 -55.5z" />
<glyph unicode="&#xf8;" horiz-adv-x="1439" d="M51 692q0 -117 66.5 -224.5t171.5 -193.5l-41 -63q0 -2 -2 -6t0 -8q6 -27 33.5 -46.5t52.5 -25.5q6 -2 14 1t12 7l41 66q78 -47 161 -73t161 -26q47 0 80 9q121 27 227.5 75.5t186 124.5t127 179.5t47.5 236.5q0 82 -21.5 165t-60.5 161.5t-95.5 147.5t-124.5 122l41 68 l-8 24l-73 31q-6 4 -15.5 1t-13.5 -7l-33 -54q-111 57 -235 58q-29 0 -53.5 -3t-47.5 -7q-166 -35 -280.5 -92.5t-185 -146.5t-101.5 -212t-31 -289zM240 811q0 109 31.5 205t91 167.5t147.5 113.5t201 42q59 0 112.5 -14t100.5 -39l-72 -115q-123 -197 -243 -388t-242 -386 q-63 88 -95 195.5t-32 218.5zM459 295q143 229 283.5 457.5t279.5 459.5q92 -92 138 -220t46 -263q0 -109 -29.5 -206t-88 -170.5t-145.5 -116.5t-200 -43q-86 0 -155.5 27.5t-128.5 74.5z" />
<glyph unicode="&#xf9;" d="M51 1217q4 -23 21.5 -25t42.5 -6q25 -2 50 -12.5t25 -61.5v-606q0 -6 4.5 -20.5t10.5 -32t11 -31.5t9 -21v2q61 -152 193.5 -234.5t296.5 -82.5q100 0 190 33t156.5 93t105.5 145t39 190v567q0 41 32 57.5t67 20.5l-2 35q-90 6 -180.5 8t-182.5 2q-29 0 -25 -20 q4 -23 23.5 -26t42.5 -5q12 -2 25.5 -4t23.5 -9.5t17.5 -21.5t7.5 -39v-160t2 -157q2 -80 2 -160v-158q0 -74 -29 -129t-77 -93t-110.5 -57.5t-127.5 -19.5q-66 0 -126.5 18.5t-107.5 55.5t-75.5 91t-28.5 126q0 80 1 161t1 163v321q0 45 28.5 58.5t69.5 17.5q18 2 19 16 q0 16 -19 19q-170 12 -338 12h-63q-29 0 -25 -20z" />
<glyph unicode="&#xfa;" d="M51 1217q4 -23 21.5 -25t42.5 -6q25 -2 50 -12.5t25 -61.5v-606q0 -6 4.5 -20.5t10.5 -32t11 -31.5t9 -21v2q61 -152 193.5 -234.5t296.5 -82.5q100 0 190 33t156.5 93t105.5 145t39 190v567q0 41 32 57.5t67 20.5l-2 35q-90 6 -180.5 8t-182.5 2q-29 0 -25 -20 q4 -23 23.5 -26t42.5 -5q12 -2 25.5 -4t23.5 -9.5t17.5 -21.5t7.5 -39v-160t2 -157q2 -80 2 -160v-158q0 -74 -29 -129t-77 -93t-110.5 -57.5t-127.5 -19.5q-66 0 -126.5 18.5t-107.5 55.5t-75.5 91t-28.5 126q0 80 1 161t1 163v321q0 45 28.5 58.5t69.5 17.5q18 2 19 16 q0 16 -19 19q-170 12 -338 12h-63q-29 0 -25 -20z" />
<glyph unicode="&#xfb;" d="M51 1217q4 -23 21.5 -25t42.5 -6q25 -2 50 -12.5t25 -61.5v-606q0 -6 4.5 -20.5t10.5 -32t11 -31.5t9 -21v2q61 -152 193.5 -234.5t296.5 -82.5q100 0 190 33t156.5 93t105.5 145t39 190v567q0 41 32 57.5t67 20.5l-2 35q-90 6 -180.5 8t-182.5 2q-29 0 -25 -20 q4 -23 23.5 -26t42.5 -5q12 -2 25.5 -4t23.5 -9.5t17.5 -21.5t7.5 -39v-160t2 -157q2 -80 2 -160v-158q0 -74 -29 -129t-77 -93t-110.5 -57.5t-127.5 -19.5q-66 0 -126.5 18.5t-107.5 55.5t-75.5 91t-28.5 126q0 80 1 161t1 163v321q0 45 28.5 58.5t69.5 17.5q18 2 19 16 q0 16 -19 19q-170 12 -338 12h-63q-29 0 -25 -20z" />
<glyph unicode="&#xfc;" d="M51 1217q4 -23 21.5 -25t42.5 -6q25 -2 50 -12.5t25 -61.5v-606q0 -6 4.5 -20.5t10.5 -32t11 -31.5t9 -21v2q61 -152 193.5 -234.5t296.5 -82.5q100 0 190 33t156.5 93t105.5 145t39 190v567q0 41 32 57.5t67 20.5l-2 35q-90 6 -180.5 8t-182.5 2q-29 0 -25 -20 q4 -23 23.5 -26t42.5 -5q12 -2 25.5 -4t23.5 -9.5t17.5 -21.5t7.5 -39v-160t2 -157q2 -80 2 -160v-158q0 -74 -29 -129t-77 -93t-110.5 -57.5t-127.5 -19.5q-66 0 -126.5 18.5t-107.5 55.5t-75.5 91t-28.5 126q0 80 1 161t1 163v321q0 45 28.5 58.5t69.5 17.5q18 2 19 16 q0 16 -19 19q-170 12 -338 12h-63q-29 0 -25 -20zM444 1415q-2 -23 8.5 -44t29 -37.5t41 -22.5t44.5 2q31 10 44.5 30t17.5 43q4 41 -25 76t-74 31q-35 -2 -58 -23.5t-28 -54.5zM778 1415q-2 -23 8.5 -45t27.5 -37.5t41 -22.5t46 1v2q29 10 42.5 30t17.5 43q6 41 -23 75 t-72 32q-39 0 -61.5 -22.5t-26.5 -55.5z" />
<glyph unicode="&#x152;" horiz-adv-x="1878" d="M57 770q0 -117 55.5 -238.5t145.5 -221t208 -163t241 -63.5q82 0 151.5 19.5t131 50t115.5 67.5t101 70v-15q0 -31 -2 -62.5t-2 -61.5q0 -18 23 -19q59 0 128.5 -2t129.5 -4q66 -2 128 -3t128 -1q27 0 42 21.5t24.5 51t12.5 58.5t3 45t-1 32.5t-10 33.5l-45 -7 q-10 -76 -62 -110.5t-122 -34.5q-49 0 -107.5 20.5t-87.5 63.5v461q25 -2 43.5 -1t43.5 3q14 0 29.5 1t31.5 1q45 0 71.5 -9.5t42 -23.5t22.5 -30.5t11 -30.5l-2 2q4 -14 8.5 -23.5t20.5 -17.5q12 -4 22.5 0t12.5 14q4 59 11 116.5t20 117.5q2 10 -8.5 17t-26.5 1 q-8 -4 -23.5 -11t-31 -13.5t-30 -11.5t-22.5 -5h-246v449q23 0 45.5 1t45.5 3q16 2 28 2h31q33 0 62.5 -5.5t52 -18.5t37 -36.5t16.5 -62.5q0 -12 14.5 -17.5t26.5 5.5q12 12 20.5 33.5t12.5 47t7 52t5 49.5q2 8 3 22l1 15q2 10 -7 18t-22 4q-43 -10 -86 -14t-84 -4 q-20 0 -39.5 1t-37.5 1h-95q-25 0 -60.5 1t-68.5 1q-31 0 -55.5 -1t-26.5 -3q-10 -6 -10 -15q0 -14 1 -27.5t1 -29.5v-35q0 -20 -2 -35q-117 102 -244 134t-284 32q-123 0 -234.5 -58t-196.5 -150.5t-135.5 -209t-50.5 -233.5zM252 862q0 109 35 197t97 151.5t150.5 97 t196.5 33.5q113 0 201 -45t148.5 -119.5t92 -174t31.5 -205.5q0 -98 -27.5 -199.5t-77.5 -185.5t-123 -142.5t-163 -72.5q-123 14 -226.5 73.5t-177 149.5t-115.5 204.5t-42 237.5z" />
<glyph unicode="&#x153;" horiz-adv-x="1867" d="M51 690q0 -127 55.5 -236.5t145.5 -189.5t208 -126t240 -46q135 0 267.5 41t232.5 125q-2 -23 -1 -41t-2 -30.5t-14.5 -20.5t-35.5 -8q-18 0 -19.5 -17.5t17.5 -19.5q72 -4 125 -3t127 1q33 0 65.5 1t65.5 1q14 0 50 -1t76 -2t75 -1t47 4l16 8l43 188q2 6 -5 11.5 t-15.5 6.5t-16.5 -2t-10 -9q-18 -72 -73.5 -104t-121.5 -32q-53 0 -112.5 20.5t-91.5 65.5v398h26q25 0 66 -3t81 -8.5t70 -8.5l29 -3q6 -4 13 -20.5t14 -34.5q2 -10 1 -15.5t23 -19.5q10 -8 22.5 -4t14.5 14q4 29 8 53.5t8 49.5q4 27 7.5 63.5t7.5 63.5q2 10 -7.5 17 t-23.5 3q-12 -4 -25.5 -18.5t-29.5 -22.5h2q-18 -6 -34.5 -13t-27.5 -7h-245v391h36q16 0 33 1t31 1q16 0 31.5 1t31.5 1q29 0 57.5 -4t51 -15.5t37 -32t16.5 -54.5q2 -16 23 -17q20 0 24 14q4 12 6 24.5t7 27.5q8 33 16 65.5t12 71.5q2 10 -8 16t-25 2q-29 -10 -112.5 -14 t-186.5 -4q-72 0 -121 1t-108 3q-37 0 -66.5 1t-48.5 1q-18 0 -24 -12.5t10 -20.5q12 -6 27.5 -7t29 -6t22.5 -19.5t9 -51.5v-47q-90 92 -208 145.5t-249 53.5q-129 0 -252.5 -39t-221 -113.5t-158 -183.5t-60.5 -248zM236 719q0 106 34.5 191t97 145.5t149.5 93.5t190 33 q111 0 201.5 -43t155 -117t100.5 -171.5t36 -203.5q0 -104 -32.5 -191t-93 -149.5t-145.5 -96.5t-190 -34q-113 0 -205 44t-158.5 119t-103 173t-36.5 207z" />
<glyph unicode="&#x178;" horiz-adv-x="1339" d="M52.5 1374.5q-1.5 -14.5 15.5 -18.5q29 -8 78 -57.5t105 -120t114.5 -154.5t104.5 -163t75.5 -142.5t29.5 -93.5v-346q0 -16 -3 -35t-9 -34t-17 -26.5t-28 -11.5q-6 0 -26.5 4t-24.5 -13.5t14 -21.5q45 -12 92.5 -14t94.5 -2q59 0 117.5 3t117.5 7q20 2 18.5 19.5 t-22.5 15.5q-57 -4 -96 18.5t-39 87.5v373q0 37 27.5 100.5t71.5 137.5t100.5 152.5t113 144t108.5 113t87 59.5l-6 35q-80 6 -166 6q-80 0 -156 -6q-18 -2 -20 -15.5t16 -17.5q33 -10 33 -49q0 -20 -14.5 -53t-37 -71t-49 -78t-49.5 -75q-16 -25 -29.5 -45t-19.5 -33v2 q-23 -41 -45 -78.5t-41 -78.5q-20 33 -49 82t-61.5 104t-65.5 111.5t-59.5 104.5t-43 83t-16.5 45t6.5 17.5t14.5 13.5q4 4 8 5t8 5q12 10 6 20.5t-22 10.5q-86 0 -171 -2t-171 -8q-18 -2 -19.5 -16.5zM451 1593q0 -43 37.5 -72.5t76.5 -29.5l8 2q27 10 44.5 29.5t17.5 46.5 q0 35 -27.5 69.5t-68.5 34.5q-33 0 -60.5 -25.5t-27.5 -54.5zM776 1593q0 -43 38 -72.5t77 -29.5l8 2q27 10 44.5 29.5t17.5 46.5q0 35 -29 69.5t-70 34.5q-31 0 -58.5 -25.5t-27.5 -54.5z" />
<glyph unicode="&#x2c6;" horiz-adv-x="559" d="M47 1487q12 -12 29 -6q2 2 13 8t15 8q43 25 89.5 51.5t97.5 26.5q43 0 73.5 -27.5t49.5 -68.5q6 -10 17 -11.5t22 7.5l10 10l30.5 30.5t20.5 24.5l-6 25q-53 43 -109.5 83t-111.5 74q-12 6 -29 -2q-55 -47 -109.5 -99t-101.5 -112q-12 -10 0 -22z" />
<glyph unicode="&#x2dc;" horiz-adv-x="638" d="M43 1346q-4 -14 13.5 -21.5t29.5 4.5q20 29 46 48.5t58 19.5q29 0 61 -12.5t60 -26.5q33 -16 65 -27.5t66 -11.5q33 0 58.5 13.5t44 35t31 47.5t20.5 51l-41 19q-23 -27 -47.5 -43.5t-54.5 -16.5q-29 0 -60 11.5t-59 25.5q-33 16 -65.5 27.5t-67.5 11.5t-60.5 -14 t-44 -37t-32 -50.5t-21.5 -53.5z" />
<glyph unicode="&#x2000;" horiz-adv-x="913" />
<glyph unicode="&#x2001;" horiz-adv-x="1827" />
<glyph unicode="&#x2002;" horiz-adv-x="913" />
<glyph unicode="&#x2003;" horiz-adv-x="1827" />
<glyph unicode="&#x2004;" horiz-adv-x="609" />
<glyph unicode="&#x2005;" horiz-adv-x="456" />
<glyph unicode="&#x2006;" horiz-adv-x="304" />
<glyph unicode="&#x2007;" horiz-adv-x="304" />
<glyph unicode="&#x2008;" horiz-adv-x="228" />
<glyph unicode="&#x2009;" horiz-adv-x="365" />
<glyph unicode="&#x200a;" horiz-adv-x="101" />
<glyph unicode="&#x2010;" horiz-adv-x="720" d="M41 590q-2 -10 8 -15.5t25 -3.5q63 25 135 39.5t143 26.5q59 10 118.5 20.5t115.5 26.5l2 35q-8 2 -46 4t-90.5 3t-111.5 2t-113 1h-90h-45q-6 0 -13 -3t-9 -7q-12 -35 -18.5 -66.5t-10.5 -62.5z" />
<glyph unicode="&#x2011;" horiz-adv-x="720" d="M41 590q-2 -10 8 -15.5t25 -3.5q63 25 135 39.5t143 26.5q59 10 118.5 20.5t115.5 26.5l2 35q-8 2 -46 4t-90.5 3t-111.5 2t-113 1h-90h-45q-6 0 -13 -3t-9 -7q-12 -35 -18.5 -66.5t-10.5 -62.5z" />
<glyph unicode="&#x2012;" horiz-adv-x="720" d="M41 590q-2 -10 8 -15.5t25 -3.5q63 25 135 39.5t143 26.5q59 10 118.5 20.5t115.5 26.5l2 35q-8 2 -46 4t-90.5 3t-111.5 2t-113 1h-90h-45q-6 0 -13 -3t-9 -7q-12 -35 -18.5 -66.5t-10.5 -62.5z" />
<glyph unicode="&#x2013;" horiz-adv-x="929" d="M16 778q0 -18 25 -18h819q25 0 25 18v72q0 18 -25 18h-819q-25 0 -25 -18v-72z" />
<glyph unicode="&#x2014;" horiz-adv-x="1771" d="M29 778q0 -18 22 -18h1641q22 0 22 18v72q0 18 -22 18h-1641q-23 0 -22 -18v-72z" />
<glyph unicode="&#x2018;" horiz-adv-x="284" d="M37 1190q0 -66 45 -92.5t106 -26.5h25q16 0 23.5 9.5t-3.5 19.5q-43 61 -43 141q0 45 12.5 93t26.5 96h-2l19 59q6 14 -9.5 22.5t-29.5 -2.5q-29 -27 -58.5 -65.5t-54 -82.5t-41 -89t-16.5 -82z" />
<glyph unicode="&#x2019;" horiz-adv-x="282" d="M37 1094q-4 -14 11 -20.5t30 3.5q27 27 56.5 66t54 82t41 88t16.5 82q0 66 -44 94.5t-104 23.5l-28 -2q-16 -2 -21.5 -10t2.5 -18q41 -63 41 -142q0 -47 -12 -96t-27 -96l2 2q-8 -18 -12 -34.5t-6 -22.5z" />
<glyph unicode="&#x201a;" horiz-adv-x="282" d="M37 -31q-4 -14 11 -20t30 4q27 27 56.5 65.5t54 81.5t41 88t16.5 82q0 66 -44 94.5t-104 24.5l-28 -2q-16 -2 -21.5 -10t2.5 -19q41 -63 41 -141q0 -47 -12 -95t-27 -97l2 2q-8 -18 -12 -35t-6 -23z" />
<glyph unicode="&#x201c;" horiz-adv-x="501" d="M41 1190q0 -66 44 -92.5t105 -26.5h23q16 0 23.5 9.5t-3.5 19.5q-39 59 -38 141q0 47 11 97.5t25 99.5l-2 -2l19 55l-39 18q-29 -27 -58.5 -65.5t-54 -82.5t-40 -89t-15.5 -82zM254 1190q0 -66 44 -92.5t105 -26.5h25q16 0 21.5 9.5t-0.5 19.5q-41 63 -41 141 q0 47 12 97.5t26 99.5l-2 -2q4 18 9.5 34.5t7.5 20.5l-39 16q-27 -27 -56.5 -65.5t-54 -82.5t-41 -88t-16.5 -81z" />
<glyph unicode="&#x201d;" horiz-adv-x="501" d="M41 1094q-4 -14 10.5 -20.5t28.5 3.5q27 27 56.5 66t54 82t41 88t16.5 82q0 66 -43 94.5t-105 23.5l-28 -2q-16 -2 -20.5 -10t1.5 -18q41 -63 41 -142q0 -47 -12 -96t-27 -96l2 2q-6 -18 -10 -34.5t-6 -22.5zM256 1096q-6 -14 9.5 -22.5t27.5 1.5q29 25 58.5 63t54 83 t40 90t15.5 82q0 66 -43 95.5t-105 24.5l-26 -2q-16 -2 -21.5 -10t2.5 -18q41 -63 41 -142q0 -43 -12 -90t-25 -94h2z" />
<glyph unicode="&#x201e;" horiz-adv-x="501" d="M41 -31q-4 -14 10.5 -20t28.5 4q27 27 56.5 65.5t54 81.5t41 88t16.5 82q0 66 -43 94.5t-105 24.5l-28 -2q-16 -2 -20.5 -10t1.5 -19q41 -63 41 -141q0 -47 -12 -95t-27 -97l2 2q-6 -18 -10 -35t-6 -23zM256 -29q-6 -14 9.5 -22t27.5 2q29 25 58.5 62.5t54 82.5t40 90 t15.5 82q0 66 -43 95.5t-105 25.5l-26 -2q-16 -2 -21.5 -10t2.5 -19q41 -63 41 -141q0 -43 -12 -90t-25 -94h2z" />
<glyph unicode="&#x2022;" horiz-adv-x="432" d="M40 756.5q3 -13.5 21 -15.5q82 -8 134 -92q16 -29 27 -63.5t20 -73.5q4 -12 21.5 -14t25.5 10q10 20 23.5 57t25.5 79t20.5 85t8.5 78q0 39 -15 65l-26 11q-66 -16 -137.5 -46t-135.5 -61q-16 -6 -13 -19.5z" />
<glyph unicode="&#x2026;" horiz-adv-x="1415" d="M51 246q0 -39 24.5 -79t74.5 -40q41 0 79.5 30.5t38.5 73.5q0 41 -32.5 79t-81.5 38q-47 0 -75 -30.5t-28 -71.5zM598 246q0 -39 24.5 -79t73.5 -40q20 0 42 8t39.5 22.5t28.5 32.5t11 41q0 41 -33.5 79t-83.5 38q-47 0 -74.5 -30.5t-27.5 -71.5zM1145 246 q0 -39 24.5 -79t73.5 -40q43 0 82 30.5t39 73.5q0 41 -34 79t-83 38q-47 0 -74.5 -30.5t-27.5 -71.5z" />
<glyph unicode="&#x202f;" horiz-adv-x="365" />
<glyph unicode="&#x2039;" horiz-adv-x="487" d="M45 793q68 -86 142.5 -171t158.5 -161q20 -14 35 4q22 34 57 65v27q-8 6 -28.5 27.5t-47 49.5t-56.5 58.5t-53.5 57t-39.5 46t-16 23.5q0 8 30.5 47t71.5 88q45 53 86 103.5t53 72.5q6 14 -8 23.5t-31 -0.5q-92 -80 -180 -163t-174 -175q-8 -8 0 -22z" />
<glyph unicode="&#x203a;" horiz-adv-x="489" d="M47 1055q12 -10 51 -49t82 -84t77 -82t34 -43q0 -10 -34 -52.5t-75 -95.5q-43 -53 -82 -99t-49 -67q-8 -12 6.5 -22t30.5 0q82 59 151.5 128.5t135.5 139.5q16 16 32.5 34.5t32.5 35.5l4 20q-63 86 -140 170t-161 162q-23 14 -34 -2q-16 -20 -29.5 -36.5t-30.5 -29.5 q-18 -14 -2 -28z" />
<glyph unicode="&#x205f;" horiz-adv-x="456" />
<glyph unicode="&#x20ac;" horiz-adv-x="1724" d="M55 578q0 -16 25 -17h225q31 -135 100.5 -242.5t169 -181.5t223.5 -112.5t263 -38.5q133 0 263 13t259 34q12 0 19 10q29 55 48 126t19 134q0 41 -8 72q-4 12 -21.5 14t-23.5 -10q-35 -76 -71 -133.5t-83 -95t-109.5 -56t-150.5 -18.5q-106 0 -206.5 40t-187.5 106.5 t-155.5 154.5t-109.5 184h1075q25 0 24 17v71q0 18 -24 19h-1104q-6 31 -9 67.5t-5 65.5h1118q25 0 24 16v72q0 18 -24 18h-1114q8 129 57 231.5t130 174t189.5 110.5t237.5 39q86 0 161 -22.5t135.5 -67.5t100 -112.5t54.5 -155.5q4 -16 25.5 -15t23.5 17q14 92 24.5 185 t12.5 188q0 18 -23 18q-53 4 -103 11.5t-104 15.5q-72 10 -147.5 19t-147.5 9q-66 0 -146.5 -8t-161.5 -28.5t-152.5 -53t-118.5 -82.5q-94 -96 -157.5 -220t-92.5 -253h-221q-25 0 -25 -18v-72q0 -16 25 -16h209q-2 -16 -2 -33v-35v-33q0 -16 2 -32h-209q-25 0 -25 -19v-71 z" />
<glyph unicode="&#x2122;" d="M51 1276q-4 -14 11.5 -20.5t27.5 4.5q35 29 79 39t87 14v-441q0 -14 -13.5 -18t-23.5 -2h-12q-20 0 -21.5 -17.5t19.5 -19.5q59 -4 118.5 -6t120.5 -2q20 0 23.5 13.5t-12.5 19.5q-4 2 -14.5 5t-16.5 7q-10 4 -20.5 8t-10.5 10v443h19q10 0 20 2h2q10 2 17 2h14 q55 0 61 -60q2 -16 22.5 -17t24.5 15q8 29 9.5 61.5t1.5 65.5l-23 19q-23 0 -51.5 -1t-50.5 -3q-27 -2 -49.5 -3t-49.5 -1h-104q-39 0 -74 1t-69 13q-23 8 -29 -10q-12 -31 -20.5 -61.5t-12.5 -59.5zM507 828.5q3 -13.5 21 -15.5q47 -4 94.5 -5t96.5 -1q16 0 22.5 12 t-10.5 21q-29 18 -37 51t-8 67q0 33 5 66t11 68q2 10 3.5 18t3.5 18q10 -18 14 -26t7 -14.5t6 -15.5t14 -30q29 -59 59.5 -117.5t71.5 -113.5q8 -6 18 -6q12 0 21 8q6 10 12 22.5t12 22.5q35 68 70 134.5t67 133.5q6 -76 15.5 -151.5t19.5 -147.5q4 -14 19 -16q29 -4 57 -4 h61h47q18 0 23.5 11.5t-10.5 21.5q-31 16 -50.5 58t-31.5 96.5t-18.5 117t-12.5 119.5q-4 49 -10 96t-14 76q-4 12 -19.5 14t-26.5 -8q-47 -63 -80.5 -132t-64.5 -134q-18 -39 -34.5 -76t-35.5 -72q-20 37 -28 56.5t-25 56.5q-35 74 -74.5 152.5t-91.5 148.5q-10 10 -25.5 8 t-19.5 -14q-4 -23 -10 -64t-12 -92q-8 -59 -17.5 -123.5t-23 -121t-29.5 -98.5t-39 -56q-16 -6 -13 -19.5z" />
<glyph unicode="&#x25fc;" horiz-adv-x="1239" d="M0 0v1239h1239v-1239h-1239z" />
</font>
</defs>
</svg>
