<?xml version="1.0" standalone="no"?>
<!DOCTYPE svg PUBLIC "-//W3C//DTD SVG 20010904//EN"
 "http://www.w3.org/TR/2001/REC-SVG-20010904/DTD/svg10.dtd">
<svg version="1.0" xmlns="http://www.w3.org/2000/svg"
 width="500.000000pt" height="500.000000pt" viewBox="0 0 500.000000 500.000000"
 preserveAspectRatio="xMidYMid meet">
<metadata>
Created by potrace 1.11, written by Peter Selinger 2001-2013
</metadata>
<g transform="translate(0.000000,500.000000) scale(0.100000,-0.100000)"
fill="#000000" stroke="none">
<path d="M158 4792 c-41 -8 -44 -32 -43 -374 0 -306 1 -327 19 -347 l19 -21
933 0 c842 0 934 -2 949 -16 17 -17 26 3 -237 -504 -36 -69 -105 -201 -153
-295 -91 -178 -200 -387 -293 -565 -97 -186 -187 -361 -282 -545 -51 -99 -119
-229 -150 -290 -32 -60 -95 -182 -140 -270 -142 -276 -231 -446 -285 -550 -29
-55 -93 -179 -143 -275 -235 -456 -229 -441 -195 -458 10 -5 189 -8 398 -7
446 1 422 -5 479 109 19 39 73 143 119 231 46 88 130 250 186 360 201 388 254
491 306 590 29 55 81 155 115 223 34 67 70 126 79 130 20 10 1258 9 1286 -1
14 -5 135 -238 425 -818 441 -884 434 -871 524 -884 22 -3 211 -5 418 -3 l378
3 27 28 c45 44 38 81 -41 237 -142 279 -332 652 -431 845 -56 110 -162 317
-235 460 -73 143 -187 366 -253 495 -66 129 -178 350 -250 490 -71 140 -173
341 -227 445 -53 105 -168 330 -255 500 -87 171 -162 316 -168 323 -7 9 174
12 900 12 910 0 910 0 929 21 17 19 19 42 19 350 0 295 -1 331 -17 351 l-17
23 -2338 0 c-1287 0 -2346 -1 -2355 -3z m2758 -820 c6 -4 80 -142 164 -307 84
-165 196 -385 250 -490 54 -104 157 -307 230 -450 73 -143 181 -354 240 -470
59 -115 169 -331 245 -480 76 -148 186 -364 245 -480 59 -115 178 -349 265
-520 87 -170 171 -334 186 -364 16 -29 27 -57 24 -61 -2 -4 -155 -7 -339 -7
-296 0 -337 2 -350 16 -7 9 -195 377 -416 819 -407 813 -421 840 -488 868 -20
8 -195 11 -607 12 -319 0 -599 1 -622 1 l-43 1 72 138 c40 75 102 196 139 267
l67 130 339 1 c239 1 345 4 361 13 26 14 52 61 52 94 0 13 -76 175 -168 360
l-169 336 47 88 c64 120 219 421 239 461 16 34 19 36 37 24z m-263 -988 l127
-254 -265 0 c-146 0 -265 4 -265 8 0 4 4 12 9 18 5 5 50 90 101 189 129 251
153 295 159 294 3 0 63 -115 134 -255z"/>
</g>
</svg>
